<?xml version="1.0" encoding="UTF-8" standalone="no"?>
<svg
   xmlns:dc="http://purl.org/dc/elements/1.1/"
   xmlns:cc="http://creativecommons.org/ns#"
   xmlns:rdf="http://www.w3.org/1999/02/22-rdf-syntax-ns#"
   xmlns:svg="http://www.w3.org/2000/svg"
   xmlns="http://www.w3.org/2000/svg"
   viewBox="0 0 6666.6665 6666.6665"
   height="6666.6665"
   width="6666.6665"
   xml:space="preserve"
   id="svg2"
   version="1.1"><metadata
     id="metadata8"><rdf:RDF><cc:Work
         rdf:about=""><dc:format>image/svg+xml</dc:format><dc:type
           rdf:resource="http://purl.org/dc/dcmitype/StillImage" /></cc:Work></rdf:RDF></metadata><defs
     id="defs6"><clipPath
       id="clipPath248"
       clipPathUnits="userSpaceOnUse"><path
         id="path246"
         d="m 29047.2,34769.9 c 86.8,14.5 185,60.3 269,90.6 332.2,119.7 815,357.8 1143.1,423.5 l 26.8,-22.9 c 33.9,-264.3 29.7,-4258.6 -3.9,-4354.6 l -7.9,-13.4 c 7.7,-123.3 54.3,-315.9 19.9,-429.4 -0.9,-156.5 -11.5,-319.5 0.9,-475.1 42.4,-588.2 0,-1191.9 2,-1781.6 l 2.2,-1060.4 c 0.6,-312.5 -8,-627.7 2.9,-939.8 -0.3,-118.5 2.9,-238 -5.1,-356.3 l 2.3,-2048.5 c -340.2,-104.7 -1169.5,-350.2 -1451.2,-507.6 l 3.1,-294.8 c 266.3,104.7 552.1,181 824.9,269.3 196.9,90.6 418.2,148.4 628.9,197.9 -1.8,-659.6 -23.3,-1326 -0.6,-1984.7 14.4,-111.2 15.6,-217.1 -8.6,-327.3 13.9,-689 3.9,-1379.4 2.8,-2068.5 -487.6,-145.7 -968.1,-319.6 -1449.6,-484.1 l -3.8,-9.4 c 2.4,-97.9 -2.9,-202.7 12.3,-299.2 475.2,146 955.3,342.6 1435.9,460.9 8.2,-658.7 11.1,-1317.3 8.7,-1976 -482.5,-173.6 -968.4,-337.1 -1457.6,-490.7 l -373.5,-122.9 c -96,-39.6 -189.7,-80 -291.2,-103.7 -576.3,-194.7 -1156.2,-378.5 -1739.5,-551.4 l -3.7,1967 2.9,327.6 c 2.3,684.4 0.8,1368.8 -4.3,2053.3 v 326.1 l -1.3,299.8 4.4,898.2 c 2.2,260.8 1.9,521.5 -0.8,782.3 l -0.6,283.2 -1,2089.5 c -5.7,103.3 -2.4,207.9 -2.6,311.3 -0.7,662.5 -5.8,1325 -15.1,1987.5 -3.7,119.4 2.1,240.8 3.8,360.3 22,665.3 1.7,1337.6 1.3,2003.7 l 7.4,327.2 c -50.7,651.4 4.2,1351.7 -14.1,2010.6 -2,193.5 -41.2,1164.3 16.6,1260.1 l 4.5,1065.4 c 568.5,218.6 1128,449.7 1705.6,644.9 85.6,61 207.1,92.1 305.8,128.8 137.4,32.5 266.4,82.9 398,133.3 z" /></clipPath><linearGradient
       id="linearGradient256"
       spreadMethod="pad"
       gradientTransform="matrix(3552.02,-320.499,320.499,3552.02,26081.2,25619.7)"
       gradientUnits="userSpaceOnUse"
       y2="0"
       x2="1"
       y1="0"
       x1="0"><stop
         id="stop252"
         offset="0"
         style="stop-opacity:1;stop-color:#3266ae" /><stop
         id="stop254"
         offset="1"
         style="stop-opacity:1;stop-color:#4283c7" /></linearGradient></defs><g
     transform="matrix(1.3333333,0,0,-1.3333333,0,6666.6667)"
     id="g10"><g
       transform="scale(0.1)"
       id="g12"><g
         transform="scale(2.83742)"
         id="g14"><path
           id="path16"
           style="fill:#ffffff;fill-opacity:1;fill-rule:nonzero;stroke:none"
           d="M 1321.63,16300 H 16300 V 1321.62 H 1321.63 V 16300" /></g><g
         transform="scale(2.49602)"
         id="g18"><path
           id="path20"
           style="fill:#4d71b8;fill-opacity:1;fill-rule:nonzero;stroke:none"
           d="m 11355,16300 7,-2.1 c 217,-89.7 430.2,-190.9 645.5,-284.9 9.3,-209.4 -2.9,-421.7 -2.5,-631.5 l -1.2,-172.7 c 238.4,-110.4 481,-210.7 727.8,-300.9 12.2,-1047.1 3,-2095.9 2.8,-3143.1 l 0.2,-4573.59 546.6,0.08 0.3,-1116.94 c 100.5,-27.64 402.2,-7.49 524.6,-8.37 l -0.3,-497.71 -420.6,3.24 c -69.3,0.52 -148.6,-5.73 -216.8,6.37 -0.5,-104.08 1.3,-208.81 -2.9,-312.78 -6,-32.21 -9.6,-63.34 -11.4,-96.07 -129.8,-1.44 -282.2,-17.91 -408.4,14.06 -2.5,0.61 -5,1.05 -7.4,1.53 l -6.8,36.65 c -65.9,11.18 -143.5,4.37 -210.6,4.29 l -389.9,-0.64 c -421.7,2.16 -843.4,2.12 -1265.1,-0.12 -169.4,3.2 -339.3,1.4 -508.7,2 l -351,0.08 -6.2,-1.24 c -243.14,7.81 -488.01,3.45 -731.32,4.73 -181.01,1.92 -361.98,1.68 -542.98,-0.8 -101.77,-0.64 -203.53,-0.4 -305.29,0.68 l -40.42,0.2 c -93.95,-1.8 -188.14,-0.44 -282.09,-0.52 -153.53,0.4 -320.44,11.82 -472.32,-9.1 -55.89,-1.16 -111.77,-2.88 -167.62,-5.12 -3.37,1.36 -6.73,2.64 -10.06,4.08 -93.63,40.51 -436.53,25.64 -558.97,26.28 l 0.32,358.74 c -197.47,18.1 -469.31,4.12 -673.39,4.44 l -0.72,374.8 c 173.27,-0.12 346.51,1.64 519.75,5.25 3.96,125.2 -2.29,251.44 -1.73,376.8 1.2,263.86 6.49,525.72 -1.96,789.7 l 600.96,-1.05 c 21.19,106.01 1.48,240.91 1.52,349.84 l -2.81,1079.68 4.45,3283.73 c -4.69,670.9 -3.92,1341.8 2.29,2012.6 1.16,323.8 -7.54,650.9 2.16,974.3 0.8,26.4 1.2,40.3 16.79,61.9 128.08,-62.6 268.14,-102.6 402.6,-149.5 89.78,-31.3 177.76,-68.2 267.66,-99 l 2.17,684.7 c -1.93,180.2 12.9,371.7 -7.18,550.2 l -1.68,33 c 178.49,111.9 449.92,173.6 607.69,296.3 l 14.94,16.9 c 296.56,-122.9 598.72,-231.1 896.67,-350.3 96.4,-38.6 386.06,-173.8 467.07,-186.3 51.9,44.9 162.9,79.8 226.7,108.4 251.6,110.8 504.4,218.5 758.5,323.3 119.3,49.9 250.3,93.7 363.3,155.5" /></g><g
         transform="scale(2.48827)"
         id="g22"><path
           id="path24"
           style="fill:#c9dbf3;fill-opacity:1;fill-rule:nonzero;stroke:none"
           d="m 8654.69,16283 14.99,17 c 297.48,-123.3 600.58,-231.8 899.47,-351.4 96.69,-38.7 387.25,-174.3 468.55,-186.9 10.2,-100.5 -5.9,-203.2 6.6,-302.8 l -5.6,-0.1 -0.4,-255.2 c 3.7,-185 11.5,-376.5 0.9,-561 -0.5,-84.7 -13.8,-640.1 10.6,-673.3 l -10.9,-3.9 -0.4,-4886.92 c 0.1,-857.38 12.7,-1716.85 -1.4,-2574.04 4.5,-159.62 5.8,-322.47 -0.4,-482.02 l -2.4,-404.13 c -155.98,0.92 -316.58,9.6 -472.07,-1.17 158.23,-9.56 317.77,-4.38 476.27,-6.71 -16.3,-110.56 -18.2,-257.01 -1.2,-367.25 l -6.1,-1.24 c -243.95,7.84 -489.58,3.45 -733.65,4.74 -181.57,1.93 -363.1,1.69 -544.67,-0.8 -102.08,-0.65 -204.16,-0.4 -306.24,0.68 l -40.55,0.2 c -94.24,-1.81 -188.73,-0.44 -282.97,-0.52 -154,0.4 -321.43,11.85 -473.78,-9.12 -56.07,-1.17 -112.13,-2.9 -168.15,-5.15 -3.38,1.37 -6.75,2.66 -10.09,4.1 -93.92,40.63 -437.89,25.72 -560.71,26.37 l 0.32,359.84 c -198.09,18.17 -470.77,4.14 -675.49,4.47 l -0.72,375.96 c 173.81,-0.12 347.59,1.65 521.36,5.26 3.98,125.59 -2.29,252.23 -1.72,377.98 1.2,264.68 6.51,527.35 -1.97,792.15 l 602.82,-1.04 c 21.27,106.34 1.49,241.65 1.53,350.93 l -2.81,1083.04 4.46,3293.99 c -4.7,672.9 -3.94,1345.9 2.29,2018.9 1.17,324.7 -7.55,652.8 2.17,977.3 0.8,26.5 1.21,40.4 16.84,62 128.48,-62.8 268.98,-102.8 403.86,-149.9 90.06,-31.4 178.31,-68.4 268.5,-99.3 l 2.17,686.8 c -1.93,180.8 12.94,372.9 -7.2,551.9 l -1.69,33.2 c 179.04,112.2 451.32,174.1 609.58,297.1" /></g><g
         transform="scale(2.18578)"
         id="g26"><path
           id="path28"
           style="fill:#4d71b8;fill-opacity:1;fill-rule:nonzero;stroke:none"
           d="m 8788.49,16300 c 264.3,-106.1 534.27,-197.6 802.51,-292.9 430.1,-150.8 858.1,-307.5 1284,-470 -8.6,-317.3 0.2,-636.8 0.5,-954.3 l 1.1,-1867.1 -0.7,-5717 c -1.7,-30.66 -3.5,-60.76 -2.4,-91.46 0.7,-19.22 -2.1,-29.92 -11.3,-47.31 -19.8,-2.1 -22.9,-1.32 -40.5,5.36 -262,103.35 -535.4,182.49 -803.2,269.97 -413.14,135.28 -823.61,278.3 -1231.34,429.09 -9.65,1157.94 -12.58,2315.88 -8.69,3473.85 l 10.02,5261.8" /></g><g
         transform="scale(2.01669)"
         id="g30"><path
           id="path32"
           style="fill:#a0dec0;fill-opacity:1;fill-rule:nonzero;stroke:none"
           d="m 9700.56,16300 c 276.5,-101.2 552.74,-206.9 831.64,-301.1 26.4,-5.3 51.9,-8.9 75.5,-22.5 47.4,-18.8 97.2,-35.6 143.2,-57.5 l 82.9,-33.8 c 194.5,-73.2 392.5,-139.9 586.2,-215.1 66.8,-22.9 133.3,-46.6 199.5,-71.2 8.1,-336.6 10.2,-681.8 -4.1,-1018.2 -202.8,67.4 -407.2,144.3 -604.2,227 l -179.3,63 -83.3,30.8 c -47.4,12.2 -95.1,31.9 -141.6,47.7 -29.7,8.2 -56.4,18.9 -84.4,31.4 -272.7,105.2 -549.06,202 -822.23,306.5 -11.46,336.3 -0.55,676.3 0.19,1013" /></g><g
         transform="scale(1.93874)"
         id="g34"><path
           id="path36"
           style="fill:#95dce7;fill-opacity:1;fill-rule:nonzero;stroke:none"
           d="m 11879.1,16300 c 69.6,-23.7 138.7,-48.4 207.5,-74.1 8.5,-350.1 10.7,-709.1 -4.2,-1059 -211,70 -423.5,150 -628.4,236.1 95.3,126.2 146.4,280.6 209.3,424.6 69.7,158.5 141.6,316 215.8,472.4" /></g><g
         transform="scale(1.96536)"
         id="g38"><path
           id="path40"
           style="fill:#78d1c0;fill-opacity:1;fill-rule:nonzero;stroke:none"
           d="m 11116.7,16300 c 199.7,-75.2 402.8,-143.6 601.5,-220.8 -73.2,-154.3 -144.1,-309.6 -212.9,-466 -62,-142.1 -112.4,-294.3 -206.5,-418.9 l -184,64.7 c 9.4,346.6 3.4,694.3 1.9,1041" /></g><g
         transform="scale(1.97944)"
         id="g42"><path
           id="path44"
           style="fill:#78d1c0;fill-opacity:1;fill-rule:nonzero;stroke:none"
           d="m 10730.4,16300 c 26.9,-5.4 52.9,-9.1 77,-23 48.3,-19.1 98.9,-36.2 145.8,-58.5 l 84.4,-34.4 c 1.5,-344.3 7.5,-689.5 -1.8,-1033.7 l -85,31.5 c -48.2,12.3 -96.8,32.4 -144.2,48.5 -30.2,8.3 -57.4,19.3 -86,32 24.2,342.7 3.9,693.8 9.8,1037.6" /></g><g
         transform="scale(1.96953)"
         id="g46"><path
           id="path48"
           style="fill:#ffffff;fill-opacity:1;fill-rule:nonzero;stroke:none"
           d="m 11008.2,16300 84.9,-34.6 c 1.5,-345.9 7.5,-692.9 -1.8,-1038.8 l -85.4,31.6 c -3.6,347 1.1,694.7 2.3,1041.8" /></g><g
         transform="scale(1.97944)"
         id="g50"><path
           id="path52"
           style="fill:#5dbded;fill-opacity:1;fill-rule:nonzero;stroke:none"
           d="m 10730.4,16300 c 26.9,-5.4 52.9,-9.1 77,-23 -0.1,-348.8 -4.1,-697.9 -0.8,-1046.6 -30.2,8.3 -57.4,19.3 -86,32 24.2,342.7 3.9,693.8 9.8,1037.6" /></g><g
         transform="scale(1.73495)"
         id="g54"><path
           id="path56"
           style="fill:#6bcff3;fill-opacity:1;fill-rule:nonzero;stroke:none"
           d="m 11272.6,16300 c 322.7,-119.9 643.1,-253.8 972.5,-354.2 26.5,-9.5 59,-17.2 82.5,-32.4 l 165.8,-69.3 103.8,-43.4 c 274.5,-103.6 625.7,-250.7 900.6,-325.2 -2.4,-395.5 -1.8,-791.1 1.7,-1186.7 -193.7,72.8 -387.7,144.6 -582.1,215.5 -107.2,39.5 -237,75.9 -334.3,134.4 l -94,33.9 -160.2,61.5 -85.2,27.6 c -324.7,108.7 -648.7,219.8 -971.9,333.3 -9.8,401.1 -1.9,803.8 0.8,1205" /></g><g
         transform="scale(1.68181)"
         id="g58"><path
           id="path60"
           style="fill:#6bcff3;fill-opacity:1;fill-rule:nonzero;stroke:none"
           d="m 12995.2,16300 c 283.2,-106.9 645.5,-258.6 929.1,-335.5 -2.5,-408 -1.9,-816.1 1.7,-1224.2 -199.8,75.1 -399.9,149.2 -600.4,222.3 -110.7,40.8 -244.6,78.3 -344.9,138.6 36.8,86.1 15.8,1016.5 14.5,1198.8" /></g><g
         transform="scale(1.6938)"
         id="g62"><path
           id="path64"
           style="fill:#76d3ee;fill-opacity:1;fill-rule:nonzero;stroke:none"
           d="m 12627,16300 169.9,-71 106.3,-44.4 c 1.3,-181 22.1,-1104.8 -14.5,-1190.3 l -96.2,34.7 -164.1,63.1 c -3.3,402.6 -3.7,805.3 -1.4,1207.9" /></g><g
         transform="scale(1.68642)"
         id="g66"><path
           id="path68"
           style="fill:#ffffff;fill-opacity:1;fill-rule:nonzero;stroke:none"
           d="m 12852.9,16300 106.8,-44.6 c 1.3,-181.8 22.2,-1109.6 -14.6,-1195.5 l -96.6,34.9 c -2.6,401.7 -1.1,803.5 4.4,1205.2" /></g><g
         transform="scale(1.69725)"
         id="g70"><path
           id="path72"
           style="fill:#4691d5;fill-opacity:1;fill-rule:nonzero;stroke:none"
           d="m 12517.2,16300 c 27,-9.7 60.2,-17.6 84.2,-33.1 -2.3,-401.8 -1.9,-803.6 1.4,-1205.4 l -87.1,28.2 1.5,1210.3" /></g><g
         transform="scale(1.43777)"
         id="g74"><path
           id="path76"
           style="fill:#a0dec0;fill-opacity:1;fill-rule:nonzero;stroke:none"
           d="m 13605.8,13059.8 c 389.2,-140.8 777.2,-288 1169.2,-420.7 34.3,-9.1 65.7,-16.3 97.6,-32.5 72,-26.3 143,-51.9 217.4,-71 l 103.8,-39.3 c 361.9,-125.7 731.9,-242.1 1087.3,-384.8 -2.6,-469.3 18.9,-952.2 -12.5,-1419.7 -357.7,131.4 -720.5,249.4 -1077.3,382.4 l -123.1,41.4 c -65.7,27.7 -132.3,51 -199.6,74.1 l -105.4,38.6 c -380.2,121.2 -776.4,230.9 -1140.3,396.3 -43.6,449.3 -16.2,976.6 -17.1,1435.2" /></g><g
         transform="scale(1.3053)"
         id="g78"><path
           id="path80"
           style="fill:#a0dec0;fill-opacity:1;fill-rule:nonzero;stroke:none"
           d="m 14986.5,14385.1 c 428.7,-155 856.1,-317.1 1287.9,-463.3 l 0.2,-1011.4 c 0.3,-165.4 25.4,-384.5 -13.2,-542.6 -418.8,133.5 -855.2,254.4 -1256,436.5 -48,494.9 -17.9,1075.7 -18.9,1580.8" /></g><g
         transform="scale(1.33104)"
         id="g82"><path
           id="path84"
           style="fill:#a0dec0;fill-opacity:1;fill-rule:nonzero;stroke:none"
           d="m 15959.7,13652.6 c 37.1,-9.9 71,-17.7 105.4,-35.1 77.9,-28.4 154.6,-56.1 234.9,-76.8 -45.7,-111.6 -25.5,-1311.9 -23.6,-1533.7 -70.9,29.9 -142.8,55 -215.5,80 l -113.9,41.7 c 37.8,155 13.2,369.9 12.9,532.1 l -0.2,991.8" /></g><g
         transform="scale(1.31186)"
         id="g86"><path
           id="path88"
           style="fill:#4691d5;fill-opacity:1;fill-rule:nonzero;stroke:none"
           d="m 16193.1,13852.2 c 37.5,-10 71.9,-17.9 106.9,-35.6 -5,-517.1 -11.7,-1036 -4.3,-1552.9 l -115.6,42.3 c 38.4,157.3 13.4,375.3 13.1,539.9 l -0.1,1006.3" /></g><g
         transform="scale(1.34211)"
         id="g90"><path
           id="path92"
           style="fill:#ffffff;fill-opacity:1;fill-rule:nonzero;stroke:none"
           d="m 16165.5,13429 111.3,-42 c 0.2,-504.7 23.2,-1020.1 -2.8,-1523.5 l -131.9,44.4 c -1.9,220 -21.9,1410.4 23.4,1521.1" /></g><g
         transform="scale(2.1578)"
         id="g94"><path
           id="path96"
           style="fill:#6bcff3;fill-opacity:1;fill-rule:nonzero;stroke:none"
           d="m 9056.64,16300 c 171.15,-70.8 345.77,-135 519.33,-199.5 89.12,-33.1 202.43,-61.5 281.95,-112.5 27.85,-12.3 46.3,-16.3 76.7,-18.4 37.54,-10.8 75.08,-21.4 111.98,-34.2 l 81.9,-31 c 228,-83.9 458.5,-178.2 691.6,-246.8 24,-21.5 25.6,-30.4 27.8,-62.3 6.5,-94.5 0.4,-193.6 -0.1,-288.6 l -1.6,-563.6 c -175.6,54.3 -358.3,106 -527.2,178.5 -63.9,22.2 -127.1,46.3 -189.6,72.5 l -82.9,32.2 c -40.4,17.5 -82.59,31.3 -124.07,46.1 -29.29,6.3 -58.3,16.7 -86.94,25.6 -259.34,91.4 -518.07,182.8 -772.5,287.4 -17.66,302.4 -5.88,611.4 -6.35,914.6" /></g><g
         transform="scale(2.1578)"
         id="g98"><path
           id="path100"
           style="fill:#6bcff3;fill-opacity:1;fill-rule:nonzero;stroke:none"
           d="m 9056.64,16300 c 171.15,-70.8 345.77,-135 519.33,-199.5 89.12,-33.1 202.43,-61.5 281.95,-112.5 -1.43,-115.3 12.38,-855.4 -17.98,-886.4 -1.34,-1.4 -2.96,-2.4 -4.45,-3.6 -259.34,91.4 -518.07,182.8 -772.5,287.4 -17.66,302.4 -5.88,611.4 -6.35,914.6" /></g><g
         transform="scale(2.07275)"
         id="g102"><path
           id="path104"
           style="fill:#5dbded;fill-opacity:1;fill-rule:nonzero;stroke:none"
           d="m 11264,16300 c 25,-22.3 26.7,-31.6 29,-64.9 6.7,-98.4 0.4,-201.5 -0.1,-300.4 l -1.7,-586.7 c -182.7,56.5 -373,110.3 -548.8,185.8 176.2,170.7 360.5,549 521.6,766.2" /></g><g
         transform="scale(2.11649)"
         id="g106"><path
           id="path108"
           style="fill:#76d3ee;fill-opacity:1;fill-rule:nonzero;stroke:none"
           d="m 10050.3,16300 c 28.4,-12.5 47.2,-16.6 78.2,-18.7 38.3,-11.1 76.5,-21.9 114.2,-34.9 l -0.1,-926.8 c -41.2,17.8 -84.2,31.8 -126.5,46.9 -29.9,6.5 -59.5,17.1 -88.7,26.1 1.6,1.3 3.2,2.3 4.6,3.7 30.9,31.6 16.9,786.1 18.3,903.7" /></g><g
         transform="scale(2.11649)"
         id="g110"><path
           id="path112"
           style="fill:#4691d5;fill-opacity:1;fill-rule:nonzero;stroke:none"
           d="m 10050.3,16300 c 28.4,-12.5 47.2,-16.6 78.2,-18.7 -5.7,-304.6 -16.4,-610.2 -12.4,-914.8 -29.9,6.5 -59.5,17.1 -88.7,26.1 1.6,1.3 3.2,2.3 4.6,3.7 30.9,31.6 16.9,786.1 18.3,903.7" /></g><g
         transform="scale(2.10953)"
         id="g114"><path
           id="path116"
           style="fill:#ffffff;fill-opacity:1;fill-rule:nonzero;stroke:none"
           d="m 10276.5,16300 83.7,-31.8 c 2.6,-310.3 2.9,-620.7 1,-931.1 l -84.9,33 0.2,929.9" /></g><g
         transform="scale(1.43696)"
         id="g118"><path
           id="path120"
           style="fill:#6bcff3;fill-opacity:1;fill-rule:nonzero;stroke:none"
           d="m 14879.7,14270.2 206.1,-72.4 123.1,-46.3 c 361.4,-131 723.6,-268.9 1090,-384.8 1.1,-477.6 -1.5,-955.2 -7.7,-1432.7 -248,87.4 -899.2,265.9 -1087,373.1 l -119.1,42.1 c -68.8,18.9 -137.2,48.4 -204.4,72.9 -19.9,177.5 -9.8,364.3 -9.3,542.8 -0.5,301.8 2.3,603.6 8.3,905.3" /></g><g
         transform="scale(1.34091)"
         id="g122"><path
           id="path124"
           style="fill:#76d3ee;fill-opacity:1;fill-rule:nonzero;stroke:none"
           d="m 15945.6,15292.4 220.8,-77.6 132,-49.6 c 1.6,-515.9 -0.1,-1031.9 -5,-1547.8 l -127.7,45.1 c -73.8,20.2 -147,51.9 -219,78.1 -21.4,190.3 -10.6,390.4 -10,581.7 -0.6,323.4 2.4,646.8 8.9,970.1" /></g><g
         transform="scale(1.34091)"
         id="g126"><path
           id="path128"
           style="fill:#ffffff;fill-opacity:1;fill-rule:nonzero;stroke:none"
           d="m 16166.4,15214.8 132,-49.6 c 1.6,-515.9 -0.1,-1031.9 -5,-1547.8 l -127.7,45.1 0.7,1552.3" /></g><g
         transform="scale(1.54814)"
         id="g130"><path
           id="path132"
           style="fill:#6bcff3;fill-opacity:1;fill-rule:nonzero;stroke:none"
           d="m 13812.3,16300 c 61.6,-19.4 122.1,-42.7 182.8,-64.6 l 118.7,-47.2 c 331.8,-126.7 667.7,-269.7 1007.4,-372.8 -3.4,-445.4 -2.5,-890.6 2.8,-1335.8 -194.4,73.1 -389.2,145 -584.6,215.5 -135.3,48.2 -311,89.1 -432,166.3 l -110.6,48.7 -188,76.9 c -11.1,187.3 -3.1,379.6 -3.5,567.5 -0.4,248 -6.8,497.8 7,745.5" /></g><g
         transform="scale(1.54814)"
         id="g134"><path
           id="path136"
           style="fill:#76d3ee;fill-opacity:1;fill-rule:nonzero;stroke:none"
           d="m 13812.3,16300 c 61.6,-19.4 122.1,-42.7 182.8,-64.6 -1.4,-440.6 -13.2,-885.1 1.7,-1325.3 l -188,76.9 c -11.1,187.3 -3.1,379.6 -3.5,567.5 -0.4,248 -6.8,497.8 7,745.5" /></g><g
         transform="scale(1.54201)"
         id="g138"><path
           id="path140"
           style="fill:#ffffff;fill-opacity:1;fill-rule:nonzero;stroke:none"
           d="m 14050.8,16300 119.2,-47.4 0.8,-856.9 c 0.1,-155.5 10.9,-321.1 -7.3,-475.1 l -111,48.9 c -15,441.9 -3.1,888.2 -1.7,1330.5" /></g><g
         transform="scale(1.43639)"
         id="g142"><path
           id="path144"
           style="fill:#6bcff3;fill-opacity:1;fill-rule:nonzero;stroke:none"
           d="m 14877.6,15942.9 c 69,-32.8 142.2,-59.9 213,-89 l 120.3,-42.3 c 361.4,-129.7 735,-264.3 1081,-430.4 -1.5,-467.5 1.2,-935 8.1,-1402.5 -253.8,86.4 -506.2,176.5 -757.2,270.3 -108.9,40.2 -229.9,74.8 -333.4,125.8 l -131.9,47.1 c -61.6,27.1 -126.2,49.7 -188.9,74.3 -3.6,482.3 -12.9,964.3 -11,1446.7" /></g><g
         transform="scale(1.40492)"
         id="g146"><path
           id="path148"
           style="fill:#95dce7;fill-opacity:1;fill-rule:nonzero;stroke:none"
           d="m 15210.9,16300 c 70.5,-33.5 145.4,-61.2 217.7,-91 -30.9,-164.5 -11.9,-358.4 -12.3,-526.9 -0.6,-312.1 -6,-625.1 -1,-937.1 -63,27.7 -129,50.8 -193.2,75.9 -3.7,493.1 -13.1,985.9 -11.2,1479.1" /></g><g
         transform="scale(1.39708)"
         id="g150"><path
           id="path152"
           style="fill:#ffffff;fill-opacity:1;fill-rule:nonzero;stroke:none"
           d="m 15515.2,16300 123.8,-43.5 c 2.2,-492.4 1.7,-984.8 -1.6,-1477.2 l -135.6,48.4 c -5,313.8 0.4,628.5 1,942.4 0.4,169.4 -18.6,364.5 12.4,529.9" /></g><g
         transform="scale(1.83029)"
         id="g154"><path
           id="path156"
           style="fill:#6bcff3;fill-opacity:1;fill-rule:nonzero;stroke:none"
           d="m 11685.7,16300 c 51.6,-18.6 104.1,-35.2 156.1,-52.7 31.2,-9.9 63.7,-22.5 95.4,-29.8 288.9,-103.5 576.4,-210.7 862.5,-321.8 -1,-350.4 14.1,-709.9 -7.9,-1059.5 -167.1,51.2 -742.2,254.4 -856,332.8 l -94.2,36 -146.7,51 c -9.9,347.3 -5.8,696.4 -9.2,1044" /></g><g
         transform="scale(1.83029)"
         id="g158"><path
           id="path160"
           style="fill:#76d3ee;fill-opacity:1;fill-rule:nonzero;stroke:none"
           d="m 11685.7,16300 c 51.6,-18.6 104.1,-35.2 156.1,-52.7 l -0.2,-1042.3 -146.7,51 c -9.9,347.3 -5.8,696.4 -9.2,1044" /></g><g
         transform="scale(1.82438)"
         id="g162"><path
           id="path164"
           style="fill:#ffffff;fill-opacity:1;fill-rule:nonzero;stroke:none"
           d="m 11880.2,16300 c 31.2,-9.9 63.9,-22.6 95.6,-29.9 l -1.3,-1051.9 -94.5,36.1 0.2,1045.7" /></g><g
         transform="scale(1.44436)"
         id="g166"><path
           id="path168"
           style="fill:#a0dec0;fill-opacity:1;fill-rule:nonzero;stroke:none"
           d="m 13531,16300 c 299.9,-132.9 632.3,-227.9 942.9,-337.1 73.4,-23.7 147.3,-50.9 221.6,-71.4 l 0.5,-1442.8 c -68.6,20.9 -156.1,38.4 -219.4,70.2 -310.8,98.9 -647.4,190.1 -940.9,331.6 -24.6,479 -4.9,969.4 -4.7,1449.5" /></g><g
         transform="scale(1.41449)"
         id="g170"><path
           id="path172"
           style="fill:#95dce7;fill-opacity:1;fill-rule:nonzero;stroke:none"
           d="m 14779.5,16300 c 75,-24.2 150.5,-52 226.3,-72.9 l 0.5,-1473.3 c -70,21.4 -159.3,39.2 -224,71.7 l -2.8,1474.5" /></g><g
         transform="scale(1.3029)"
         id="g174"><path
           id="path176"
           style="fill:#6bcff3;fill-opacity:1;fill-rule:nonzero;stroke:none"
           d="m 15010.4,16239.4 c 428.4,-158.3 858.3,-312.5 1289.6,-462.5 -11.4,-523.7 -3.1,-1048.6 -6.7,-1572.5 -88.7,-10 -1137.2,385.7 -1285.4,436.3 -19.1,531 -2.5,1067.2 2.5,1598.7" /></g><g
         transform="scale(1.58814)"
         id="g178"><path
           id="path180"
           style="fill:#6bcff3;fill-opacity:1;fill-rule:nonzero;stroke:none"
           d="m 12314.9,16300 c 352.4,-93.4 706.1,-246.9 1049.5,-371.3 l -0.1,-1285.9 c -349.6,132 -711.3,234.8 -1056.6,378.2 -7.8,250.4 -2.6,502.8 -3.3,753.4 -0.5,169.2 -17.6,359.4 10.5,525.6" /></g><g
         transform="scale(1.87353)"
         id="g182"><path
           id="path184"
           style="fill:#6bcff3;fill-opacity:1;fill-rule:nonzero;stroke:none"
           d="m 10438,16300 c 302.6,-102.9 598.6,-235.1 900.6,-342.6 l 0.4,-1029.1 c -303.2,92.1 -600.1,216.7 -898.4,324.2 -19.3,346.5 -6,700.4 -2.6,1047.5" /></g><g
         transform="scale(2.48827)"
         id="g186"><path
           id="path188"
           style="fill:#4d71b8;fill-opacity:1;fill-rule:nonzero;stroke:none"
           d="m 8654.69,16283 14.99,17 c 297.48,-123.3 600.58,-231.8 899.47,-351.4 96.69,-38.7 387.25,-174.3 468.55,-186.9 10.2,-100.5 -5.9,-203.2 6.6,-302.8 l -5.6,-0.1 -0.4,-255.2 c 3.7,-185 11.5,-376.5 0.9,-561 -0.5,-84.7 -13.8,-640.1 10.6,-673.3 l -10.9,-3.9 c -273.11,93 -542.62,206.1 -812.76,308.1 -391.36,147.7 -784.65,288.3 -1174.31,440.5 l 2.17,686.8 c -1.93,180.8 12.94,372.9 -7.2,551.9 l -1.69,33.2 c 179.04,112.2 451.32,174.1 609.58,297.1" /></g><g
         transform="scale(2.351)"
         id="g190"><path
           id="path192"
           style="fill:#344c96;fill-opacity:1;fill-rule:nonzero;stroke:none"
           d="m 8524.24,16300 c 169.59,-78.9 354.07,-137.3 529.48,-203.1 373.97,-137 746.71,-277.1 1118.28,-420.3 147.8,-57.2 313.3,-107 453.3,-179 -0.4,-89.7 -14.5,-677.6 11.3,-712.7 l -11.5,-4.1 c -289.1,98.4 -574.4,218.2 -860.28,326.1 -414.2,156.3 -830.45,305.1 -1242.87,466.2 l 2.29,726.9" /></g><g
         transform="scale(2.48827)"
         id="g194"><path
           id="path196"
           style="fill:#c9dbf3;fill-opacity:1;fill-rule:nonzero;stroke:none"
           d="m 8654.69,16283 14.99,17 c 297.48,-123.3 600.58,-231.8 899.47,-351.4 96.69,-38.7 387.25,-174.3 468.55,-186.9 10.2,-100.5 -5.9,-203.2 6.6,-302.8 l -5.6,-0.1 -0.4,-255.2 c -208.57,47.7 -500.74,185.9 -704.26,268.3 -428.09,173.5 -857.86,348.2 -1288.93,514 179.04,112.2 451.32,174.1 609.58,297.1" /></g><g
         transform="scale(2.48827)"
         id="g198"><path
           id="path200"
           style="fill:#4d71b8;fill-opacity:1;fill-rule:nonzero;stroke:none"
           d="m 8654.69,16283 14.99,17 c 297.48,-123.3 600.58,-231.8 899.47,-351.4 96.69,-38.7 387.25,-174.3 468.55,-186.9 10.2,-100.5 -5.9,-203.2 6.6,-302.8 l -5.6,-0.1 c -111.63,60.7 -237.59,102.8 -355.74,149.9 -183.46,74.7 -367.65,147.6 -552.55,218.7 -156.3,60.4 -315.8,116.9 -466.55,190.4 -0.53,88.7 -0.24,176.9 -9.17,265.2" /></g><g
         transform="scale(1.5331)"
         id="g202"><path
           id="path204"
           style="fill:#8aa4db;fill-opacity:1;fill-rule:nonzero;stroke:none"
           d="m 16290.5,10556.9 c 7.4,-259.1 9.5,-523.4 -0.5,-782.31 l -4,-655.93 c -253.2,1.5 -513.8,15.59 -766.2,-1.89 256.8,-15.52 515.8,-7.11 773,-10.9 -26.5,-179.43 -29.5,-417.12 -1.9,-596.04 l -10,-2.02 c -395.9,12.72 -794.5,5.6 -1190.7,7.69 -294.7,3.13 -589.3,2.74 -884,-1.3 -165.7,-1.05 -331.4,-0.65 -497,1.11 l -65.8,0.32 c -153,-2.93 -306.4,-0.72 -459.3,-0.85 -250,0.66 -521.7,19.25 -769,-14.8 -91,-1.89 -182,-4.7 -272.9,-8.35 -5.5,2.22 -10.9,4.3 -16.4,6.65 -152.4,65.95 -710.7,41.75 -910,42.79 l 0.5,584.05 c -321.5,29.48 -764.1,6.72 -1096.3,7.24 l -1.2,610.2 c 282.1,-0.2 564.1,2.67 846.2,8.54 323.3,0.07 649.3,-8.48 972.2,2.16 319.4,19.11 648.9,4.3 969.3,5.48 l 1702.8,10.82 c 248.1,0.79 504.7,-16.63 751.9,-0.72 29.2,1.83 42.6,5.62 67.6,19.18 25.1,-9.52 29.6,-10.63 57.7,-7.63 13.1,24.79 17.1,40.05 16.1,67.45 -1.5,43.76 1,86.69 3.5,130.39 6.7,-69.08 3.8,-140.11 4.1,-209.51 256.5,1.69 513,1.82 769.5,0.52 0.9,262.06 -3.6,526.06 10.8,787.66" /></g><g
         transform="scale(1.53242)"
         id="g206"><path
           id="path208"
           style="fill:#1f2b4f;fill-opacity:1;fill-rule:nonzero;stroke:none"
           d="m 11221.3,9129.17 c 1434.1,-23.49 2871,-4.89 4305.4,-8.35 256.9,-15.53 516,-7.11 773.3,-10.9 -26.4,-179.52 -29.5,-417.31 -1.8,-596.31 l -10.1,-2.02 c -396,12.72 -794.9,5.61 -1191.2,7.7 -294.8,3.13 -589.6,2.74 -884.4,-1.31 -165.7,-1.04 -331.5,-0.65 -497.2,1.11 l -65.9,0.33 c -153,-2.94 -306.4,-0.72 -459.5,-0.85 -250,0.65 -521.9,19.25 -769.3,-14.82 -91,-1.89 -182,-4.7 -273,-8.35 -5.5,2.22 -11,4.31 -16.4,6.66 -152.5,65.97 -711,41.76 -910.4,42.81 l 0.5,584.3" /></g><g
         transform="scale(1.12277)"
         id="g210"><path
           id="path212"
           style="fill:#f5b20c;fill-opacity:1;fill-rule:nonzero;stroke:none"
           d="m 14964,15907.9 1336,-2.3 c -17.2,-861.5 -2,-1726.2 -0.3,-2587.9 -440.9,-14.6 -886.1,-2.9 -1327.5,-3 8.8,278.3 -5.1,559 -3.8,837.7 2.7,586.6 14.4,1168.7 -4.4,1755.5" /></g><g
         transform="scale(2.49602)"
         id="g214"><path
           id="path216"
           style="fill:#202e55;fill-opacity:1;fill-rule:nonzero;stroke:none"
           d="m 11355,16300 7,-2.1 c 217,-89.7 430.2,-190.9 645.5,-284.9 9.3,-209.4 -2.9,-421.7 -2.5,-631.5 -149,-37.2 -292.4,-111.1 -434.7,-168.2 l -918.2,-365.5 c -199,-81.5 -441,-199.4 -644.1,-250.6 10.6,183.8 2.8,374.8 -0.9,559.2 l 0.5,254.4 5.5,0.1 c -12.5,99.2 3.6,201.7 -6.6,301.9 51.9,44.9 162.9,79.8 226.7,108.4 251.6,110.8 504.4,218.5 758.5,323.3 119.3,49.9 250.3,93.7 363.3,155.5" /></g><g
         transform="scale(2.49602)"
         id="g218"><path
           id="path220"
           style="fill:#8aa4db;fill-opacity:1;fill-rule:nonzero;stroke:none"
           d="m 11355,16300 7,-2.1 c 217,-89.7 430.2,-190.9 645.5,-284.9 -114.2,-36.6 -224,-106.2 -335,-154.3 l -1126.9,-479.4 c -160.7,-68.3 -375.4,-180.5 -538.5,-222.9 l 0.5,254.4 5.5,0.1 c -12.5,99.2 3.6,201.7 -6.6,301.9 51.9,44.9 162.9,79.8 226.7,108.4 251.6,110.8 504.4,218.5 758.5,323.3 119.3,49.9 250.3,93.7 363.3,155.5" /></g><g
         transform="scale(2.49602)"
         id="g222"><path
           id="path224"
           style="fill:#202e55;fill-opacity:1;fill-rule:nonzero;stroke:none"
           d="m 11355,16300 7,-2.1 -0.3,-307.2 c -448.5,-195.9 -901.4,-381.9 -1348.6,-579.8 -12.5,99.2 3.6,201.7 -6.6,301.9 51.9,44.9 162.9,79.8 226.7,108.4 251.6,110.8 504.4,218.5 758.5,323.3 119.3,49.9 250.3,93.7 363.3,155.5" /></g><g
         transform="scale(2.35537)"
         id="g226"><path
           id="path228"
           style="fill:#1f2b4f;fill-opacity:1;fill-rule:nonzero;stroke:none"
           d="m 12721.9,16300 -1.3,-183 c -2.4,-173.5 -2.8,-347.2 -1.4,-520.7 -702.1,-276.2 -1396.5,-571.8 -2102.3,-838.8 -25.8,35 -11.7,621.8 -11.3,711.3 215.3,54.4 471.7,179.3 682.6,265.6 l 973,387.4 c 150.8,60.5 302.8,138.8 460.7,178.2" /></g><g
         transform="scale(2.01667)"
         id="g230"><path
           id="path232"
           style="fill:#202e55;fill-opacity:1;fill-rule:nonzero;stroke:none"
           d="m 12386,6922.41 c 457.6,-1 3840.9,11.5 3912.4,-18.7 -0.6,-128.82 1.6,-258.45 -3.6,-387.12 -7.4,-39.87 -11.8,-78.4 -14.1,-118.91 -160.5,-1.78 -349.2,-22.16 -505.5,17.41 -3,0.74 -6.1,1.28 -9.1,1.88 l -8.4,45.37 c -81.6,13.84 -177.6,5.41 -260.7,5.31 l -482.5,-0.8 c -522,2.68 -1043.9,2.63 -1565.9,-0.14 -209.6,3.96 -419.9,1.73 -629.6,2.48 l -434.4,0.09 c -21,136.02 -18.7,316.71 1.4,453.13" /></g><g
         transform="scale(2.0338)"
         id="g234"><path
           id="path236"
           style="fill:#c8561e;fill-opacity:1;fill-rule:nonzero;stroke:none"
           d="m 15628.7,8825.56 671,0.1 0.3,-1370.79 c -129.6,35.11 -529.6,18.15 -678.7,9.64 -5.9,453.54 4.5,907.51 7.4,1361.05" /></g><g
         transform="scale(2.20115)"
         id="g238"><path
           id="path240"
           style="fill:#344c96;fill-opacity:1;fill-rule:nonzero;stroke:none"
           d="m 13999.8,16300 13,-4 c 3.1,-5.5 7.6,-10.4 9.3,-16.4 9.4,-33.3 -4.3,-371.9 -4.5,-436.5 l 5.1,-1196.2 -0.6,-4480.2 c -4.7,-569.1 -3.7,-1138.16 3,-1707.23 1.2,-315.28 -4.1,-631.71 6,-946.86 -246.2,-88.09 -502.5,-155.24 -750.7,-239.47 -265.7,-91.86 -532.1,-181.63 -799.2,-269.4 -147,-48.61 -306.9,-116.62 -460.9,-133.39 l -44.9,1.68 c -4,4.18 -9.5,7.36 -12.1,12.59 -11.7,24.12 -6.3,2388.34 -6.3,2634.89 l 0.2,3771.69 c 6.1,728.4 5.6,1456.9 -1.3,2185.3 665,311 1375,520.7 2043.9,823.5" /></g><g
         id="g242"><g
           clip-path="url(#clipPath248)"
           id="g244"><g
             transform="scale(2.16466)"
             id="g250"><path
               id="path258"
               style="fill:url(#linearGradient256);fill-opacity:1;fill-rule:nonzero;stroke:none"
               d="m 13418.8,16062.5 c 40.1,6.7 85.5,27.9 124.3,41.9 153.4,55.3 376.5,165.2 528.1,195.6 l 12.3,-10.6 c 15.7,-122.1 13.8,-1967.3 -1.8,-2011.7 l -3.6,-6.1 c 3.5,-57 25.1,-146 9.2,-198.4 -0.4,-72.3 -5.3,-147.6 0.4,-219.5 19.6,-271.7 0,-550.6 0.9,-823 l 1,-489.9 c 0.3,-144.4 -3.7,-290 1.4,-434.2 -0.2,-54.7 1.3,-109.9 -2.4,-164.6 l 1.1,-946.3 c -157.2,-48.4 -540.3,-161.8 -670.4,-234.5 l 1.4,-136.2 c 123,48.4 255.1,83.6 381.1,124.4 90.9,41.9 193.2,68.6 290.5,91.5 -0.8,-304.8 -10.8,-612.6 -0.3,-916.9 6.7,-51.37 7.2,-100.3 -3.9,-151.21 6.4,-318.29 1.8,-637.23 1.3,-955.57 -225.3,-67.31 -447.3,-147.65 -669.7,-223.64 l -1.8,-4.34 c 1.1,-45.23 -1.3,-93.64 5.7,-138.22 219.5,67.44 441.3,158.27 663.4,212.92 3.7,-304.3 5.1,-608.55 4,-912.85 -222.9,-80.2 -447.4,-155.73 -673.4,-226.68 l -172.5,-56.78 c -44.4,-18.29 -87.7,-36.96 -134.6,-47.9 -266.2,-89.95 -534.1,-174.86 -803.5,-254.73 l -1.8,908.68 1.4,151.34 c 1,316.17 0.4,632.34 -2,948.56 v 150.64 l -0.6,138.5 2,414.94 c 1,120.48 0.9,240.94 -0.3,361.44 l -0.3,130.8 -0.5,965.3 c -2.6,47.7 -1.1,96 -1.2,143.8 -0.3,306 -2.7,612.1 -7,918.1 -1.7,55.2 1,111.3 1.8,166.5 10.2,307.3 0.8,617.9 0.6,925.6 l 3.4,151.2 c -23.4,300.9 2,624.4 -6.5,928.8 -0.9,89.4 -19,537.9 7.7,582.1 l 2.1,492.2 c 262.6,101 521,207.7 787.9,297.9 39.5,28.2 95.7,42.6 141.2,59.5 63.5,15 123.1,38.3 183.9,61.6" /></g></g></g><g
         transform="scale(2.16466)"
         id="g260"><path
           id="path262"
           style="fill:#5dbded;fill-opacity:1;fill-rule:nonzero;stroke:none"
           d="m 13418.8,16062.5 c 40.1,6.7 85.5,27.9 124.3,41.9 153.4,55.3 376.5,165.2 528.1,195.6 l 12.3,-10.6 c 15.7,-122.1 13.8,-1967.3 -1.8,-2011.7 l -3.6,-6.1 c -215.7,-79.9 -432.4,-156.6 -650.3,-230 0.1,144.2 17.4,849.3 -9.4,926.1 l 17.2,6.5 c -16.7,32.8 -14.2,87.8 -17.4,124.8 l -0.3,6.1 c 2,319.1 2.3,638.3 0.9,957.4" /></g><g
         transform="scale(2.01753)"
         id="g264"><path
           id="path266"
           style="fill:#78d1c0;fill-opacity:1;fill-rule:nonzero;stroke:none"
           d="m 15107.5,16300 1.1,-981 -3.9,-6.7 c -231.3,-85.7 -463.9,-167.9 -697.7,-246.7 0.1,154.7 18.7,911.2 -10.1,993.7 l 18.5,6.9 c 230.2,79.6 460.8,157.6 692.1,233.8" /></g><g
         transform="scale(2.16326)"
         id="g268"><path
           id="path270"
           style="fill:#2f5ea6;fill-opacity:1;fill-rule:nonzero;stroke:none"
           d="m 14092.7,16300 c 15.7,-122.2 13.7,-1968.6 -1.8,-2013 l -1.1,915 c -215.7,-71.1 -430.8,-143.8 -645.4,-218.1 -16.8,32.9 -14.3,87.9 -17.5,124.9 l -0.3,6.1 c 220.2,81.1 441.7,158.4 664.6,232 4.4,317.5 -8,635.9 1.5,953.1" /></g><g
         transform="scale(1.74216)"
         id="g272"><path
           id="path274"
           style="fill:#95dce7;fill-opacity:1;fill-rule:nonzero;stroke:none"
           d="m 16281.5,11917.3 c 15.2,-50.5 18.5,-129.2 5.3,-179.9 -14.5,-216.9 -6.3,-438.6 -6.7,-656 -0.2,-172.4 -10.3,-351.5 0.9,-523.2 -327.6,-119.2 -660.6,-223.8 -989.9,-338.5 1.4,392.9 0.5,785.7 -2.4,1178.6 v 187.2 c 129.3,31 257.2,78.9 383.8,120 204.7,66.6 409.2,131.4 609,211.8" /></g><g
         transform="scale(1.74216)"
         id="g276"><path
           id="path278"
           style="fill:#2f5ea6;fill-opacity:1;fill-rule:nonzero;stroke:none"
           d="m 16281.5,11917.3 c 15.2,-50.5 18.5,-129.2 5.3,-179.9 -320.1,-136.7 -665.6,-236.3 -998.1,-339.1 v 187.2 c 129.3,31 257.2,78.9 383.8,120 204.7,66.6 409.2,131.4 609,211.8" /></g><g
         transform="scale(1.74174)"
         id="g280"><path
           id="path282"
           style="fill:#a0dec0;fill-opacity:1;fill-rule:nonzero;stroke:none"
           d="m 16284.9,10560.7 c 0.5,-56.4 7.9,-122.1 -1.7,-177.3 16.8,-140 9.6,-285.7 9.8,-426.65 l 1,-735.41 c -330.9,-111.78 -663.8,-217.31 -998.7,-316.58 l -2.2,1129.34 1.7,188.1 c 329.3,114.7 662.4,219.3 990.1,338.5" /></g><g
         transform="scale(1.74098)"
         id="g284"><path
           id="path286"
           style="fill:#2f5ea6;fill-opacity:1;fill-rule:nonzero;stroke:none"
           d="m 16292.1,10565.3 c 0.4,-56.4 7.9,-122.1 -1.7,-177.3 l -643.8,-231.7 c -112.4,-40.4 -230.5,-91.5 -346.7,-117.8 l 1.6,188.2 c 329.5,114.7 662.8,219.4 990.6,338.6" /></g><g
         transform="scale(1.89528)"
         id="g288"><path
           id="path290"
           style="fill:#78d1c0;fill-opacity:1;fill-rule:nonzero;stroke:none"
           d="m 15336.3,16037.3 c 248.9,83.9 496.4,171.5 742.7,262.7 4.1,-65.1 28.7,-166.7 10.5,-226.6 -0.4,-82.5 -6,-168.5 0.5,-250.6 22.4,-310.4 0,-628.9 1.1,-940.1 -254.3,-87.8 -509.2,-173.7 -764.8,-257.5 l 0.7,161.6 c 1.9,228.2 2.6,456.4 2.1,684.6 0.1,129.7 10.8,270.2 -7.8,398.4 l 15.9,5.6 c -15.7,48.8 -10.1,105 -9.9,156 l 9,5.9" /></g><g
         transform="scale(1.87347)"
         id="g292"><path
           id="path294"
           style="fill:#2f5ea6;fill-opacity:1;fill-rule:nonzero;stroke:none"
           d="m 16270.7,15234.2 c 3.5,256.9 -7.3,516.5 6.7,772.8 22.6,-313.9 0,-636.2 1,-951 -257.2,-88.8 -515.1,-175.7 -773.6,-260.5 l 0.7,163.5 c 258.1,81.3 516.6,167.9 765.2,275.2" /></g><g
         transform="scale(1.89528)"
         id="g296"><path
           id="path298"
           style="fill:#2f5ea6;fill-opacity:1;fill-rule:nonzero;stroke:none"
           d="m 15336.3,16037.3 c 248.9,83.9 496.4,171.5 742.7,262.7 4.1,-65.1 28.7,-166.7 10.5,-226.6 l -7.6,48.8 c -34.6,13.5 -647.7,-215.6 -744.7,-246.8 -15.7,48.8 -10.1,105 -9.9,156 l 9,5.9" /></g><g
         transform="scale(1.74143)"
         id="g300"><path
           id="path302"
           style="fill:#a0dec0;fill-opacity:1;fill-rule:nonzero;stroke:none"
           d="m 15295.5,14090 c 324.1,127.5 663.3,229.4 995.1,335.4 1.6,-392.4 9.4,-785.8 3.5,-1178.1 -332.5,-118.5 -663.6,-244.8 -998,-357.1 l -0.6,1199.8" /></g><g
         transform="scale(1.82947)"
         id="g304"><path
           id="path306"
           style="fill:#a0dec0;fill-opacity:1;fill-rule:nonzero;stroke:none"
           d="m 14552.6,15960.7 c 310.8,130.2 629.3,236.8 950.1,339.3 l -0.3,-1125.1 c -108.2,-40.4 -902.3,-329 -950.6,-309.4 12.1,363.6 1,731.1 0.8,1095.2" /></g><g
         transform="scale(2.11704)"
         id="g308"><path
           id="path310"
           style="fill:#6bcff3;fill-opacity:1;fill-rule:nonzero;stroke:none"
           d="m 13388.2,16300 -0.1,-7.7 c 22.8,-95.5 9.4,-216.6 9.4,-315.3 -0.9,-212.4 -0.6,-424.7 1,-637.1 -272.2,-98.8 -550.2,-190.1 -819.6,-295.8 0.3,59.5 -3.1,122.2 3,181.2 0.5,88.9 -0.1,177.9 -1.5,266.8 l 2.2,503.3 c 268.5,103.2 532.8,212.4 805.6,304.6" /></g><g
         transform="scale(2.11704)"
         id="g312"><path
           id="path314"
           style="fill:#76d3ee;fill-opacity:1;fill-rule:nonzero;stroke:none"
           d="m 13388.2,16300 -0.1,-7.7 c -2.5,-32.1 -5.4,-64.1 -5.6,-96.3 -266.9,-324.3 -520,-657.2 -800.6,-970.7 0.5,88.9 -0.1,177.9 -1.5,266.8 l 2.2,503.3 c 268.5,103.2 532.8,212.4 805.6,304.6" /></g><g
         transform="scale(1.97267)"
         id="g316"><path
           id="path318"
           style="fill:#78d1c0;fill-opacity:1;fill-rule:nonzero;stroke:none"
           d="m 13492.7,15987.1 c 296.6,99.5 587.2,215.3 884.6,312.9 -0.4,-336.8 1.2,-673.6 4.6,-1010.3 -194.4,-77.4 -393,-144.5 -590,-215.3 -95.8,-34.4 -194.1,-80.8 -292.1,-106.5 -25.7,330.2 2.2,685.2 -7.1,1019.2" /></g><g
         transform="scale(1.73998)"
         id="g320"><path
           id="path322"
           style="fill:#6bcff3;fill-opacity:1;fill-rule:nonzero;stroke:none"
           d="m 16300,15774.8 c -0.5,-385.2 -7.2,-771.4 -0.9,-1156.4 -331.7,-109.3 -665,-216.1 -992.4,-337.7 -0.4,380.7 -3.3,761.5 -8.7,1142.2 332.7,114.3 675,223.2 1002,351.9" /></g><g
         transform="scale(1.87148)"
         id="g324"><path
           id="path326"
           style="fill:#5dbded;fill-opacity:1;fill-rule:nonzero;stroke:none"
           d="m 15521.3,14811.2 c 258.8,84.9 516.9,171.9 774.4,260.8 l 1.2,-566.6 c 0.3,-167 -4.3,-335.4 1.5,-502.1 -0.1,-63.4 1.6,-127.2 -2.7,-190.4 -255.7,-82.7 -511,-167 -765.7,-252.7 -18.8,48.1 -10.7,115.2 -10.8,166.8 l 2.3,5.1 c -4.4,235.2 0,470.8 0.9,706 0.4,119.5 10.5,249.7 -7.3,367.7 l 6.2,5.4" /></g><g
         transform="scale(1.87148)"
         id="g328"><path
           id="path330"
           style="fill:#2f5ea6;fill-opacity:1;fill-rule:nonzero;stroke:none"
           d="m 15943,13880.2 c 120.2,32.7 238.4,80.4 355.4,123.1 -0.1,-63.4 1.6,-127.2 -2.7,-190.4 -255.7,-82.7 -511,-167 -765.7,-252.7 -18.8,48.1 -10.7,115.2 -10.8,166.8 l 2.3,5.1 c 140.8,31.9 286.4,96.1 421.5,148.1" /></g><g
         transform="scale(1.8724)"
         id="g332"><path
           id="path334"
           style="fill:#5dbded;fill-opacity:1;fill-rule:nonzero;stroke:none"
           d="m 15956.1,12427.3 c 105.2,48.4 223.4,79.3 335.9,105.7 -1,-352.3 -12.5,-708.2 -0.3,-1060 7.7,-59.4 8.3,-115.9 -4.6,-174.8 -255.1,-80.6 -508.1,-169.2 -764.4,-245.9 l -2,150.9 -4.7,-0.3 c -8.2,247.1 -1.9,496.7 -2.7,744 l 1.3,8.1 c 0.3,106.7 6,216.7 -5.9,322.8 l 6.9,5.7 c 142.2,55.9 294.8,96.7 440.5,143.8" /></g><g
         transform="scale(1.8724)"
         id="g336"><path
           id="path338"
           style="fill:#2f5ea6;fill-opacity:1;fill-rule:nonzero;stroke:none"
           d="m 16291.7,11473 c 7.7,-59.4 8.3,-115.9 -4.6,-174.8 -255.1,-80.6 -508.1,-169.2 -764.4,-245.9 l -2,150.9 c 252.2,90.1 511.6,205.9 771,269.8" /></g><g
         transform="scale(1.8329)"
         id="g340"><path
           id="path342"
           style="fill:#76d3ee;fill-opacity:1;fill-rule:nonzero;stroke:none"
           d="m 15849.9,12548.2 c 145.3,57.2 301.3,98.8 450.1,147 -35.8,-163 -324.7,-383.6 -451,-482.5 0.2,109 6.1,221.3 -6.1,329.7 l 7,5.8" /></g><g
         transform="scale(1.87177)"
         id="g344"><path
           id="path346"
           style="fill:#78d1c0;fill-opacity:1;fill-rule:nonzero;stroke:none"
           d="m 15527.9,11056.1 c 256.4,76.6 509.5,165.3 764.7,245.9 7.4,-368.1 2.1,-736.9 1.5,-1105.1 -260.5,-77.8 -517.2,-170.7 -774.5,-258.59 1.2,133.09 28.4,1041.99 -12.2,1107.09 l 20.5,10.7" /></g><g
         transform="scale(1.87113)"
         id="g348"><path
           id="path350"
           style="fill:#78d1c0;fill-opacity:1;fill-rule:nonzero;stroke:none"
           d="m 15532.9,13562.7 c 254.8,85.7 510.1,170 765.9,252.8 l 1.2,-1094.8 c -181.8,-56 -625,-187.2 -775.6,-271.3 -1.9,149.6 17.3,1035.5 -12,1106.4 l 20.5,6.9" /></g><g
         transform="scale(1.87145)"
         id="g352"><path
           id="path354"
           style="fill:#78d1c0;fill-opacity:1;fill-rule:nonzero;stroke:none"
           d="m 15526.8,9775.11 c 253.9,78.01 510.5,183.06 767.3,246.29 4.3,-351.99 5.9,-703.91 4.6,-1055.88 -257.8,-92.77 -517.4,-180.13 -778.8,-262.2 l 0.9,1066.71 6,5.08" /></g><g
         transform="scale(1.74018)"
         id="g356"><path
           id="path358"
           style="fill:#76d3ee;fill-opacity:1;fill-rule:nonzero;stroke:none"
           d="m 15307.9,12287.1 c 97.1,46.2 148.3,143.4 239.2,194.5 140.4,79 293.9,142.6 439.9,210.3 104.9,48.6 206.5,103.7 311.4,151.8 l 0.5,-401.5 1.1,-511.3 c -200,-80.6 -404.7,-145.4 -609.7,-212 -126.7,-41.2 -254.8,-89.2 -384.2,-120.2 l -0.8,172.3 2.6,516.1" /></g><g
         transform="scale(1.74018)"
         id="g360"><path
           id="path362"
           style="fill:#6bcff3;fill-opacity:1;fill-rule:nonzero;stroke:none"
           d="m 15305.3,11771 c 347.5,194.3 646.6,476.5 993.6,671.2 l 1.1,-511.3 c -200,-80.6 -404.7,-145.4 -609.7,-212 -126.7,-41.2 -254.8,-89.2 -384.2,-120.2 l -0.8,172.3" /></g><g
         transform="scale(1.84526)"
         id="g364"><path
           id="path366"
           style="fill:#a0dec0;fill-opacity:1;fill-rule:nonzero;stroke:none"
           d="m 15517.9,16231.7 c 70.3,27.4 146.3,46.3 218.7,68.3 19.1,-131.7 8.1,-276 8,-409.2 0.5,-234.4 -0.2,-468.8 -2.1,-703.2 l -0.7,-166 -6.3,-5.5 c -70.2,-21.9 -141.6,-42 -210.9,-66.1 -4.1,54.4 0.6,110.8 1.9,165.3 l -8.6,1116.4" /></g><g
         transform="scale(1.78215)"
         id="g368"><path
           id="path370"
           style="fill:#4d71b8;fill-opacity:1;fill-rule:nonzero;stroke:none"
           d="m 16300,15725.5 -0.7,-171.9 -6.5,-5.7 c -72.6,-22.7 -146.6,-43.5 -218.4,-68.4 -4.2,56.3 0.6,114.7 2,171.1 74.7,24.3 149.3,49.2 223.6,74.9" /></g><g
         transform="scale(1.74001)"
         id="g372"><path
           id="path374"
           style="fill:#95dce7;fill-opacity:1;fill-rule:nonzero;stroke:none"
           d="m 15308.9,12737.9 c 332,106.8 658.8,228.9 990.9,334.9 l 0.2,-227.8 c -104.9,-48.1 -206.5,-103.2 -311.4,-151.8 -146.1,-67.8 -299.5,-131.3 -440,-210.4 -90.9,-51.1 -142,-148.3 -239.2,-194.5 1.2,149.9 1.1,299.8 -0.5,449.6" /></g><g
         transform="scale(1.98774)"
         id="g376"><path
           id="path378"
           style="fill:#a0dec0;fill-opacity:1;fill-rule:nonzero;stroke:none"
           d="m 14612.8,16300 c 29.1,-83.7 10.3,-851.6 10.2,-1008.6 l -8.6,-5.6 -202.8,-77.7 c -3.8,340.6 -17.2,685.7 -1.4,1025.9 l 202.6,66" /></g><g
         transform="scale(1.78541)"
         id="g380"><path
           id="path382"
           style="fill:#a0dec0;fill-opacity:1;fill-rule:nonzero;stroke:none"
           d="m 16257.5,11579.6 c 42.5,-68.2 14,-1021.1 12.8,-1160.6 l -2.2,-5.3 c -73.7,-23.5 -147.1,-48.2 -220.1,-73.7 -5.4,392.7 -6.6,785.5 -3.8,1178.3 l 213.3,61.3" /></g><g
         transform="scale(2.13312)"
         id="g384"><path
           id="path386"
           style="fill:#95dce7;fill-opacity:1;fill-rule:nonzero;stroke:none"
           d="m 13617.2,16300 c 1.4,-323.8 1.1,-647.7 -0.9,-971.5 l 0.3,-6.3 -184.4,-66.3 -1.6,981.6 c 64.5,15.2 124.9,38.9 186.6,62.5" /></g><g
         transform="scale(1.78408)"
         id="g388"><path
           id="path390"
           style="fill:#a0dec0;fill-opacity:1;fill-rule:nonzero;stroke:none"
           d="m 16269.3,14217.2 c 30.7,-74.3 10.6,-1003.5 12.6,-1160.4 -65.2,-35 -150.9,-54.1 -221.9,-77.3 -2.5,389.1 -2.8,778.3 -0.8,1167.5 69.2,25.3 140.1,47 210.1,70.2" /></g><g
         transform="scale(1.7834)"
         id="g392"><path
           id="path394"
           style="fill:#a0dec0;fill-opacity:1;fill-rule:nonzero;stroke:none"
           d="m 16281.3,15537 c 18.7,-123.8 8.2,-260.4 7.7,-385.8 -0.9,-246.8 -5.5,-494.1 -0.9,-740.8 l -2.4,-5.4 -218.1,-83.2 c -0.2,381.2 10.5,766 -4.5,1146.8 71.8,25 145.7,45.7 218.2,68.4" /></g><g
         transform="scale(1.78198)"
         id="g396"><path
           id="path398"
           style="fill:#a0dec0;fill-opacity:1;fill-rule:nonzero;stroke:none"
           d="m 16075.9,10198.5 224.1,62 -1,-1120.23 -209.6,-68.97 c -31.2,78.46 -13.1,970 -13.5,1127.2" /></g><g
         transform="scale(1.78234)"
         id="g400"><path
           id="path402"
           style="fill:#95dce7;fill-opacity:1;fill-rule:nonzero;stroke:none"
           d="m 16085.3,12466.7 c 75.2,20 141.7,50.4 211.8,83.9 0.9,-259.9 -5.8,-522.1 2.9,-781.7 -71.1,-32.3 -146.7,-57.5 -220,-85 l 5.3,782.8" /></g><g
         transform="scale(1.78287)"
         id="g404"><path
           id="path406"
           style="fill:#95dce7;fill-opacity:1;fill-rule:nonzero;stroke:none"
           d="m 16080.1,12828 207.4,66.4 c 12.5,-111.4 6.5,-226.9 6.2,-339 l -1.4,-8.5 c -70,-33.5 -136.5,-63.8 -211.7,-83.9 -2.7,121.5 -0.5,243.5 -0.5,365" /></g><g
         transform="scale(2.42155)"
         id="g408"><path
           id="path410"
           style="fill:#344c96;fill-opacity:1;fill-rule:nonzero;stroke:none"
           d="m 13558.6,5328 c 1.9,33.74 5.6,65.83 11.8,99.03 3.4,-372.08 8.1,-746.84 -0.2,-1118.79 7.2,-311.78 -3.1,-623.94 1.3,-935.77 475.3,1.24 955.7,15.53 1430.5,-2.6 166,-177.94 341.9,-344.28 515.4,-514.63 l 362.2,2.23 c 132.2,-104.23 298.7,-292.66 420.4,-419.03 l -4317.2,3.8 c -283.7,-10.32 -571.1,-1.07 -855.1,-0.78 l -1639.38,-0.21 -5158.07,-0.16 c 138.75,139.41 276.89,281.22 421.67,414.36 123.73,-0.21 247.41,0.41 371.13,1.86 169.52,167.99 329.38,343.16 502.86,508.02 186.95,11.15 1427.89,-8.59 1466.34,8.96 l 6.44,35.31 c 7.8,225.23 0.49,451.94 0.82,677.46 l 1.28,1320.35 c 126.2,-0.66 479.66,14.66 576.17,-27.09 3.42,-1.48 6.89,-2.81 10.36,-4.21 57.57,2.31 115.17,4.09 172.78,5.29 156.55,21.55 328.59,9.78 486.84,9.37 96.84,0.08 193.93,-1.32 290.76,0.54 l 41.67,-0.21 c 104.89,-1.11 209.79,-1.36 314.68,-0.7 186.57,2.56 373.11,2.81 559.68,0.83 250.79,-1.33 503.17,3.17 753.77,-4.88 l 6.4,1.28 361.8,-0.08 c 174.6,-0.62 349.7,1.24 524.3,-2.06 434.7,2.31 869.4,2.35 1304.1,0.12 l 401.8,0.66 c 69.2,0.08 149.2,7.1 217.1,-4.42 l 7,-37.78 c 2.6,-0.5 5.1,-0.95 7.6,-1.57 130.2,-32.96 287.3,-15.98 421,-14.5" /></g><g
         transform="scale(2.42155)"
         id="g412"><path
           id="path414"
           style="fill:#49ba87;fill-opacity:1;fill-rule:nonzero;stroke:none"
           d="m 13558.6,5328 c 1.9,33.74 5.6,65.83 11.8,99.03 3.4,-372.08 8.1,-746.84 -0.2,-1118.79 7.2,-311.78 -3.1,-623.94 1.3,-935.77 475.3,1.24 955.7,15.53 1430.5,-2.6 166,-177.94 341.9,-344.28 515.4,-514.63 l 362.2,2.23 c 132.2,-104.23 298.7,-292.66 420.4,-419.03 l -4317.2,3.8 c -97.1,24.99 -365.7,8.34 -485.8,8.3 l -1172.7,-0.08 c -3.3,133.51 -3.9,266.98 -1.8,400.49 l -4.3,1.11 c 15.6,63.14 11.7,442.82 -0.8,511.95 l 4.7,0.82 -4.5,378.56 718.9,-2.85 c 126.2,-0.04 264.4,-10.2 389,8.51 -61.1,3.8 -123.7,1.12 -185,0.99 -181,-2.02 -362,-2.56 -543,-1.65 -126.8,4.5 -254.5,1.9 -381.4,2.35 -2.4,386.16 -2.8,772.32 -1.2,1158.48 0.1,120.09 17.3,369.47 -7.4,477.13 l 6.4,1.28 361.8,-0.08 c 174.6,-0.62 349.7,1.24 524.3,-2.06 434.7,2.31 869.4,2.35 1304.1,0.12 l 401.8,0.66 c 69.2,0.08 149.2,7.1 217.1,-4.42 l 7,-37.78 c 2.6,-0.5 5.1,-0.95 7.6,-1.57 130.2,-32.96 287.3,-15.98 421,-14.5" /></g><g
         transform="scale(1.94957)"
         id="g416"><path
           id="path418"
           style="fill:#6bcff3;fill-opacity:1;fill-rule:nonzero;stroke:none"
           d="m 12810.8,6691.93 449.4,-0.1 c 216.9,-0.77 434.4,1.54 651.3,-2.56 539.9,2.87 1079.8,2.92 1619.8,0.15 l 499.1,0.82 c 85.9,0.11 185.2,8.83 269.6,-5.49 -228.8,-12.41 -463.3,-2.77 -692.7,-4.05 5.9,-471.38 6.2,-942.77 1,-1414.16 -1.5,-202.96 -9.2,-406.8 -6.2,-609.62 l -699,0.87 c -156.6,1.95 -313.5,0.21 -470.1,0.26 l -45.7,-0.67 -195.8,-0.71 c -75.8,4.72 -153.6,1.38 -229.7,1.23 -224.8,-2.52 -449.7,-3.18 -674.6,-2.05 -157.4,5.59 -316,2.36 -473.7,2.92 -2.9,479.64 -3.4,959.29 -1.4,1438.93 0.1,149.16 21.4,458.92 -9.2,592.65 l 7.9,1.58" /></g><g
         transform="scale(1.66997)"
         id="g420"><path
           id="path422"
           style="fill:#5dbded;fill-opacity:1;fill-rule:nonzero;stroke:none"
           d="m 14955.7,7812.36 524.6,-0.12 c 253.2,-0.9 507.2,1.8 760.4,-2.99 21.8,-7.79 36,-11.74 59.3,-10.25 l -0.6,-2361.23 c -262.5,-2.94 -525,-3.72 -787.5,-2.4 -183.8,6.53 -369,2.75 -553,3.41 -3.5,559.95 -4.1,1119.9 -1.7,1679.85 0.1,174.14 25.1,535.76 -10.7,691.87 l 9.2,1.86" /></g><g
         transform="scale(1.58989)"
         id="g424"><path
           id="path426"
           style="fill:#6bcff3;fill-opacity:1;fill-rule:nonzero;stroke:none"
           d="m 15709,8205.85 551.1,-0.12 c 25.2,-20.76 28.2,-22.96 32,-57.11 7.9,-69.38 -2.2,-145.68 -2.5,-215.87 v -509.72 c -2.6,-571.36 -1.3,-1142.66 3.6,-1713.89 -193.1,6.86 -387.6,2.89 -580.8,3.58 -3.7,588.16 -4.3,1176.31 -1.9,1764.47 0.2,182.9 26.4,562.74 -11.2,726.71 l 9.7,1.95" /></g><g
         transform="scale(1.86746)"
         id="g428"><path
           id="path430"
           style="fill:#5dbded;fill-opacity:1;fill-rule:nonzero;stroke:none"
           d="m 15560.2,6974.87 c 244.5,-1.5 488.9,-1.6 733.4,-0.42 6.1,-492.12 6.4,-984.23 0.9,-1476.34 -1.5,-211.89 -9.5,-424.7 -6.4,-636.43 l -729.7,0.91 1.8,2112.28" /></g><g
         transform="scale(1.7228)"
         id="g432"><path
           id="path434"
           style="fill:#6bcff3;fill-opacity:1;fill-rule:nonzero;stroke:none"
           d="m 15800.1,7559.83 c 158.5,7.37 317.5,4.29 476.2,3.31 23.7,-761.84 5.1,-1530.24 4.8,-2292.72 l -221.6,-0.81 c -85.8,5.34 -173.8,1.57 -260,1.39 l 0.6,2288.83" /></g><g
         transform="scale(1.94957)"
         id="g436"><path
           id="path438"
           style="fill:#4691d5;fill-opacity:1;fill-rule:nonzero;stroke:none"
           d="m 13911.5,6689.27 c 539.9,2.87 1079.8,2.92 1619.8,0.15 l 499.1,0.82 c 85.9,0.11 185.2,8.83 269.6,-5.49 -228.8,-12.41 -463.3,-2.77 -692.7,-4.05 -234.1,-1.13 -468.3,-1.02 -702.5,0.41 l -470.7,2.88 c 13.1,-391.94 4.1,-786.85 2.7,-1179.09 -1.1,-280.88 9.2,-566.58 -3.8,-846.85 l -45.7,-0.67 c 0.3,673.79 16.7,1352.82 -4.2,2026.04 -140.3,0.87 -280.7,3.59 -420.8,-2.92 -19.9,-1.29 -32.1,2.1 -50.8,8.77" /></g><g
         transform="scale(2.01723)"
         id="g440"><path
           id="path442"
           style="fill:#1f2b4f;fill-opacity:1;fill-rule:nonzero;stroke:none"
           d="m 16276.2,6395.89 c 2.2,40.5 6.6,79.02 14.1,118.87 4.1,-446.65 9.7,-896.52 -0.3,-1343.02 -11,-187.44 -6.7,-377.85 -6.8,-565.63 -0.1,-187.68 -4.7,-376.75 1.5,-564.19 l -2508,-4.11 c -459.8,-0.25 -926.5,-17.2 -1385.8,1.44 l -5.3,454.43 863,-3.42 c 151.4,-0.05 317.4,-12.25 466.9,10.21 l 189.2,0.69 44.2,0.65 c 151.4,-0.05 302.9,1.64 454.3,-0.25 l 675.5,-0.84 c -2.8,196.01 4.6,393.01 6,589.17 5.1,455.58 4.8,911.15 -0.9,1366.73 221.7,1.23 448.3,-8.09 669.5,3.91 l 8.4,-45.36 c 3,-0.59 6.1,-1.14 9.1,-1.88 156.2,-39.56 344.8,-19.18 505.4,-17.4" /></g><g
         transform="scale(1.95061)"
         id="g444"><path
           id="path446"
           style="fill:#6bcff3;fill-opacity:1;fill-rule:nonzero;stroke:none"
           d="m 16291.3,6681.18 8.7,-46.91 c -28.1,-184.81 -7.1,-428.07 -6.8,-618.93 l 1.9,-1359.78 -701.4,-1.13 c -2.9,202.71 4.7,406.44 6.2,609.3 5.2,471.13 4.9,942.27 -0.9,1413.4 229.3,1.28 463.6,-8.36 692.3,4.05" /></g><g
         transform="scale(2.42155)"
         id="g448"><path
           id="path450"
           style="fill:#1f2b4f;fill-opacity:1;fill-rule:nonzero;stroke:none"
           d="m 15517.4,2855.24 362.2,2.23 c 132.2,-104.23 298.7,-292.66 420.4,-419.03 l -4317.2,3.8 c -97.1,24.99 -365.7,8.34 -485.8,8.3 l -1172.7,-0.08 c -3.3,133.51 -3.9,266.98 -1.8,400.49 173.3,16.39 359.6,3.92 534.2,4.75 l 1131.6,2.6 3529.1,-3.06" /></g><g
         transform="scale(1.78018)"
         id="g452"><path
           id="path454"
           style="fill:#a0dec0;fill-opacity:1;fill-rule:nonzero;stroke:none"
           d="m 7652.83,4577.8 c 254.3,15.17 1942.34,-11.68 1994.63,12.19 l 8.77,48.03 8.2,-45.84 c 32.97,-18.93 71,-18.59 108.13,-19.88 106.06,-3.54 213.24,5.17 319.44,5.89 l 619.3,-0.39 2169.3,0.23 c 384.1,0 770.1,8.37 1154,-2.03 17,-94.03 22.3,-610.5 1,-696.39 l 6,-1.51 c -2.9,-181.62 -2.1,-363.23 2.3,-544.78 l 1595.3,0.11 c 163.3,0.06 528.7,22.7 660.8,-11.29 -385.9,-14.04 -776.8,-1.46 -1163.1,-1.07 l -2230.1,-0.28 -7016.43,-0.22 c 188.74,189.64 376.65,382.54 573.59,563.65 168.3,-0.28 336.54,0.56 504.84,2.53 230.59,228.51 448.04,466.8 684.03,691.05" /></g><g
         transform="scale(1.78018)"
         id="g456"><path
           id="path458"
           style="fill:#344c96;fill-opacity:1;fill-rule:nonzero;stroke:none"
           d="m 6968.8,3886.75 c 1532.49,-28.65 3068.6,-13.65 4601.4,-10.17 l 1583.8,0.17 c 292.1,-0.45 589.9,-11.8 881.6,2.86 l 6,-1.51 c -2.9,-181.62 -2.1,-363.23 2.3,-544.78 l 1595.3,0.11 c 163.3,0.06 528.7,22.7 660.8,-11.29 -385.9,-14.04 -776.8,-1.46 -1163.1,-1.07 l -2230.1,-0.28 -7016.43,-0.22 c 188.74,189.64 376.65,382.54 573.59,563.65 168.3,-0.28 336.54,0.56 504.84,2.53" /></g><g
         transform="scale(1.53496)"
         id="g460"><path
           id="path462"
           style="fill:#95dce7;fill-opacity:1;fill-rule:nonzero;stroke:none"
           d="m 14188.9,8503.85 c 294.4,4.04 588.7,4.43 883,1.31 395.6,-2.09 793.8,5.01 1189.2,-7.69 38.9,-169.84 11.7,-563.27 11.6,-752.73 -2.5,-609.26 -1.9,-1218.46 1.9,-1827.59 -400.5,-9.26 -803.2,-0.2 -1204,0.32 l -877.9,-0.52 -3.8,2586.9" /></g><g
         transform="scale(1.42071)"
         id="g464"><path
           id="path466"
           style="fill:#76d3ee;fill-opacity:1;fill-rule:nonzero;stroke:none"
           d="m 15330,9187.72 c 318,4.36 635.9,4.78 954,1.41 16,-931.65 -21.3,-1865.06 -1.5,-2795.78 l -948.5,-0.57 -4,2794.94" /></g><g
         transform="scale(1.33652)"
         id="g468"><path
           id="path470"
           style="fill:#95dce7;fill-opacity:1;fill-rule:nonzero;stroke:none"
           d="m 15650.1,9768.16 75.5,-0.37 c 190,-2.02 380.1,-2.47 570.1,-1.27 l 4.3,-2971.01 -571.1,0.6 -70.3,-0.6 -531,0.37 c -21.1,330.64 -1.9,672.12 -1.3,1004.26 l -3,1967.05 c 175.4,0.15 351.3,-2.39 526.8,0.97" /></g><g
         transform="scale(1.33652)"
         id="g472"><path
           id="path474"
           style="fill:#95dce7;fill-opacity:1;fill-rule:nonzero;stroke:none"
           d="m 15725.6,9767.79 c 190,-2.02 380.1,-2.47 570.1,-1.27 l 4.3,-2971.01 -571.1,0.6 c 26.9,326.89 4.9,675.78 5.9,1004.93 1.9,654.75 8.4,1312.21 -9.2,1966.75" /></g><g
         transform="scale(1.2919)"
         id="g476"><path
           id="path478"
           style="fill:#6bcff3;fill-opacity:1;fill-rule:nonzero;stroke:none"
           d="m 16190.6,10105.5 78.1,-0.4 c 18.2,-677.1 11.6,-1357.26 9.5,-2034.63 -1,-340.52 21.8,-701.46 -6.1,-1039.64 l -72.7,-0.62 c 18.2,645.18 0.6,1296.7 1.7,1942.65 0.4,229.35 30,986.3 -10.5,1132.64" /></g><g
         transform="scale(1.24039)"
         id="g480"><path
           id="path482"
           style="fill:#76d3ee;fill-opacity:1;fill-rule:nonzero;stroke:none"
           d="m 15344.9,10505.8 c 305.6,42.1 641.5,19.1 950.4,18.3 l 3.2,-2119.46 c -0.6,-357.87 -21.2,-725.83 1.5,-1082.08 -318.9,-4.84 -638.3,-1.53 -957.2,-2.18 5.2,1060.23 24,2125.71 2.1,3185.42" /></g><g
         transform="scale(1.16937)"
         id="g484"><path
           id="path486"
           style="fill:#95dce7;fill-opacity:1;fill-rule:nonzero;stroke:none"
           d="m 15918.9,11132.9 c 119.3,4.8 238.5,8.4 357.8,10.9 23.3,-1124.1 3.3,-2254.26 -2.2,-3378.88 l -663.9,0.69 -0.7,2060.93 c -0.2,426.16 10.4,855.36 -11.6,1281.06 107,5.8 213.9,14.2 320.6,25.3" /></g><g
         transform="scale(2.70843)"
         id="g488"><path
           id="path490"
           style="fill:#8aa4db;fill-opacity:1;fill-rule:nonzero;stroke:none"
           d="m 9115.02,16293.7 c 40.21,2.9 79.83,6.3 120.18,3.2 l 65.43,-3.1 7.64,-10.6 -9.67,-5.8 c 21.59,-32.4 7.79,-241.8 7.27,-294.9 4.06,-148.5 -1.66,-297.1 1.14,-445.6 245.35,-120.2 499.3,-223.8 750.89,-330.2 121.6,-51.5 297.9,-117.1 406.6,-185 -104.1,-57 -224.9,-97.4 -334.8,-143.4 -234.19,-96.5 -467.2,-195.8 -699.04,-297.9 -58.85,-26.3 -161.09,-58.5 -208.94,-99.9 -74.65,11.5 -341.6,136.1 -430.43,171.7 -274.59,109.9 -553.05,209.5 -826.35,322.8 67.02,24.7 132.52,61.2 197.57,91 123.54,55.3 246.75,111.3 369.59,168.2 193.1,88.7 392.7,166.4 582.48,261.8 26.4,51.9 3.87,680.5 0.44,797.7" /></g><g
         transform="scale(2.70843)"
         id="g492"><path
           id="path494"
           style="fill:#76d3ee;fill-opacity:1;fill-rule:nonzero;stroke:none"
           d="m 9115.02,16293.7 c 40.21,2.9 79.83,6.3 120.18,3.2 l 65.43,-3.1 7.64,-10.6 -9.67,-5.8 c 21.59,-32.4 7.79,-241.8 7.27,-294.9 -23.26,-260.3 -6.17,-591.4 -4.77,-859.8 0.38,-72.6 15.66,-255.6 -5.61,-316.7 -21,-6.6 -36.44,-5.4 -57.78,-3.2 l -119.11,5.5 c -7.86,228.9 6.65,459 -4.02,687.7 26.4,51.9 3.87,680.5 0.44,797.7" /></g><g
         transform="scale(2.70792)"
         id="g496"><path
           id="path498"
           style="fill:#4691d5;fill-opacity:1;fill-rule:nonzero;stroke:none"
           d="m 9236.93,16300 65.44,-3.2 7.64,-10.5 -9.67,-5.8 c 21.6,-32.4 7.79,-241.8 7.27,-295 -23.26,-260.4 -6.16,-591.5 -4.76,-859.9 0.37,-72.7 15.66,-255.7 -5.61,-316.8 -21.01,-6.6 -36.45,-5.4 -57.8,-3.3 l -2.51,1494.5" /></g><g
         transform="scale(2.43526)"
         id="g500"><path
           id="path502"
           style="fill:#8aa4db;fill-opacity:1;fill-rule:nonzero;stroke:none"
           d="m 8221.96,16300 c 20.58,-182.9 5.38,-379.2 7.35,-564 l -2.21,-701.7 c -92.15,31.5 -182.32,69.4 -274.35,101.4 -137.81,48.2 -281.36,89.1 -412.64,153.2 93.58,46.3 192.62,83.1 288.43,124.9 130.99,57.1 260.13,119.6 393.55,171 -2.63,238 -6.78,477.3 -0.13,715.2" /></g></g></g></svg>