<?xml version="1.0" encoding="UTF-8" standalone="no"?>
<svg
   xmlns:dc="http://purl.org/dc/elements/1.1/"
   xmlns:cc="http://creativecommons.org/ns#"
   xmlns:rdf="http://www.w3.org/1999/02/22-rdf-syntax-ns#"
   xmlns:svg="http://www.w3.org/2000/svg"
   xmlns="http://www.w3.org/2000/svg"
   viewBox="0 0 6666.6665 6666.6665"
   height="6666.6665"
   width="6666.6665"
   xml:space="preserve"
   id="svg2"
   version="1.1"><metadata
     id="metadata8"><rdf:RDF><cc:Work
         rdf:about=""><dc:format>image/svg+xml</dc:format><dc:type
           rdf:resource="http://purl.org/dc/dcmitype/StillImage" /></cc:Work></rdf:RDF></metadata><defs
     id="defs6" /><g
     transform="matrix(1.3333333,0,0,-1.3333333,0,6666.6667)"
     id="g10"><g
       transform="scale(0.1)"
       id="g12"><g
         transform="scale(2.49435)"
         id="g14"><path
           id="path16"
           style="fill:#e6e7e8;fill-opacity:1;fill-rule:nonzero;stroke:none"
           d="M 16300,2376.45 V 1894.64 H 3911.95 v 481.81 H 16300" /></g><g
         transform="scale(2.83182)"
         id="g18"><path
           id="path20"
           style="fill:#878a96;fill-opacity:1;fill-rule:nonzero;stroke:none"
           d="m 16300,1503.55 c 0,-91.42 -73.9,-165.26 -165.3,-165.26 H 1459.86 c -91.44,0 -165.28,73.84 -165.28,165.26 0,91.47 73.84,165.3 165.28,165.3 H 16134.7 c 91.4,0 165.3,-73.83 165.3,-165.3" /></g><g
         transform="scale(2.8211)"
         id="g22"><path
           id="path24"
           style="fill:#9fa1ab;fill-opacity:1;fill-rule:nonzero;stroke:none"
           d="m 1361.4,1534.79 c 11.47,46.79 53.75,81.56 104.03,81.56 h 1067.18 v 0 h 8831.69 v 0 H 14624 v 0 h 714.1 v 0 h 857.9 c 50.3,0 92.5,-34.77 104,-81.56 -28.4,23.15 -64.7,36.86 -104,36.86 H 1465.41 c -39.35,0 -75.63,-13.71 -104.01,-36.86" /></g><g
         transform="scale(2.83182)"
         id="g26"><path
           id="path28"
           style="fill:#73757f;fill-opacity:1;fill-rule:nonzero;stroke:none"
           d="m 16300,1503.55 c 0,-91.42 -73.9,-165.26 -165.3,-165.26 H 1459.87 c -91.45,0 -165.29,73.84 -165.29,165.26 0,22.32 4.7,43.37 12.88,62.15 24.61,-59.82 83.23,-102.01 152.41,-102.01 H 16134.7 c 69.2,0 127.8,42.19 152.4,102.01 8.2,-18.78 12.9,-39.83 12.9,-62.15" /></g><g
         transform="scale(2.84201)"
         id="g30"><path
           id="path32"
           style="fill:#102770;fill-opacity:1;fill-rule:nonzero;stroke:none"
           d="m 1454.65,1604.47 c -58.63,0 -106.31,-47.68 -106.31,-106.3 0,-58.62 47.68,-106.27 106.31,-106.27 H 16076.8 c 58.7,0 106.4,47.65 106.4,106.27 0,58.62 -47.7,106.3 -106.4,106.3 H 1454.65 M 16076.8,1275.08 H 1454.65 c -123.03,0 -223.13,100.07 -223.13,223.09 0,123.01 100.1,223.11 223.13,223.11 H 16076.8 c 123.1,0 223.2,-100.1 223.2,-223.11 0,-123.02 -100.1,-223.09 -223.2,-223.09" /></g><g
         transform="scale(2.37968)"
         id="g34"><path
           id="path36"
           style="fill:#73757f;fill-opacity:1;fill-rule:nonzero;stroke:none"
           d="m 16300,2490.96 v -505.02 h -3590.8 v 505.02 H 16300" /></g><g
         transform="scale(2.65463)"
         id="g38"><path
           id="path40"
           style="fill:#ffffff;fill-opacity:1;fill-rule:nonzero;stroke:none"
           d="M 16300,1780.25 H 2691.46 V 13402.2 H 16300 V 1780.25" /></g><g
         transform="scale(2.64445)"
         id="g42"><path
           id="path44"
           style="fill:#f3f3f3;fill-opacity:1;fill-rule:nonzero;stroke:none"
           d="m 16300,13065 h -2186 c 190.1,102.5 360.5,211.5 508.7,326 H 16300 v -326 m -11349.48,0 H 2764.56 v 326 h 1677.2 c 148.27,-114.5 318.63,-223.5 508.76,-326" /></g><g
         transform="scale(2.66481)"
         id="g46"><path
           id="path48"
           style="fill:#102770;fill-opacity:1;fill-rule:nonzero;stroke:none"
           d="M 2743.43,1835.74 H 16175.5 V 13288.6 H 2743.43 V 1835.74 M 16237.7,1711.15 H 2681.15 c -34.43,0 -62.29,27.92 -62.29,62.3 V 13350.9 c 0,34.4 27.86,62.3 62.29,62.3 H 16237.7 c 34.5,0 62.3,-27.9 62.3,-62.3 V 1773.45 c 0,-34.38 -27.8,-62.3 -62.3,-62.3" /></g><g
         transform="scale(2.71434)"
         id="g50"><path
           id="path52"
           style="fill:#2ecc71;fill-opacity:1;fill-rule:nonzero;stroke:none"
           d="M 16300,11718.8 V 11347 c 0,-88.1 -69.7,-160.2 -159,-160.2 H 2433.24 c -89.28,0 -160.23,72.1 -160.23,160.2 v 371.8 c 0,88 70.95,160.2 160.23,160.2 H 16141 c 89.3,0 159,-72.2 159,-160.2" /></g><g
         transform="scale(2.70417)"
         id="g54"><path
           id="path56"
           style="fill:#58d68d;fill-opacity:1;fill-rule:nonzero;stroke:none"
           d="m 16300,11727.5 c -27.1,21.4 -61.1,34.1 -98.2,34.1 H 2442.4 c -37.72,0 -71.84,-12.5 -98.85,-33.4 v 35.2 c 0,55.3 43.28,98.6 98.55,98.6 h 6879.63 v 0 0 h 6879.77 c 55.2,0 98.5,-43.3 98.5,-98.6 v -35.9" /></g><g
         transform="scale(2.71434)"
         id="g58"><path
           id="path60"
           style="fill:#259a71;fill-opacity:1;fill-rule:nonzero;stroke:none"
           d="M 16300,11554.9 V 11347 c 0,-88.1 -70.9,-159.1 -159,-159.1 H 2433.24 c -90.51,0 -160.23,71 -160.23,159.1 v 207.9 c 0,-88.1 69.72,-159 160.23,-159 H 16141 c 88.1,0 159,70.9 159,159" /></g><g
         transform="scale(2.72453)"
         id="g62"><path
           id="path64"
           style="fill:#102770;fill-opacity:1;fill-rule:nonzero;stroke:none"
           d="m 2423.84,11773.3 c -54.85,0 -97.81,-42.9 -97.81,-97.8 V 11304 c 0,-54.8 42.96,-97.8 97.81,-97.8 H 16080.4 c 54.8,0 97.8,43 97.8,97.8 v 371.5 c 0,54.9 -43,97.8 -97.8,97.8 H 2423.84 m 13656.56,-689 H 2423.84 c -121.13,0 -219.65,98.6 -219.65,219.7 v 371.5 c 0,121.2 98.52,219.7 219.65,219.7 H 16080.4 c 121.1,0 219.6,-98.5 219.6,-219.7 V 11304 c 0,-121.1 -98.5,-219.7 -219.6,-219.7" /></g><g
         transform="scale(2.71434)"
         id="g66"><path
           id="path68"
           style="fill:#2ecc71;fill-opacity:1;fill-rule:nonzero;stroke:none"
           d="m 16300,13638.9 v -373 c 0,-88.1 -69.7,-159 -159,-159 H 2433.24 c -89.28,0 -160.23,70.9 -160.23,159 v 373 c 0,86.9 70.95,159.1 160.23,159.1 H 16141 c 89.3,0 159,-72.2 159,-159.1" /></g><g
         transform="scale(2.71442)"
         id="g70"><path
           id="path72"
           style="fill:#ffffff;fill-opacity:1;fill-rule:nonzero;stroke:none"
           d="m 16300,13476.6 c 0,4 -0.1,7.9 -0.4,11.8 v 150.1 c 0,86.9 -69.7,159.1 -159,159.1 h -1295.8 c 0,0.1 0,0.2 0.1,0.2 h 1295.8 c 88.2,0 159.3,-72.3 159.3,-159.3 v -161.9 M 2292.16,13714 c 26.62,49.6 78.85,83.8 140.44,83.8 h 1295.64 c 0.04,0 0.07,-0.1 0.11,-0.2 H 2433.17 c -61.35,0 -114.05,-34.1 -141.01,-83.6" /></g><g
         transform="scale(2.71434)"
         id="g74"><path
           id="path76"
           style="fill:#58d68d;fill-opacity:1;fill-rule:nonzero;stroke:none"
           d="m 2273.33,13477 v 161.9 c 0,27.2 6.8,52.9 18.89,75.4 26.97,49.5 79.66,83.7 141.02,83.7 h 1295.21 c 19.2,-54.6 43,-108.5 71.33,-161.7 H 2432.66 c -89.55,0 -159.33,-71.1 -159.33,-159.3 m 14026.67,11.8 c -6,82.6 -74.6,147.5 -158.9,147.5 h -1367.3 c 28.3,53.2 52.2,107.1 71.4,161.7 H 16141 c 89.3,0 159,-72.2 159,-159.1 v -150.1" /></g><g
         transform="scale(2.71434)"
         id="g78"><path
           id="path80"
           style="fill:#259a71;fill-opacity:1;fill-rule:nonzero;stroke:none"
           d="m 16300,13473.9 v -208 c 0,-88.1 -70.9,-159 -159,-159 H 2433.24 c -90.51,0 -160.23,70.9 -160.23,159 v 208 c 0,-88.1 69.72,-159.1 160.23,-159.1 H 16141 c 88.1,0 159,71 159,159.1" /></g><g
         transform="scale(2.72453)"
         id="g82"><path
           id="path84"
           style="fill:#102770;fill-opacity:1;fill-rule:nonzero;stroke:none"
           d="m 2423.84,13685.5 c -54.85,0 -97.81,-43 -97.81,-97.9 v -371.4 c 0,-54.9 42.96,-97.9 97.81,-97.9 H 16080.4 c 54.8,0 97.8,43 97.8,97.9 v 371.4 c 0,54.9 -43,97.9 -97.8,97.9 z m 13656.56,-689 H 2423.84 c -121.13,0 -219.65,98.5 -219.65,219.7 v 371.4 c 0,121.2 98.52,219.7 219.65,219.7 H 16080.4 c 121.1,0 219.6,-98.5 219.6,-219.7 v -371.4 c 0,-121.2 -98.5,-219.7 -219.6,-219.7" /></g><path
         id="path86"
         style="fill:#ffffff;fill-opacity:1;fill-rule:nonzero;stroke:none"
         d="m 8511.4,14353.5 v 468.1 c 0,384.4 190.33,724.2 482.22,929 v -470.5 c -291.89,-203.8 -482.22,-542.3 -482.22,-926.6" /><g
         transform="scale(1.84429)"
         id="g88"><path
           id="path90"
           style="fill:#22a7f0;fill-opacity:1;fill-rule:nonzero;stroke:none"
           d="M 16300,12349.3 V 6682.96 c 0,-234.08 -187.2,-421.3 -419.4,-421.3 H 5386.55 c -232.21,0 -419.42,187.22 -419.42,421.3 v 5666.34 c 0,232.2 187.21,423 419.42,423 H 15880.6 c 232.2,0 419.4,-190.8 419.4,-423" /></g><g
         transform="scale(1.83408)"
         id="g92"><path
           id="path94"
           style="fill:#4eb9f3;fill-opacity:1;fill-rule:nonzero;stroke:none"
           d="m 16300,12273 c -82.8,110.2 -214.6,181.3 -363.6,181.3 H 5449.1 c -148.83,0 -281.19,-71 -364.48,-181 v 146 c 0,182.9 148.83,331.8 331.78,331.8 h 10551.8 c 183,0 331.8,-148.9 331.8,-331.8 V 12273" /></g><g
         transform="scale(1.84429)"
         id="g96"><path
           id="path98"
           style="fill:#1c7fc8;fill-opacity:1;fill-rule:nonzero;stroke:none"
           d="m 16300,7489.23 v -773.96 c 0,-250.12 -201.6,-453.61 -451.8,-453.61 H 5418.94 c -250.23,0 -453.61,203.49 -453.61,453.61 v 773.96 c 0,-248.39 203.38,-451.72 453.61,-451.72 H 15848.2 c 250.2,0 451.8,203.33 451.8,451.72" /></g><g
         transform="scale(1.85445)"
         id="g100"><path
           id="path102"
           style="fill:#102770;fill-opacity:1;fill-rule:nonzero;stroke:none"
           d="m 5356.91,12611.1 c -180.94,0 -328.14,-147.3 -328.14,-328.2 V 6645.64 c 0,-180.97 147.2,-328.18 328.14,-328.18 H 15792.8 c 181,0 328.2,147.21 328.2,328.18 v 5637.26 c 0,180.9 -147.2,328.2 -328.2,328.2 H 5356.91 M 15792.8,6138.43 H 5356.91 c -279.62,0 -507.15,227.51 -507.15,507.21 v 5637.26 c 0,279.7 227.53,507.2 507.15,507.2 H 15792.8 c 279.6,0 507.2,-227.5 507.2,-507.2 V 6645.64 c 0,-279.7 -227.6,-507.21 -507.2,-507.21" /></g><g
         transform="scale(2.53105)"
         id="g104"><path
           id="path106"
           style="fill:#878a96;fill-opacity:1;fill-rule:nonzero;stroke:none"
           d="M 16300,8976.2 V 1867.33 H 12665.5 V 8976.2 c 0,182.34 148.2,329.27 330.5,329.27 h 2973.5 c 182.3,0 330.5,-146.93 330.5,-329.27" /></g><g
         transform="scale(2.52085)"
         id="g108"><path
           id="path110"
           style="fill:#9fa1ab;fill-opacity:1;fill-rule:nonzero;stroke:none"
           d="m 16300,8976.15 c -60.6,80.57 -157.2,132.58 -265.9,132.58 h -2985.5 c -108,0 -204.2,-51.42 -264.8,-131.23 v 58.35 c 0,133.09 108.3,241.43 241.4,241.43 h 3033.3 c 133.2,0 241.5,-108.34 241.5,-241.43 v -59.7" /></g><g
         transform="scale(2.44347)"
         id="g112"><path
           id="path114"
           style="fill:#22a7f0;fill-opacity:1;fill-rule:nonzero;stroke:none"
           d="M 16300,8901.23 V 6133.69 c 0,-84.18 -69.3,-152.08 -152.2,-152.08 h -2290.6 c -82.9,0 -152.2,67.9 -152.2,152.08 v 2767.54 c 0,85.57 69.3,152.16 152.2,152.16 h 2290.6 c 82.9,0 152.2,-66.59 152.2,-152.16" /></g><g
         transform="scale(2.44347)"
         id="g116"><path
           id="path118"
           style="fill:#4eb9f3;fill-opacity:1;fill-rule:nonzero;stroke:none"
           d="m 16300,8696.11 c 0,84.26 -69.3,152.16 -152.2,152.16 h -2290.6 c -82.9,0 -152.2,-67.9 -152.2,-152.16 v 205.12 c 0,85.57 69.3,152.16 152.2,152.16 h 2290.6 c 82.9,0 152.2,-66.59 152.2,-152.16 v -205.12" /></g><g
         transform="scale(2.44347)"
         id="g120"><path
           id="path122"
           style="fill:#1c7fc8;fill-opacity:1;fill-rule:nonzero;stroke:none"
           d="m 16300,6510.12 v -376.43 c 0,-84.18 -69.3,-152.12 -152.2,-152.12 h -2290.6 c -82.9,0 -152.2,67.94 -152.2,152.12 v 376.43 c 0,-82.91 69.3,-152.2 152.2,-152.2 h 2290.6 c 82.9,0 152.2,69.29 152.2,152.2" /></g><g
         transform="scale(2.45361)"
         id="g124"><path
           id="path126"
           style="fill:#102770;fill-opacity:1;fill-rule:nonzero;stroke:none"
           d="m 13800,8948.78 c -46.3,0 -83.8,-37.61 -83.8,-83.83 V 6107.74 c 0,-45.44 38.3,-83.83 83.8,-83.83 h 2280.9 c 45.4,0 83.8,38.39 83.8,83.83 v 2757.21 c 0,46.22 -37.6,83.83 -83.8,83.83 z M 16080.9,5888.6 H 13800 c -120.8,0 -219.1,98.3 -219.1,219.14 v 2757.21 c 0,120.84 98.3,219.15 219.1,219.15 h 2280.9 c 120.8,0 219.1,-98.31 219.1,-219.15 V 6107.74 c 0,-120.84 -98.3,-219.14 -219.1,-219.14" /></g><g
         transform="scale(2.54121)"
         id="g128"><path
           id="path130"
           style="fill:#102770;fill-opacity:1;fill-rule:nonzero;stroke:none"
           d="m 12681.4,1925.03 h 3488 v 7038.42 c 0,132.03 -107.4,239.49 -239.5,239.49 h -3009.1 c -132,0 -239.4,-107.46 -239.4,-239.49 V 1925.03 m 3553.3,-130.65 H 12616 c -36.1,0 -65.3,29.28 -65.3,65.33 v 7103.74 c 0,204.08 166,370.14 370.1,370.14 h 3009.1 c 204.1,0 370.1,-166.06 370.1,-370.14 V 1859.71 c 0,-36.05 -29.2,-65.33 -65.3,-65.33" /></g><g
         transform="scale(2.25914)"
         id="g132"><path
           id="path134"
           style="fill:#102770;fill-opacity:1;fill-rule:nonzero;stroke:none"
           d="m 16226.5,6395.48 c -40.6,0 -73.5,32.89 -73.5,73.48 v 3323.61 c 0,40.59 32.9,73.48 73.5,73.48 40.7,0 73.5,-32.89 73.5,-73.48 V 6468.96 c 0,-40.59 -32.8,-73.48 -73.5,-73.48" /></g><g
         transform="scale(2.45362)"
         id="g136"><path
           id="path138"
           style="fill:#102770;fill-opacity:1;fill-rule:nonzero;stroke:none"
           d="m 16232.3,7418.55 h -2583.9 c -37.4,0 -67.7,30.28 -67.7,67.66 0,37.37 30.3,67.65 67.7,67.65 h 2583.9 c 37.4,0 67.7,-30.28 67.7,-67.65 0,-37.38 -30.3,-67.66 -67.7,-67.66" /></g><g
         transform="scale(2.4716)"
         id="g140"><path
           id="path142"
           style="fill:#ffffff;fill-opacity:1;fill-rule:nonzero;stroke:none"
           d="m 16300,4321.95 c 0,-189.4 -153.5,-342.9 -342.9,-342.9 -189.3,0 -342.9,153.5 -342.9,342.9 0,189.35 153.6,342.89 342.9,342.89 189.4,0 342.9,-153.54 342.9,-342.89" /></g><g
         transform="scale(2.47149)"
         id="g144"><path
           id="path146"
           style="fill:#e6e7e8;fill-opacity:1;fill-rule:nonzero;stroke:none"
           d="m 16300,4322.57 c 0,-189.4 -153.3,-342.7 -342.7,-342.7 -159.1,0 -292.1,107.06 -329.7,254.54 43.4,-20.27 92.5,-31.85 144.6,-31.85 189.4,0 342.7,153.27 342.7,342.71 0,30.35 -4.3,60.74 -13,88.21 117.1,-53.45 198.1,-173.5 198.1,-310.91" /></g><g
         transform="scale(2.48178)"
         id="g148"><path
           id="path150"
           style="fill:#102770;fill-opacity:1;fill-rule:nonzero;stroke:none"
           d="m 15891.6,4578.77 c -151.4,0 -274.6,-123.18 -274.6,-274.56 0,-151.42 123.2,-274.6 274.6,-274.6 151.5,0 274.7,123.18 274.7,274.6 0,151.38 -123.2,274.56 -274.7,274.56 z m 0,-682.89 c -225.1,0 -408.4,183.17 -408.4,408.33 0,225.16 183.3,408.34 408.4,408.34 225.2,0 408.4,-183.18 408.4,-408.34 0,-225.16 -183.2,-408.33 -408.4,-408.33" /></g><path
         id="path152"
         style="fill:#f8c471;fill-opacity:1;fill-rule:nonzero;stroke:none"
         d="M 16041.1,9110.8 V 4725.9 h -1350.8 v 4384.9 c 0,371.7 303.7,675.4 675.4,675.4 371.7,0 675.4,-303.7 675.4,-675.4" /><path
         id="path154"
         style="fill:#ffffff;fill-opacity:1;fill-rule:nonzero;stroke:none"
         d="m 14690.3,9117.4 c 3.5,368.7 305.9,668.9 675.4,668.9 34.9,0 68.5,-2.3 101,-7.7 -33,5 -66.7,7.6 -101,7.6 -369.5,0 -671.9,-300.1 -675.4,-668.8" /><path
         id="path156"
         style="fill:#f9d08d;fill-opacity:1;fill-rule:nonzero;stroke:none"
         d="m 15033.4,4725.9 h -343.1 v 4384.9 c 0,2.2 0,4.4 0,6.6 3.5,368.7 305.9,668.8 675.4,668.8 34.3,0 68,-2.6 101,-7.6 24.2,-4 47.7,-9.7 70.5,-17.4 -289.4,-75 -503.8,-339.4 -503.8,-650.4 V 4725.9" /><path
         id="path158"
         style="fill:#dca26a;fill-opacity:1;fill-rule:nonzero;stroke:none"
         d="M 16041.1,9110.8 V 4725.9 h -486 v 4384.9 c 0,285.9 -178.7,532.4 -432.4,629.1 75,28.4 157.2,46.4 243,46.4 371.7,0 675.4,-303.8 675.4,-675.5" /><path
         id="path160"
         style="fill:#102770;fill-opacity:1;fill-rule:nonzero;stroke:none"
         d="m 14856.3,4891.9 h 1018.8 v 4219 c 0,280.8 -228.5,509.3 -509.5,509.3 -280.9,0 -509.3,-228.5 -509.3,-509.3 z m 1184.8,-332 h -1350.7 c -91.8,0 -166,74.4 -166,166 v 4385 c 0,463.9 377.3,841.3 841.2,841.3 464,0 841.5,-377.4 841.5,-841.3 v -4385 c 0,-91.6 -74.2,-166 -166,-166" /><path
         id="path162"
         style="fill:#f8c471;fill-opacity:1;fill-rule:nonzero;stroke:none"
         d="M 11264.8,9110.8 V 4725.9 H 9914.01 v 4384.9 c 0,371.7 303.69,675.4 675.39,675.4 371.7,0 675.4,-303.7 675.4,-675.4" /><path
         id="path164"
         style="fill:#ffffff;fill-opacity:1;fill-rule:nonzero;stroke:none"
         d="m 9914.04,9117.4 c 3.53,368.7 305.86,668.9 675.36,668.9 34.9,0 68.6,-2.3 101.1,-7.7 -33,5 -66.7,7.6 -101.1,7.6 -369.5,0 -671.83,-300.1 -675.36,-668.8" /><path
         id="path166"
         style="fill:#f9d08d;fill-opacity:1;fill-rule:nonzero;stroke:none"
         d="m 10257.1,4725.9 h -343.09 v 4384.9 c 0,2.2 0.01,4.4 0.03,6.6 3.53,368.7 305.86,668.8 675.36,668.8 34.4,0 68.1,-2.6 101.1,-7.6 24.1,-4 47.6,-9.7 70.4,-17.4 -289.4,-75 -503.8,-339.4 -503.8,-650.4 V 4725.9" /><path
         id="path168"
         style="fill:#dca26a;fill-opacity:1;fill-rule:nonzero;stroke:none"
         d="M 11264.8,9110.8 V 4725.9 h -486 v 4384.9 c 0,285.9 -178.7,532.4 -432.4,629.1 75.1,28.4 157.2,46.4 243,46.4 371.7,0 675.4,-303.8 675.4,-675.5" /><path
         id="path170"
         style="fill:#102770;fill-opacity:1;fill-rule:nonzero;stroke:none"
         d="m 10080,4891.9 h 1018.8 v 4219 c 0,280.8 -228.4,509.3 -509.3,509.3 -281,0 -509.5,-228.5 -509.5,-509.3 z m 1184.8,-332 H 9914.01 c -91.75,0 -165.99,74.4 -165.99,166 v 4385 c 0,463.9 377.48,841.3 841.48,841.3 463.9,0 841.2,-377.4 841.2,-841.3 v -4385 c 0,-91.6 -74.2,-166 -165.9,-166" /><g
         transform="scale(1.07023)"
         id="g172"><path
           id="path174"
           style="fill:#f8c471;fill-opacity:1;fill-rule:nonzero;stroke:none"
           d="M 16270.4,7031.5 H 7981.55 c -16.34,0 -29.59,13.27 -29.59,29.62 v 7815.78 c 0,16.3 13.25,29.6 29.59,29.6 h 8288.85 c 16.3,0 29.6,-13.3 29.6,-29.6 V 7061.12 c 0,-16.35 -13.3,-29.62 -29.6,-29.62" /></g><g
         transform="scale(1.07029)"
         id="g176"><path
           id="path178"
           style="fill:#dca26a;fill-opacity:1;fill-rule:nonzero;stroke:none"
           d="M 15241.5,7610.94 H 9007.62 c -584.33,0 -1055.18,474.26 -1055.18,1058.59 v -581.06 c 0,-584.32 470.85,-1058.49 1055.18,-1058.49 h 6233.88 c 584.4,0 1058.5,474.17 1058.5,1058.49 v 581.06 c 0,-584.33 -474.1,-1058.59 -1058.5,-1058.59" /></g><g
         transform="scale(1.08047)"
         id="g180"><path
           id="path182"
           style="fill:#102770;fill-opacity:1;fill-rule:nonzero;stroke:none"
           d="m 8922.68,14612.6 c -491.63,0 -891.59,-401.4 -891.59,-894.9 V 8012.23 c 0,-493.39 399.96,-894.88 891.59,-894.88 h 6175.12 c 493.4,0 894.9,401.49 894.9,894.88 v 5705.47 c 0,493.5 -401.5,894.9 -894.9,894.9 z M 15097.8,6810.08 H 8922.68 c -661.01,0 -1198.84,539.3 -1198.84,1202.15 v 5705.47 c 0,662.9 537.83,1202.1 1198.84,1202.1 h 6175.12 c 662.8,0 1202.2,-539.2 1202.2,-1202.1 V 8012.23 c 0,-662.85 -539.4,-1202.15 -1202.2,-1202.15" /></g><path
         id="path184"
         style="fill:#ffffff;fill-opacity:1;fill-rule:nonzero;stroke:none"
         d="m 16277.1,14360.6 v -4170.5 c 0,-221.6 -182.3,-403.8 -403.8,-403.8 h -5793 c -221.6,0 -403.87,182.2 -403.87,403.8 v 4170.5 c 0,221.6 182.27,403.8 403.87,403.8 h 5793 c 221.5,0 403.8,-182.2 403.8,-403.8" /><path
         id="path186"
         style="fill:#c2c3c4;fill-opacity:1;fill-rule:nonzero;stroke:none"
         d="m 16277.1,10904.9 v -714.8 c 0,-221.6 -182.3,-403.8 -403.8,-403.8 h -5793 c -221.6,0 -403.87,182.2 -403.87,403.8 v 714.8 c 0,-221.7 182.27,-403.8 403.87,-403.8 h 5793 c 221.5,0 403.8,182.1 403.8,403.8" /><g
         transform="scale(1.00878)"
         id="g188"><path
           id="path190"
           style="fill:#102770;fill-opacity:1;fill-rule:nonzero;stroke:none"
           d="m 9992.57,14471.4 c -127.89,0 -235.87,-108 -235.87,-235.8 v -4134.2 c 0,-127.67 107.98,-235.71 235.87,-235.71 h 5742.63 c 127.7,0 235.7,108.04 235.7,235.71 v 4134.2 c 0,127.8 -108,235.8 -235.7,235.8 z M 15735.2,9536.67 H 9992.57 c -311.55,0 -564.95,253.38 -564.95,564.73 v 4134.2 c 0,311.5 253.4,564.9 564.95,564.9 h 5742.63 c 311.4,0 564.8,-253.4 564.8,-564.9 v -4134.2 c 0,-311.35 -253.4,-564.73 -564.8,-564.73" /></g><path
         id="path192"
         style="fill:#102770;fill-opacity:1;fill-rule:nonzero;stroke:none"
         d="m 14976,13360.2 h -3998.5 c -91.7,0 -166,74.3 -166,166 0,91.6 74.3,165.9 166,165.9 H 14976 c 91.7,0 166,-74.3 166,-165.9 0,-91.7 -74.3,-166 -166,-166" /><path
         id="path194"
         style="fill:#102770;fill-opacity:1;fill-rule:nonzero;stroke:none"
         d="m 14387.6,12109.3 h -2821.7 c -91.7,0 -166,74.4 -166,166 0,91.7 74.3,166 166,166 h 2821.7 c 91.7,0 165.9,-74.3 165.9,-166 0,-91.6 -74.2,-166 -165.9,-166" /><path
         id="path196"
         style="fill:#102770;fill-opacity:1;fill-rule:nonzero;stroke:none"
         d="m 14976,10858.6 h -3998.5 c -91.7,0 -166,74.3 -166,166 0,91.7 74.3,166 166,166 H 14976 c 91.7,0 166,-74.3 166,-166 0,-91.7 -74.3,-166 -166,-166" /><g
         transform="scale(2.43106)"
         id="g198"><path
           id="path200"
           style="fill:#ffca28;fill-opacity:1;fill-rule:nonzero;stroke:none"
           d="m 16300,12490.9 v -1532.8 c 0,-467.7 -379,-846.6 -848.1,-846.6 -467.7,0 -846.6,378.9 -846.6,846.6 v 1532.8 H 16300" /></g><g
         transform="scale(2.2622)"
         id="g202"><path
           id="path204"
           style="fill:#ffd553;fill-opacity:1;fill-rule:nonzero;stroke:none"
           d="m 16300,10997.2 c -310.7,122.3 -531.2,425.3 -531.2,778.8 v 1573.9 h 92.2 v -1574.5 c 0,-329.6 176,-618.7 439,-778.2" /></g><g
         transform="scale(2.43101)"
         id="g206"><path
           id="path208"
           style="fill:#ffa726;fill-opacity:1;fill-rule:nonzero;stroke:none"
           d="m 16300,12491.2 v -1533.5 c 0,-467.1 -378.2,-846.7 -848,-846.7 -49.2,0 -98.3,4.1 -144.8,13.7 400.2,68.3 703.3,415.1 703.3,833 v 1533.5 h 289.5" /></g><g
         transform="scale(2.44125)"
         id="g210"><path
           id="path212"
           style="fill:#102770;fill-opacity:1;fill-rule:nonzero;stroke:none"
           d="m 14612.3,12370.8 v -1458.4 c 0,-427.4 347.7,-775.2 775.2,-775.2 428.2,0 776.5,347.8 776.5,775.2 v 1458.4 h -1551.7 m 775.2,-2369.5 c -502.5,0 -911.2,408.7 -911.2,911.1 v 1526.4 c 0,37.5 30.4,68 68,68 H 16232 c 37.6,0 68,-30.5 68,-68 v -1526.4 c 0,-502.4 -409.3,-911.1 -912.5,-911.1" /></g><g
         transform="scale(2.72846)"
         id="g214"><path
           id="path216"
           style="fill:#ed197b;fill-opacity:1;fill-rule:nonzero;stroke:none"
           d="m 14765.4,14058.6 c 0,-1237.9 -2474.3,-2241.4 -5526.65,-2241.4 -3052.3,0 -5526.7,1003.5 -5526.7,2241.4 0,1237.9 2474.4,2241.4 5526.7,2241.4 3052.35,0 5526.65,-1003.5 5526.65,-2241.4" /></g><g
         transform="scale(2.71828)"
         id="g218"><path
           id="path220"
           style="fill:#f14795;fill-opacity:1;fill-rule:nonzero;stroke:none"
           d="m 3788.39,14161.2 c 66.91,1183.8 2501.65,2138.8 5484.93,2138.8 2982.68,0 5417.18,-954.6 5484.98,-2138.2 -402.8,1082.8 -2705.2,1911.5 -5484.87,1911.5 -2780.32,0 -5083.17,-828.9 -5485.04,-1912.1" /></g><g
         transform="scale(2.47161)"
         id="g222"><path
           id="path224"
           style="fill:#b61d79;fill-opacity:1;fill-rule:nonzero;stroke:none"
           d="m 16300,15520 c 0,-1367.6 -2731.1,-2474.7 -6101.1,-2474.7 -3369.88,0 -6101.01,1107.1 -6101.01,2474.7 0,52.7 4.17,104 12.5,155.3 522.37,-1151.5 3009.62,-2024.5 5999.91,-2024.5 3241,0 5891.8,1025.4 6088.6,2319.6 66.4,-145.5 101.1,-296.6 101.1,-450.4" /></g><g
         transform="scale(2.73865)"
         id="g226"><path
           id="path228"
           style="fill:#102770;fill-opacity:1;fill-rule:nonzero;stroke:none"
           d="m 9204.36,16178.8 c -3002.69,0 -5445.54,-974.6 -5445.54,-2172.5 0,-1197.9 2442.85,-2172.4 5445.54,-2172.4 3002.74,0 5445.64,974.5 5445.64,2172.4 0,1197.9 -2442.9,2172.5 -5445.64,2172.5 m 0,-4466.2 c -3069.51,0 -5566.74,1029 -5566.74,2293.7 0,1264.8 2497.23,2293.7 5566.74,2293.7 3069.54,0 5566.84,-1028.9 5566.84,-2293.7 0,-1264.7 -2497.3,-2293.7 -5566.84,-2293.7" /></g><path
         id="path230"
         style="fill:#2ecc71;fill-opacity:1;fill-rule:nonzero;stroke:none"
         d="m 8127.62,9777.3 c 0,-1751 -980.14,-2256.5 -2189.19,-2256.5 -1209.06,0 -2189.19,505.5 -2189.19,2256.5 0,1751 980.13,4084.4 2189.19,4084.4 1209.05,0 2189.19,-2333.4 2189.19,-4084.4" /><path
         id="path232"
         style="fill:#58d68d;fill-opacity:1;fill-rule:nonzero;stroke:none"
         d="m 4481.13,12291 c 375.54,812 900.4,1404.7 1457.29,1404.7 556.43,0 1080.88,-591.7 1456.36,-1402.6 -386.75,710.6 -896.56,1210.2 -1455.24,1210.2 -560.33,0 -1071.21,-500.6 -1458.41,-1212.3" /><path
         id="path234"
         style="fill:#259a71;fill-opacity:1;fill-rule:nonzero;stroke:none"
         d="m 8126.85,9776.7 c 0,-1749.8 -979.01,-2255.9 -2187.32,-2255.9 -1210.74,0 -2189.69,506.1 -2189.69,2255.9 0,118.2 4.74,238.8 14.15,361.7 118.23,-1480.2 1047.59,-1920 2175.54,-1920 1125.59,0 2054.88,439.8 2173.12,1920 9.46,-122.9 14.2,-243.5 14.2,-361.7" /><path
         id="path236"
         style="fill:#102770;fill-opacity:1;fill-rule:nonzero;stroke:none"
         d="m 5938.42,13695.7 c -1070.65,0 -2023.13,-2191.1 -2023.13,-3918.3 0,-1426.3 642.88,-2090.6 2023.13,-2090.6 1380.25,0 2023.13,664.3 2023.13,2090.6 0,1727.2 -952.48,3918.3 -2023.13,3918.3 m 0,-6340.9 c -1562.77,0 -2355.11,815 -2355.11,2422.6 0,1692.1 939.36,4250.3 2355.11,4250.3 1415.75,0 2355.11,-2558.2 2355.11,-4250.3 0,-1607.6 -792.34,-2422.6 -2355.11,-2422.6" /><path
         id="path238"
         style="fill:#102770;fill-opacity:1;fill-rule:nonzero;stroke:none"
         d="m 5938.42,4576.3 c -91.75,0 -165.98,74.3 -165.98,166 v 6647.6 c 0,91.6 74.23,166 165.98,166 91.75,0 165.99,-74.4 165.99,-166 V 4742.3 c 0,-91.7 -74.24,-166 -165.99,-166" /><path
         id="path240"
         style="fill:#102770;fill-opacity:1;fill-rule:nonzero;stroke:none"
         d="m 5938.42,9929.4 c -39.06,0 -78.13,13.6 -109.58,41.3 l -983.43,865 c -68.9,60.5 -75.54,165.4 -15.08,234.3 60.94,68.9 165.66,75.4 234.23,15 L 6048,10220 c 68.89,-60.5 75.54,-165.4 15.08,-234.3 -32.75,-37.3 -78.62,-56.3 -124.66,-56.3" /><path
         id="path242"
         style="fill:#102770;fill-opacity:1;fill-rule:nonzero;stroke:none"
         d="m 5938.42,8355.1 c -39.06,0 -78.13,13.6 -109.58,41.3 l -983.43,865 c -68.9,60.5 -75.54,165.4 -15.08,234.3 60.94,68.9 165.66,75.4 234.23,15 l 983.44,-865 c 68.89,-60.5 75.54,-165.4 15.08,-234.3 -32.75,-37.2 -78.62,-56.3 -124.66,-56.3" /><path
         id="path244"
         style="fill:#102770;fill-opacity:1;fill-rule:nonzero;stroke:none"
         d="m 5938.42,9220.1 c -41.98,0 -83.96,15.8 -116.22,47.4 -65.49,64.2 -66.46,169.4 -2.27,234.8 l 928,945.8 c 64.36,65.6 169.39,66.5 234.72,2.3 65.48,-64.2 66.46,-169.3 2.27,-234.7 l -928.01,-945.9 c -32.58,-33.1 -75.53,-49.7 -118.49,-49.7" /><path
         id="path246"
         style="fill:#58d68d;fill-opacity:1;fill-rule:nonzero;stroke:none"
         d="m 4687.32,11294.9 c -10.29,0 -21.1,1.4 -32.53,4.4 -186.73,38.1 -246.2,491.2 18.29,945.5 203.82,351.5 506.97,538.2 691.97,538.2 54.27,0 98.37,-16 126.82,-48.7 134.74,-139.9 -175.75,-346.1 -399.3,-733.5 -211.86,-363 -245.99,-705.9 -405.25,-705.9" /><path
         id="path248"
         style="fill:#58d68d;fill-opacity:1;fill-rule:nonzero;stroke:none"
         d="m 4532.12,10331.9 c -182.33,0 -337.77,169.9 -323.65,387 13.08,202.3 165.16,341.4 331.98,341.4 19.74,0 39.67,-1.9 59.62,-6 189.57,-35 104.95,-174.6 92.68,-366.6 -12.6,-192.2 53.62,-344.2 -138.85,-355 -7.29,-0.6 -14.56,-0.8 -21.78,-0.8" /><g
         transform="scale(2.83693)"
         id="g250"><path
           id="path252"
           style="fill:#2ecc71;fill-opacity:1;fill-rule:nonzero;stroke:none"
           d="m 16300,3475.87 c 0,-617.21 -345.5,-795.4 -771.7,-795.4 -426.1,0 -771.6,178.19 -771.6,795.4 0,617.22 345.5,1439.7 771.6,1439.7 426.2,0 771.7,-822.48 771.7,-1439.7" /></g><g
         transform="scale(2.79199)"
         id="g254"><path
           id="path256"
           style="fill:#58d68d;fill-opacity:1;fill-rule:nonzero;stroke:none"
           d="m 15256.3,4432.11 c 134.5,290.83 322.5,503.16 522,503.16 199.3,0 387.2,-212.08 521.7,-502.62 -138.5,254.66 -321.2,433.7 -521.3,433.7 -200.7,0 -383.7,-179.29 -522.4,-434.24" /></g><g
         transform="scale(2.83688)"
         id="g258"><path
           id="path260"
           style="fill:#259a71;fill-opacity:1;fill-rule:nonzero;stroke:none"
           d="m 16300,3475.68 c 0,-616.8 -345.1,-795.2 -771.1,-795.2 -426.7,0 -771.8,178.4 -771.8,795.2 0,41.7 1.7,84.18 5,127.53 41.6,-521.77 369.3,-676.8 766.8,-676.8 396.8,0 724.4,155.03 766.1,676.8 3.3,-43.35 5,-85.83 5,-127.53" /></g><g
         transform="scale(2.84712)"
         id="g262"><path
           id="path264"
           style="fill:#102770;fill-opacity:1;fill-rule:nonzero;stroke:none"
           d="m 15472.7,4839.7 c -376,0 -710.5,-769.62 -710.5,-1376.3 0,-500.93 225.8,-734.22 710.5,-734.22 484.9,0 710.7,233.29 710.7,734.22 0,606.68 -334.6,1376.3 -710.7,1376.3 m 0,-2227.13 c -548.9,0 -827.1,286.26 -827.1,850.83 0,594.35 329.9,1492.91 827.1,1492.91 497.4,0 827.3,-898.56 827.3,-1492.91 0,-564.57 -278.4,-850.83 -827.3,-850.83" /></g><g
         transform="scale(2.7128)"
         id="g266"><path
           id="path268"
           style="fill:#102770;fill-opacity:1;fill-rule:nonzero;stroke:none"
           d="m 16238.8,1717.71 c -33.8,0 -61.2,27.39 -61.2,61.19 v 2450.45 c 0,33.77 27.4,61.16 61.2,61.16 33.8,0 61.2,-27.39 61.2,-61.16 V 1778.9 c 0,-33.8 -27.4,-61.19 -61.2,-61.19" /></g><g
         transform="scale(2.71398)"
         id="g270"><path
           id="path272"
           style="fill:#102770;fill-opacity:1;fill-rule:nonzero;stroke:none"
           d="m 16231.8,3689.38 c -14.4,0 -28.8,5.02 -40.4,15.22 l -362.3,318.69 c -25.4,22.29 -27.9,60.94 -5.6,86.29 22.3,25.46 61.1,27.82 86.3,5.57 l 362.4,-318.69 c 25.4,-22.29 27.8,-60.94 5.5,-86.29 -12,-13.78 -28.9,-20.79 -45.9,-20.79" /></g><g
         transform="scale(2.71398)"
         id="g274"><path
           id="path276"
           style="fill:#102770;fill-opacity:1;fill-rule:nonzero;stroke:none"
           d="m 16231.8,3109.31 c -14.4,0 -28.8,5.02 -40.4,15.22 l -362.3,318.69 c -25.4,22.29 -27.9,60.94 -5.6,86.29 22.3,25.5 61.1,27.82 86.3,5.56 l 362.4,-318.68 c 25.4,-22.29 27.8,-60.95 5.5,-86.3 -12,-13.78 -28.9,-20.78 -45.9,-20.78" /></g><g
         transform="scale(2.77076)"
         id="g278"><path
           id="path280"
           style="fill:#102770;fill-opacity:1;fill-rule:nonzero;stroke:none"
           d="m 15899.1,3357.74 c -15.1,0 -30.2,5.71 -41.9,17.11 -23.6,23.17 -24,61.14 -0.8,84.74 l 334.9,341.39 c 23.2,23.64 61.1,23.96 84.7,0.79 23.6,-23.13 24,-61.1 0.8,-84.7 l -334.9,-341.39 c -11.8,-11.95 -27.2,-17.94 -42.8,-17.94" /></g><g
         transform="scale(2.68349)"
         id="g282"><path
           id="path284"
           style="fill:#58d68d;fill-opacity:1;fill-rule:nonzero;stroke:none"
           d="m 15950,4240.11 c -3.9,0 -7.9,0.56 -12.1,1.64 -69.6,14.2 -91.8,183.08 6.8,352.34 75.9,131.02 188.9,200.6 257.9,200.6 20.1,0 36.6,-6 47.2,-18.15 50.2,-52.17 -65.5,-128.97 -148.8,-273.34 -79,-135.31 -91.7,-263.09 -151,-263.09" /></g><g
         transform="scale(2.63215)"
         id="g286"><path
           id="path288"
           style="fill:#58d68d;fill-opacity:1;fill-rule:nonzero;stroke:none"
           d="m 16202.1,3956.96 c -69.2,0 -128.3,64.59 -122.9,147.07 5,76.82 62.8,129.7 126.1,129.7 7.5,0 15.1,-0.76 22.7,-2.28 72,-13.3 39.8,-66.37 35.2,-139.32 -4.8,-73.02 20.3,-130.76 -52.8,-134.87 -2.8,-0.19 -5.5,-0.3 -8.3,-0.3" /></g><g
         transform="scale(2.43712)"
         id="g290"><path
           id="path292"
           style="fill:#ffffff;fill-opacity:1;fill-rule:nonzero;stroke:none"
           d="m 5231.26,16137.9 h 262.32 c 106.15,0 181.77,-15.9 224.65,-47.5 42.18,-31.1 62.66,-74.5 62.66,-133.2 0,-60.5 -23.92,-106.1 -73.2,-139.2 -50.18,-33.9 -119.53,-51 -206.27,-51 h -270.16 z m 664.72,-349.1 c 36.36,53.9 54.86,114.2 54.86,179.3 0,98.9 -37.58,180 -111.6,241.1 -73.29,60.2 -183.79,90.8 -328.51,90.8 h -365.22 c -23.68,0 -43.83,-8.5 -60.07,-25.3 -16.01,-16.7 -24.13,-37 -24.13,-60.4 v -959.5 c 0,-23.5 8.17,-43.6 24.33,-59.8 32.21,-32.2 86.62,-32.4 120.27,-0.2 16.82,16.2 25.35,36.4 25.35,60 v 350.1 h 310.86 c 68.12,0 119.2,-16.3 151.9,-48.6 33.49,-33 54.91,-70.7 63.73,-112.3 9.11,-43.4 13.78,-91.2 13.78,-142.1 v -47.1 c 0,-24.6 7.92,-45 23.56,-60.5 15.67,-15.7 36.56,-23.7 62.08,-23.7 23.55,0 43.7,8.3 59.86,24.4 16.17,16.3 24.38,36.4 24.38,59.8 v 72.1 c 0,72.4 -14.32,147 -42.39,221.9 -24.62,65.5 -67.58,111.2 -127.81,136.6 52.64,24.1 94.49,58.8 124.77,103.4" /></g><g
         transform="scale(2.43712)"
         id="g294"><path
           id="path296"
           style="fill:#ffffff;fill-opacity:1;fill-rule:nonzero;stroke:none"
           d="m 6890.4,16139.4 c 22.32,0 41.56,7.7 57.2,22.7 15.79,15.1 23.88,34.3 23.88,56.9 0,22.4 -8,41.8 -23.72,57.4 -15.59,15.6 -34.88,23.6 -57.36,23.6 h -628.7 c -23.67,0 -43.82,-8.5 -60.03,-25.3 -16.04,-16.7 -24.16,-37 -24.16,-60.4 v -951.6 c 0,-23.5 8.16,-43.7 24.33,-59.8 16.16,-16.2 36.31,-24.4 59.86,-24.4 h 628.7 c 22.32,0 41.56,7.6 57.2,22.6 15.79,15.2 23.88,34.3 23.88,56.8 0,22.5 -8,41.8 -23.72,57.5 -15.59,15.7 -34.96,23.6 -57.36,23.6 h -542.94 v 320.8 h 486.44 c 22.44,0 41.73,7.6 57.28,22.6 15.75,15.2 23.8,34.3 23.8,56.9 0,22.4 -7.97,41.6 -23.6,57.4 -15.63,15.6 -35,23.6 -57.48,23.6 h -486.44 v 319.1 h 542.94" /></g><g
         transform="scale(2.43947)"
         id="g298"><path
           id="path300"
           style="fill:#ffffff;fill-opacity:1;fill-rule:nonzero;stroke:none"
           d="m 7750.84,15741.4 c -50.83,20 -118.56,40.2 -201.57,60.2 -62.84,14.4 -113.22,28.2 -149.7,41 -35.09,12.4 -64.52,29.8 -87.52,51.9 -21.97,21 -32.63,47.7 -32.63,81.7 0,51.8 23.2,91 71,119.9 49.27,29.9 114.66,45.1 194.22,45.1 84.65,0 167.99,-14 247.11,-41.4 12.17,-4.8 22.01,-7.2 30.08,-7.2 22.96,0 41.69,8.5 55.75,25.2 13.57,16.1 20.5,34.3 20.5,54.2 0,37.1 -18.28,63.2 -52.72,75.5 -94.07,34.8 -200.53,52.5 -316.34,52.5 -87.23,0 -163.27,-15 -225.86,-44.4 -63.17,-29.7 -111.75,-70.4 -144.26,-120.8 -32.67,-50.6 -49.23,-107.6 -49.23,-169.6 0,-71 20.21,-128.9 60.05,-172 38.91,-42.1 85.88,-74.1 139.75,-95.1 52.51,-20.4 122.07,-42 206.64,-63.9 63.34,-16.6 112.53,-31 146.18,-42.8 32.63,-11.3 60.34,-27.1 82.36,-46.6 20.65,-18.4 30.7,-40.7 30.7,-68.2 0,-112 -85.18,-166.4 -260.47,-166.4 -107.28,0 -209.18,21.1 -303.1,63 -11.23,4.9 -23.03,7.4 -35.21,7.4 -22.67,0 -41.61,-8.1 -56.28,-24 -14.27,-15.6 -21.61,-34.2 -21.61,-55.4 0,-16.4 5.09,-31.9 15.05,-46.2 9.84,-14 22.38,-24.4 37.22,-30.5 116.99,-50.7 244.19,-76.3 378.07,-76.3 80.72,0 153.11,13.5 215.22,40.2 62.51,27 111.82,65.2 146.58,113.5 34.97,48.5 52.68,104.2 52.68,165.4 0,74 -19.27,133.9 -57.31,178 -37.34,43.3 -82.93,75.7 -135.35,96.1" /></g><g
         transform="scale(2.43712)"
         id="g302"><path
           id="path304"
           style="fill:#ffffff;fill-opacity:1;fill-rule:nonzero;stroke:none"
           d="m 8894.98,16219 c 0,22.5 -7.92,41.8 -23.55,57.4 -15.68,15.6 -35.04,23.6 -57.45,23.6 h -780.72 c -22.6,0 -41.77,-8 -56.95,-23.8 -14.98,-15.7 -22.61,-34.9 -22.61,-57.2 0,-22.5 7.72,-41.5 22.82,-56.7 15.18,-15.1 34.26,-22.9 56.74,-22.9 h 306.14 v -884.6 c 0,-23.5 8.25,-43.7 24.42,-59.8 16.08,-16.1 36.23,-24.4 59.78,-24.4 23.43,0 43.7,8.2 60.4,24.2 16.82,16.2 25.36,36.4 25.36,60 v 884.6 h 304.62 c 22.28,0 41.57,7.7 57.24,22.7 15.76,15.1 23.76,34.3 23.76,56.9" /></g><g
         transform="scale(2.43829)"
         id="g306"><path
           id="path308"
           style="fill:#ffffff;fill-opacity:1;fill-rule:nonzero;stroke:none"
           d="m 9575.9,15609 h -382.24 l 191.12,460.1 z m -79.98,618.7 c -9.22,20.7 -22.39,38 -39.2,51.4 -17.64,13.9 -39.25,20.9 -64.11,20.9 h -15.66 c -25.02,0 -46.55,-7 -64.02,-21 -16.9,-13.3 -30.07,-30.6 -39.38,-51.5 l -399.62,-943.4 c -5.95,-14.3 -8.9,-26.3 -8.9,-36.6 0,-23.4 7.87,-43.5 23.34,-59.6 h 0.08 c 15.67,-16.3 36.17,-24.6 60.74,-24.6 17.31,0 33.18,4.8 47.37,14 14.19,9.3 25.1,22.1 32.48,38.3 l 98.47,236.1 h 514.54 l 98.59,-236.6 c 7.39,-15.9 18.21,-28.5 32.32,-37.8 14.23,-9.2 30.19,-14 47.45,-14 24.61,0 45.04,8.3 60.78,24.6 15.47,16.1 23.34,36.2 23.34,59.6 0,10.3 -2.95,22.2 -8.86,36.6 l -399.75,943.6" /></g><g
         transform="scale(2.43955)"
         id="g310"><path
           id="path312"
           style="fill:#ffffff;fill-opacity:1;fill-rule:nonzero;stroke:none"
           d="m 10905.3,16291.6 c -23.6,0 -43.8,-8.5 -59.8,-25.4 -16.1,-16.6 -24.3,-36.9 -24.3,-60.2 v -623.3 c 0,-59.7 -13.7,-111 -40.8,-152.4 -27.2,-41.5 -63.4,-73.1 -107.9,-93.8 -90,-41.9 -199.3,-41.9 -289.2,0 -44.5,20.7 -80.8,52.4 -107.9,93.8 -27.1,41.4 -40.9,92.7 -40.9,152.4 v 623.3 c 0,23.5 -8.5,43.9 -25.1,60.5 -33.6,33.5 -88.5,33.2 -120.4,-0.3 -16.1,-16.6 -24.2,-36.8 -24.2,-60.2 v -618.7 c 0,-95.3 22.9,-177.1 68.2,-243.3 45,-66.1 103.7,-115.8 174.7,-148.1 70.5,-32 144.5,-48.2 220.2,-48.2 75.7,0 149.8,16.2 220.2,48.2 70.8,32.2 129.6,82 174.7,148.1 45.3,66.2 68.3,148 68.3,243.3 v 618.7 c 0,23.4 -8.6,43.7 -25.2,60.4 -16.7,16.7 -37.1,25.2 -60.6,25.2" /></g><g
         transform="scale(2.43712)"
         id="g314"><path
           id="path316"
           style="fill:#ffffff;fill-opacity:1;fill-rule:nonzero;stroke:none"
           d="m 11990.6,15957.2 c 0,-60.6 -23.9,-106.1 -73.2,-139.2 -50.1,-33.9 -119.6,-51 -206.3,-51 h -270.2 v 370.9 h 262.3 c 106.2,0 181.9,-15.9 224.8,-47.5 42.1,-31 62.6,-74.5 62.6,-133.2 z m 115,-168.4 c 36.5,53.9 55,114.1 55,179.3 0,98.9 -37.6,180 -111.6,241.1 -73.3,60.2 -183.8,90.8 -328.6,90.8 h -365.2 c -23.7,0 -43.8,-8.5 -60,-25.3 -16,-16.6 -24.2,-36.9 -24.2,-60.4 v -959.5 c 0,-23.6 8.2,-43.7 24.4,-59.8 32.3,-32.2 86.7,-32.4 120.2,-0.2 16.8,16.1 25.3,36.4 25.3,60 v 350.1 h 310.9 c 68.1,0 119.2,-16.3 152,-48.6 33.3,-32.9 54.8,-70.7 63.6,-112.3 9.1,-43.4 13.8,-91.2 13.8,-142.1 v -47.1 c 0,-24.6 8,-44.9 23.6,-60.5 15.6,-15.7 36.5,-23.7 62.1,-23.7 23.6,0 43.7,8.3 59.9,24.4 16.2,16.3 24.3,36.4 24.3,59.8 v 72.1 c 0,72.5 -14.3,147.2 -42.4,221.9 -24.5,65.5 -67.5,111.2 -127.8,136.6 52.7,24.1 94.5,58.8 124.7,103.4" /></g><g
         transform="scale(2.43829)"
         id="g318"><path
           id="path320"
           style="fill:#ffffff;fill-opacity:1;fill-rule:nonzero;stroke:none"
           d="m 13018.6,15609 h -382.4 l 191.2,460.1 z m -80.1,618.7 c -9.2,20.7 -22.4,38 -39.2,51.4 -17.6,13.9 -39.2,20.9 -64.1,20.9 h -15.7 c -25,0 -46.5,-7 -64,-21 -16.9,-13.3 -30.1,-30.6 -39.4,-51.5 l -399.6,-943.4 c -5.9,-14.3 -8.9,-26.3 -8.9,-36.6 0,-23.5 7.9,-43.5 23.5,-59.6 15.6,-16.3 36,-24.6 60.7,-24.6 17.3,0 33.1,4.8 47.3,14 14.2,9.2 25.1,21.9 32.6,38.3 l 98.4,236.1 h 514.6 l 98.5,-236.6 c 7.4,-15.9 18.3,-28.6 32.4,-37.8 14.2,-9.2 30.1,-14 47.4,-14 24.7,0 45.1,8.3 60.8,24.6 15.5,16.2 23.4,36.2 23.4,59.6 0,10.1 -3,22.1 -9,36.6 l -399.7,943.6" /></g><g
         transform="scale(2.43829)"
         id="g322"><path
           id="path324"
           style="fill:#ffffff;fill-opacity:1;fill-rule:nonzero;stroke:none"
           d="m 14446,16300 c -23.7,0 -43.8,-8.5 -59.9,-25.4 -16.1,-16.6 -24.3,-36.9 -24.3,-60.3 v -802.6 l -578.8,835.9 c -26.6,34.8 -59.2,52.4 -96.9,52.4 h -20.4 c -31.9,0 -59.5,-11.7 -81.9,-34.7 -22.2,-22.8 -33.6,-50.5 -33.6,-82.3 v -935.5 c 0,-23.5 8.2,-43.6 24.3,-59.8 32.2,-32.2 86.6,-32.4 120.2,-0.2 16.8,16.1 25.3,36.3 25.3,60 v 804.1 l 581.9,-840.5 c 10.6,-14 24.2,-25.6 40.5,-34.3 16.6,-8.9 34.6,-13.5 53.5,-13.5 h 18.8 c 31.8,0 59.4,11.4 82.3,33.7 23.1,22.4 34.8,49.9 34.8,81.8 v 935.5 c 0,23.5 -8.5,43.8 -25.2,60.5 -16.7,16.7 -37.1,25.2 -60.6,25.2" /></g><g
         transform="scale(2.43712)"
         id="g326"><path
           id="path328"
           style="fill:#ffffff;fill-opacity:1;fill-rule:nonzero;stroke:none"
           d="m 15601.6,16276.4 c -15.8,15.6 -35.1,23.6 -57.5,23.6 h -780.7 c -22.7,0 -41.8,-8 -57,-23.8 -14.9,-15.7 -22.6,-34.9 -22.6,-57.2 0,-22.5 7.7,-41.5 22.8,-56.7 15.2,-15.1 34.3,-22.9 56.8,-22.9 h 306.1 v -884.6 c 0,-23.5 8.3,-43.7 24.4,-59.8 16.1,-16.1 36.3,-24.4 59.8,-24.4 23.5,0 43.7,8.2 60.4,24.2 16.9,16.2 25.3,36.4 25.3,60 v 884.6 h 304.7 c 22.3,0 41.6,7.7 57.2,22.7 15.8,15.1 23.8,34.3 23.8,56.9 0,22.5 -7.9,41.8 -23.5,57.4" /></g><g
         transform="scale(2.68382)"
         id="g330"><path
           id="path332"
           style="fill:#fe5722;fill-opacity:1;fill-rule:nonzero;stroke:none"
           d="M 16300,11314.5 V 9926.07 c 0,-423.65 -344.5,-766.89 -768.2,-766.89 -423.6,0 -766.9,343.24 -766.9,766.89 V 11314.5 H 16300" /></g><g
         transform="scale(2.56934)"
         id="g334"><path
           id="path336"
           style="fill:#ffffff;fill-opacity:1;fill-rule:nonzero;stroke:none"
           d="m 16223.5,9566.65 c -361.9,0 -668.3,240.91 -767.4,570.85 0,0.2 0.1,0.5 0.1,0.7 98.9,-330.28 405.1,-570.93 767.6,-570.93 25.7,0 51.1,1.21 76.2,3.54 -25.5,-2.57 -51,-4.16 -76.5,-4.16" /></g><g
         transform="scale(2.46156)"
         id="g338"><path
           id="path340"
           style="fill:#40528d;fill-opacity:1;fill-rule:nonzero;stroke:none"
           d="m 16300,12336.1 h -134.5 v 0.1 h 134.5" /></g><g
         transform="scale(2.44125)"
         id="g342"><path
           id="path344"
           style="fill:#40528d;fill-opacity:1;fill-rule:nonzero;stroke:none"
           d="m 16267.1,10669.5 c -23.1,76.7 -35.5,158 -35.5,242.3 v 1527 h 68.4 v 0 h -68 v -1526.4 c 0,-84.2 12.3,-165.5 35.3,-242.2 -0.1,-0.2 -0.2,-0.5 -0.2,-0.7" /></g><g
         transform="scale(2.57256)"
         id="g346"><path
           id="path348"
           style="fill:#fe794e;fill-opacity:1;fill-rule:nonzero;stroke:none"
           d="m 16203.6,9555.31 c -362.1,0 -667.9,240.35 -766.7,570.19 -21.7,72.8 -33.4,150 -33.4,229.9 v 1448.5 h 64.5 128.7 v -1449.1 c 0,-407.81 307.2,-745.92 703.3,-793.69 -6.8,-0.82 -13.6,-1.56 -20.4,-2.26 -25,-2.33 -50.4,-3.54 -76,-3.54" /></g><g
         transform="scale(2.68376)"
         id="g350"><path
           id="path352"
           style="fill:#d1432f;fill-opacity:1;fill-rule:nonzero;stroke:none"
           d="M 16300,11314.8 V 9925.74 c 0,-423.1 -343.9,-766.95 -768.1,-766.95 -50.8,0 -101.5,4.96 -149.7,14.87 351.2,70.46 617.2,380.99 617.2,752.08 v 1389.06 h 300.6" /></g><g
         transform="scale(2.69401)"
         id="g354"><path
           id="path356"
           style="fill:#102770;fill-opacity:1;fill-rule:nonzero;stroke:none"
           d="M 14770.7,11210.1 V 9888.54 c 0,-387.3 315.1,-702.41 702.4,-702.41 388,0 703.7,315.11 703.7,702.41 v 1321.56 z m 702.4,-2147.17 c -455.2,0 -825.6,370.38 -825.6,825.61 v 1383.16 c 0,34 27.5,61.6 61.6,61.6 h 1529.3 c 34.1,0 61.6,-27.6 61.6,-61.6 V 9888.54 c 0,-455.23 -370.9,-825.61 -826.9,-825.61" /></g><g
         transform="scale(2.17835)"
         id="g358"><path
           id="path360"
           style="fill:#fe5722;fill-opacity:1;fill-rule:nonzero;stroke:none"
           d="m 16300,13940.3 v -1710.6 c 0,-521.9 -424.5,-944.9 -946.5,-944.9 -522,0 -944.9,423 -944.9,944.9 v 1710.6 H 16300" /></g><g
         transform="scale(2.06382)"
         id="g362"><path
           id="path364"
           style="fill:#ffffff;fill-opacity:1;fill-rule:nonzero;stroke:none"
           d="m 16205.1,11910.3 c -546.2,0 -991,440.9 -997.2,985.8 0,3.9 0,7.9 0,11.9 v 1724.9 h 0.3 v -1724.6 c 0,-550.8 446.4,-997.2 997.4,-997.2 31.8,0 63.3,1.5 94.4,4.4 -31.6,-3.2 -63.2,-5.2 -94.9,-5.2" /></g><g
         transform="scale(1.95609)"
         id="g366"><path
           id="path368"
           style="fill:#40528d;fill-opacity:1;fill-rule:nonzero;stroke:none"
           d="m 16045.8,15438.8 h -0.2 v 85.1 h -0.2 v 0.4 h 254.6 -254.2 v -85.5" /></g><g
         transform="scale(2.06709)"
         id="g370"><path
           id="path372"
           style="fill:#fe794e;fill-opacity:1;fill-rule:nonzero;stroke:none"
           d="m 16180,11892.2 c -550.1,0 -995.8,445.7 -995.8,995.7 v 1721.8 80.9 h 240.5 v -1803.4 c 0,-507.5 382.2,-928.3 875.3,-987.7 -8.6,-1 -17.2,-2 -25.7,-2.9 -31,-2.9 -62.5,-4.4 -94.3,-4.4" /></g><g
         transform="scale(2.17828)"
         id="g374"><path
           id="path376"
           style="fill:#d1432f;fill-opacity:1;fill-rule:nonzero;stroke:none"
           d="m 16300,13940.8 v -1711.4 c 0,-521.3 -423.6,-945 -946.4,-945 -62.5,0 -124.9,6.1 -184.4,18.4 432.8,86.8 760.5,469.4 760.5,926.6 v 1711.4 h 370.3" /></g><g
         transform="scale(2.18853)"
         id="g378"><path
           id="path380"
           style="fill:#102770;fill-opacity:1;fill-rule:nonzero;stroke:none"
           d="m 14417.4,13799.6 v -1626.8 c 0,-476.8 387.9,-864.6 864.7,-864.6 477.7,0 866.2,387.8 866.2,864.6 v 1626.8 z m 864.7,-2643.1 c -560.5,0 -1016.4,455.9 -1016.4,1016.3 v 1702.7 c 0,41.8 33.9,75.8 75.9,75.8 h 1882.6 c 41.9,0 75.8,-34 75.8,-75.8 v -1702.7 c 0,-560.4 -456.6,-1016.3 -1017.9,-1016.3" /></g><g
         transform="scale(1.86295)"
         id="g382"><path
           id="path384"
           style="fill:#fe5722;fill-opacity:1;fill-rule:nonzero;stroke:none"
           d="m 14638.7,16300 v -2000.2 c 0,-610.3 -496.4,-1104.8 -1106.7,-1104.8 -610.3,0 -1104.9,494.5 -1104.9,1104.8 V 16300 h 2211.6" /></g><g
         transform="scale(1.85277)"
         id="g386"><path
           id="path388"
           style="fill:#fe794e;fill-opacity:1;fill-rule:nonzero;stroke:none"
           d="m 13384.5,13381.3 c -456.8,101.6 -799.5,510.1 -799.5,997.1 V 16300 h 178.8 v -1922.4 c 0,-436.2 253,-815 620.7,-996.3" /></g><g
         transform="scale(1.86296)"
         id="g390"><path
           id="path392"
           style="fill:#d1432f;fill-opacity:1;fill-rule:nonzero;stroke:none"
           d="m 14638.1,16300 v -2001.1 c 0,-609.5 -495.4,-1104.8 -1106.6,-1104.8 -73.1,0 -146.1,7.1 -215.6,21.4 506.1,101.5 889.2,548.9 889.2,1083.4 V 16300 h 433" /></g><g
         transform="scale(1.87314)"
         id="g394"><path
           id="path396"
           style="fill:#102770;fill-opacity:1;fill-rule:nonzero;stroke:none"
           d="M 12448.2,16122.8 V 14222 c 0,-557 453.2,-1010.2 1010.3,-1010.2 558,0 1012,453.2 1012,1010.2 v 1900.8 h -2022.3 m 1010.3,-3088.2 c -654.8,0 -1187.5,532.7 -1187.5,1187.4 v 1989.4 c 0,48.9 39.6,88.6 88.5,88.6 h 2199.6 c 49,0 88.6,-39.7 88.6,-88.6 V 14222 c 0,-654.7 -533.5,-1187.4 -1189.2,-1187.4" /></g><g
         transform="scale(1.86295)"
         id="g398"><path
           id="path400"
           style="fill:#fe5722;fill-opacity:1;fill-rule:nonzero;stroke:none"
           d="m 10215.1,16300 v -2000.2 c 0,-610.3 -496.33,-1104.8 -1106.65,-1104.8 -610.37,0 -1104.86,494.5 -1104.86,1104.8 V 16300 h 2211.51" /></g><g
         transform="scale(1.85277)"
         id="g402"><path
           id="path404"
           style="fill:#fe794e;fill-opacity:1;fill-rule:nonzero;stroke:none"
           d="m 8936.63,13381.3 c -456.83,101.6 -799.45,510.1 -799.45,997.1 V 16300 h 178.71 v -1922.4 c 0,-436.2 253.02,-815 620.74,-996.3" /></g><g
         transform="scale(1.86296)"
         id="g406"><path
           id="path408"
           style="fill:#d1432f;fill-opacity:1;fill-rule:nonzero;stroke:none"
           d="m 10214.6,16300 v -2001.1 c 0,-609.5 -495.43,-1104.8 -1106.66,-1104.8 -73.06,0 -146.11,7.1 -215.63,21.4 506.08,101.5 889.18,548.9 889.18,1083.4 V 16300 h 433.11" /></g><g
         transform="scale(1.87314)"
         id="g410"><path
           id="path412"
           style="fill:#102770;fill-opacity:1;fill-rule:nonzero;stroke:none"
           d="M 8048.7,16122.8 V 14222 c 0,-557 453.2,-1010.2 1010.23,-1010.2 558.1,0 1012.07,453.2 1012.07,1010.2 v 1900.8 H 8048.7 m 1010.23,-3088.2 c -654.73,0 -1187.47,532.7 -1187.47,1187.4 v 1989.4 c 0,48.9 39.66,88.6 88.62,88.6 h 2199.52 c 49,0 88.6,-39.7 88.6,-88.6 V 14222 c 0,-654.7 -533.47,-1187.4 -1189.27,-1187.4" /></g><g
         transform="scale(1.86422)"
         id="g414"><path
           id="path416"
           style="fill:#fe5722;fill-opacity:1;fill-rule:nonzero;stroke:none"
           d="m 5787.67,16300 v -1998.9 c 0,-609.9 -496.08,-1104.1 -1105.97,-1104.1 -609.94,0 -1104.12,494.2 -1104.12,1104.1 V 16300 h 2210.09" /></g><g
         transform="scale(1.85404)"
         id="g418"><path
           id="path420"
           style="fill:#fe794e;fill-opacity:1;fill-rule:nonzero;stroke:none"
           d="m 4485.69,13383.3 c -456.54,101.5 -798.89,509.7 -798.89,996.4 V 16300 h 178.57 v -1921.1 c 0,-435.9 252.88,-814.4 620.32,-995.6" /></g><g
         transform="scale(1.86423)"
         id="g422"><path
           id="path424"
           style="fill:#d1432f;fill-opacity:1;fill-rule:nonzero;stroke:none"
           d="m 5787.06,16300 v -1999.7 c 0,-609.1 -495.05,-1104.1 -1105.83,-1104.1 -73.05,0 -146.04,7.1 -215.47,21.3 505.71,101.5 888.55,548.5 888.55,1082.8 V 16300 h 432.75" /></g><g
         transform="scale(1.8744)"
         id="g426"><path
           id="path428"
           style="fill:#102770;fill-opacity:1;fill-rule:nonzero;stroke:none"
           d="m 3646.74,16122.9 v -1899.5 c 0,-556.7 452.89,-1009.5 1009.56,-1009.5 557.7,0 1011.37,452.8 1011.37,1009.5 v 1899.5 H 3646.74 M 4656.3,13036.8 c -654.31,0 -1186.67,532.3 -1186.67,1186.6 v 1988 c 0,49 39.61,88.6 88.55,88.6 h 2198.05 c 48.92,0 88.56,-39.6 88.56,-88.6 v -1988 c 0,-654.3 -533.16,-1186.6 -1188.49,-1186.6" /></g><g
         transform="scale(1.92555)"
         id="g430"><path
           id="path432"
           style="fill:#ffca28;fill-opacity:1;fill-rule:nonzero;stroke:none"
           d="m 16300,15770.1 v -1935.2 c 0,-590.5 -478.5,-1068.9 -1070.8,-1068.9 -590.4,0 -1068.9,478.4 -1068.9,1068.9 v 1935.2 H 16300" /></g><g
         transform="scale(1.81063)"
         id="g434"><path
           id="path436"
           style="fill:#ffffff;fill-opacity:1;fill-rule:nonzero;stroke:none"
           d="m 16195.5,13575.4 c -512,0 -945.7,339.8 -1087.7,805.9 0.1,0.2 0.1,0.4 0.2,0.6 141.6,-466.4 575,-805.6 1087.8,-805.6 35,0 69.6,1.5 103.7,4.6 0.2,-0.1 0.3,-0.1 0.5,-0.1 -34.8,-3.7 -69.7,-5.4 -104.5,-5.4" /></g><g
         transform="scale(1.86296)"
         id="g438"><path
           id="path440"
           style="fill:#40528d;fill-opacity:1;fill-rule:nonzero;stroke:none"
           d="m 14837.2,16299.9 h -109.4 v 0.1 h 109.4" /></g><g
         transform="scale(1.86296)"
         id="g442"><path
           id="path444"
           style="fill:#40528d;fill-opacity:1;fill-rule:nonzero;stroke:none"
           d="m 14683.5,13977.3 c -31,101.8 -47.7,209.8 -47.7,321.6 V 16300 h 92 v -0.1 h -91.7 v -2000.2 c 0,-111.9 16.6,-219.9 47.5,-321.7 0,-0.2 -0.1,-0.4 -0.1,-0.7" /></g><g
         transform="scale(1.86295)"
         id="g446"><path
           id="path448"
           style="fill:#ffd553;fill-opacity:1;fill-rule:nonzero;stroke:none"
           d="m 15741,13195 c -498.4,0 -919.6,329.7 -1057.3,783 -30.9,101.8 -47.6,209.9 -47.6,321.8 V 16300 h 91.7 109.4 v -2001 c 0,-575.5 441.7,-1049.3 1004.5,-1099.5 -33.1,-3 -66.7,-4.5 -100.7,-4.5" /></g><g
         transform="scale(1.9255)"
         id="g450"><path
           id="path452"
           style="fill:#ffa726;fill-opacity:1;fill-rule:nonzero;stroke:none"
           d="m 16300,15770.6 v -1936.1 c 0,-589.7 -477.5,-1069 -1070.6,-1069 -62.1,0 -124.2,5.2 -182.8,17.3 505.2,86.2 887.9,524.1 887.9,1051.7 v 1936.1 h 365.5" /></g><g
         transform="scale(1.93574)"
         id="g454"><path
           id="path456"
           style="fill:#102770;fill-opacity:1;fill-rule:nonzero;stroke:none"
           d="m 14171.6,15601.4 v -1839.3 c 0,-539 438.6,-977.6 977.6,-977.6 540,0 979.3,438.6 979.3,977.6 v 1839.3 z m 977.6,-2988.3 c -633.6,0 -1149.1,515.4 -1149.1,1149 v 1925 c 0,47.3 38.3,85.8 85.8,85.8 h 2128.3 c 47.4,0 85.8,-38.5 85.8,-85.8 v -1925 c 0,-633.6 -516.3,-1149 -1150.8,-1149" /></g><g
         transform="scale(1.86295)"
         id="g458"><path
           id="path460"
           style="fill:#ffca28;fill-opacity:1;fill-rule:nonzero;stroke:none"
           d="m 12425.4,16300 v -2000.2 c 0,-610.3 -494.5,-1104.8 -1106.7,-1104.8 -610.3,0 -1104.9,494.5 -1104.9,1104.8 V 16300 h 2211.6" /></g><g
         transform="scale(1.59782)"
         id="g462"><path
           id="path464"
           style="fill:#ffffff;fill-opacity:1;fill-rule:nonzero;stroke:none"
           d="m 13196.5,15383.5 c -581.1,0 -1073.3,386.3 -1233.4,915.8 0.2,0.2 0.2,0.5 0.3,0.7 159.7,-529.8 651.4,-915.5 1233.5,-915.5 39.6,0 78.8,1.8 117.5,5.3 0.1,-0.1 0.3,-0.1 0.5,-0.1 -39.5,-4.2 -79,-6.2 -118.4,-6.2" /></g><g
         transform="scale(1.86296)"
         id="g466"><path
           id="path468"
           style="fill:#40528d;fill-opacity:1;fill-rule:nonzero;stroke:none"
           d="m 10414.9,16299.9 h -110.7 v 0.1 h 110.7" /></g><g
         transform="scale(1.86296)"
         id="g470"><path
           id="path472"
           style="fill:#40528d;fill-opacity:1;fill-rule:nonzero;stroke:none"
           d="m 10260.5,13979.5 c -30.5,101.1 -47,208.4 -47,319.4 V 16300 h 90.7 v -0.1 h -90.4 v -2000.2 c 0,-111.1 16.4,-218.4 46.9,-319.6 0,-0.2 -0.1,-0.4 -0.2,-0.6" /></g><g
         transform="scale(1.86295)"
         id="g474"><path
           id="path476"
           style="fill:#ffd553;fill-opacity:1;fill-rule:nonzero;stroke:none"
           d="m 11318.7,13195 c -499.2,0 -920.9,330.7 -1057.9,785.2 -30.5,101.1 -47,208.5 -47,319.6 V 16300 h 90.4 110.7 v -2001 c 0,-575.5 441.7,-1049.3 1004.6,-1099.5 -33.2,-3 -66.8,-4.5 -100.8,-4.5" /></g><g
         transform="scale(1.86296)"
         id="g478"><path
           id="path480"
           style="fill:#ffa726;fill-opacity:1;fill-rule:nonzero;stroke:none"
           d="m 12424.9,16300 v -2001.1 c 0,-609.5 -493.6,-1104.8 -1106.5,-1104.8 -64.2,0 -128.4,5.3 -189,17.8 522.2,89.1 917.8,541.7 917.8,1087 V 16300 h 377.7" /></g><g
         transform="scale(1.87314)"
         id="g482"><path
           id="path484"
           style="fill:#102770;fill-opacity:1;fill-rule:nonzero;stroke:none"
           d="M 10246.9,16122.8 V 14222 c 0,-557 453.2,-1010.2 1010.3,-1010.2 558.1,0 1012,453.2 1012,1010.2 v 1900.8 z m 1010.3,-3088.2 c -654.8,0 -1187.5,532.7 -1187.5,1187.4 v 1989.4 c 0,48.9 39.7,88.6 88.6,88.6 h 2199.5 c 49,0 88.7,-39.7 88.7,-88.6 V 14222 c 0,-654.7 -533.5,-1187.4 -1189.3,-1187.4" /></g><g
         transform="scale(1.86295)"
         id="g486"><path
           id="path488"
           style="fill:#ffca28;fill-opacity:1;fill-rule:nonzero;stroke:none"
           d="m 8003.11,16300 v -2000.2 c 0,-610.3 -494.54,-1104.8 -1106.69,-1104.8 -610.37,0 -1104.86,494.5 -1104.86,1104.8 V 16300 h 2211.55" /></g><g
         transform="scale(1.59868)"
         id="g490"><path
           id="path492"
           style="fill:#ffffff;fill-opacity:1;fill-rule:nonzero;stroke:none"
           d="m 8036.03,15375.2 c -583.98,0 -1078.08,390.4 -1235.27,924 0.06,0.3 0.18,0.5 0.25,0.8 156.88,-534 650.54,-923.8 1235.46,-923.8 39.59,0 78.75,1.8 117.41,5.3 0.18,-0.1 0.37,-0.1 0.56,-0.1 -39.47,-4.2 -78.94,-6.2 -118.41,-6.2" /></g><g
         transform="scale(1.86296)"
         id="g494"><path
           id="path496"
           style="fill:#40528d;fill-opacity:1;fill-rule:nonzero;stroke:none"
           d="M 5992.62,16299.9 H 5880.7 v 0.1 h 111.92" /></g><g
         transform="scale(1.86296)"
         id="g498"><path
           id="path500"
           style="fill:#40528d;fill-opacity:1;fill-rule:nonzero;stroke:none"
           d="m 5835.99,13987 c -29.15,98.9 -44.77,203.7 -44.77,311.9 V 16300 h 89.48 v -0.1 h -89.16 v -2000.2 c 0,-108.4 15.57,-213.1 44.67,-312 -0.06,-0.3 -0.17,-0.5 -0.22,-0.7" /></g><g
         transform="scale(1.86295)"
         id="g502"><path
           id="path504"
           style="fill:#ffd553;fill-opacity:1;fill-rule:nonzero;stroke:none"
           d="m 6896.42,13195 c -501.94,0 -925.57,334.4 -1060.19,792.7 -29.1,99 -44.67,203.7 -44.67,312.1 V 16300 h 89.16 111.92 v -2001 c 0,-575.5 441.67,-1049.3 1004.54,-1099.5 -33.17,-3 -66.78,-4.5 -100.76,-4.5" /></g><g
         transform="scale(1.86296)"
         id="g506"><path
           id="path508"
           style="fill:#ffa726;fill-opacity:1;fill-rule:nonzero;stroke:none"
           d="m 8002.65,16300 v -2001.1 c 0,-609.5 -493.62,-1104.8 -1106.62,-1104.8 -64.09,0 -128.29,5.3 -188.9,17.8 522.18,89.1 917.74,541.7 917.74,1087 V 16300 h 377.78" /></g><g
         transform="scale(1.87314)"
         id="g510"><path
           id="path512"
           style="fill:#102770;fill-opacity:1;fill-rule:nonzero;stroke:none"
           d="M 5848.64,16122.8 V 14222 c 0,-557 453.2,-1010.2 1010.24,-1010.2 558.1,0 1012.09,453.2 1012.09,1010.2 v 1900.8 z m 1010.24,-3088.2 c -654.74,0 -1187.48,532.7 -1187.48,1187.4 v 1989.4 c 0,48.9 39.67,88.6 88.62,88.6 h 2199.52 c 49.01,0 88.63,-39.7 88.63,-88.6 V 14222 c 0,-654.7 -533.5,-1187.4 -1189.29,-1187.4" /></g><g
         transform="scale(2.62668)"
         id="g514"><path
           id="path516"
           style="fill:#f14795;fill-opacity:1;fill-rule:nonzero;stroke:none"
           d="m 7608.96,15730.5 c -55.65,0 -94.56,17.9 -114.44,66.8 -72.75,155.2 222.45,441.4 692.29,494.3 50.29,5.7 99.32,8.4 146.72,8.4 395.48,0 678.88,-186.8 646.1,-336.7 -13.89,-83.6 -95.25,-99.9 -220.89,-99.9 -40.46,0 -85.5,1.6 -134.42,3.3 -48.89,1.7 -101.58,3.4 -157.35,3.4 -72.45,0 -150.04,-2.8 -231.09,-12.3 -279.4,-31.2 -498.01,-127.3 -626.92,-127.3" /></g><g
         transform="scale(2.55667)"
         id="g518"><path
           id="path520"
           style="fill:#f14795;fill-opacity:1;fill-rule:nonzero;stroke:none"
           d="m 7024.91,15713 c -31.14,0 -62.58,16.6 -97.63,58.6 -116.17,134.2 -79.52,355.6 95.91,469.2 62.58,40.5 129.93,59.2 194.08,59.2 116.09,0 221.85,-61.2 270.62,-164.7 78.54,-159.9 -71.65,-174.1 -220.79,-270.9 -103.61,-67 -171.98,-151.4 -242.19,-151.4" /></g><g
         transform="scale(1.35767)"
         id="g522"><path
           id="path524"
           style="fill:#4eb9f3;fill-opacity:1;fill-rule:nonzero;stroke:none"
           d="m 8110.74,13788.9 c -310.01,0 -561.4,562.1 -561.4,1255.5 0,693.5 251.39,1255.6 561.4,1255.6 310.09,0 220.45,-562.1 220.45,-1255.6 0,-693.4 89.64,-1255.5 -220.45,-1255.5" /></g><g
         transform="scale(1.11719)"
         id="g526"><path
           id="path528"
           style="fill:#4eb9f3;fill-opacity:1;fill-rule:nonzero;stroke:none"
           d="m 9856.6,14993 c -376.74,0 -682.24,292.6 -682.24,653.5 0,360.9 305.5,653.5 682.24,653.5 376.8,0 267.9,-292.6 267.9,-653.5 0,-360.9 108.9,-653.5 -267.9,-653.5" /></g><g
         transform="scale(1.7973)"
         id="g530"><path
           id="path532"
           style="fill:#fe794e;fill-opacity:1;fill-rule:nonzero;stroke:none"
           d="m 4675.26,15062.3 c -152.84,0 -276.74,277 -276.74,618.8 0,341.8 123.9,618.9 276.74,618.9 152.84,0 108.63,-277.1 108.63,-618.9 0,-341.8 44.21,-618.8 -108.63,-618.8" /></g><g
         transform="scale(1.64039)"
         id="g534"><path
           id="path536"
           style="fill:#fe794e;fill-opacity:1;fill-rule:nonzero;stroke:none"
           d="m 5122.48,15719.1 c -167.46,0 -303.21,130 -303.21,290.4 0,160.5 135.75,290.5 303.21,290.5 167.46,0 119.02,-130 119.02,-290.5 0,-160.4 48.44,-290.4 -119.02,-290.4" /></g><g
         transform="scale(2.11069)"
         id="g538"><path
           id="path540"
           style="fill:#9fa1ab;fill-opacity:1;fill-rule:nonzero;stroke:none"
           d="m 16078.8,4476.41 c -221.1,0 -400.4,400.91 -400.4,895.54 0,494.58 179.3,895.49 400.4,895.49 221.2,0 157.2,-400.91 157.2,-895.49 0,-494.63 64,-895.54 -157.2,-895.54" /></g><g
         transform="scale(2.11069)"
         id="g542"><path
           id="path544"
           style="fill:#9fa1ab;fill-opacity:1;fill-rule:nonzero;stroke:none"
           d="m 16078.8,3441.11 c -221.1,0 -400.4,171.74 -400.4,383.57 0,211.83 179.3,383.57 400.4,383.57 221.2,0 157.2,-171.74 157.2,-383.57 0,-211.83 64,-383.57 -157.2,-383.57" /></g><g
         transform="scale(2.66066)"
         id="g546"><path
           id="path548"
           style="fill:#22a7f0;fill-opacity:1;fill-rule:nonzero;stroke:none"
           d="m 16237.1,15034.8 c -34,0 -61.8,27.3 -62.4,61.4 l -9.1,583.1 c -0.5,34.4 27,62.8 61.4,63.4 35.5,1 62.9,-27 63.4,-61.5 l 9.1,-583 c 0.5,-34.5 -27,-62.8 -61.4,-63.4 h -1" /></g><g
         transform="scale(2.70753)"
         id="g550"><path
           id="path552"
           style="fill:#22a7f0;fill-opacity:1;fill-rule:nonzero;stroke:none"
           d="m 15665,15056.5 c -33.5,0 -60.8,26.9 -61.3,60.5 -0.5,33.8 26.5,61.7 60.4,62.2 l 573.2,8.5 c 33,0.8 61.7,-26.6 62.2,-60.4 0.5,-33.8 -26.5,-61.7 -60.4,-62.2 l -573.2,-8.6 h -0.9" /></g><g
         transform="scale(2.85445)"
         id="g554"><path
           id="path556"
           style="fill:#ffca28;fill-opacity:1;fill-rule:nonzero;stroke:none"
           d="m 15982.6,13109.8 c -11.3,0 -22.9,-1.1 -34.4,-3.2 -103.9,-18.9 -173,-118.8 -154,-222.7 9.2,-50.3 37.4,-94 79.5,-123.1 42,-29.1 93.1,-40 143.2,-30.8 50.3,9.1 94,37.4 123.1,79.4 29,42.1 40,93 30.9,143.3 -16.9,92.2 -97.6,157.1 -188.3,157.1 z m -0.7,-499.3 c -61.9,0 -122.3,18.7 -174.4,54.7 -67.6,46.7 -113,117 -127.7,197.9 -30.5,166.9 80.6,327.4 247.4,358 166.5,30.2 327.5,-80.6 358.1,-247.5 14.7,-80.9 -2.9,-162.7 -49.6,-230.3 -46.8,-67.6 -117.1,-113 -197.9,-127.8 -18.7,-3.3 -37.3,-5 -55.9,-5" /></g><g
         transform="scale(2.75953)"
         id="g558"><path
           id="path560"
           style="fill:#ed197b;fill-opacity:1;fill-rule:nonzero;stroke:none"
           d="m 16012.1,16165.2 c 14.7,-81 -39,-158.7 -120,-173.5 -81.1,-14.8 -158.7,38.9 -173.6,120 -14.8,81 39,158.7 120,173.5 81,14.8 158.7,-38.9 173.6,-120" /></g><g
         transform="scale(2.84242)"
         id="g562"><path
           id="path564"
           style="fill:#fe5722;fill-opacity:1;fill-rule:nonzero;stroke:none"
           d="m 13523.3,16088.7 c 23.2,-127.1 -61,-249 -188.1,-272.2 -127.1,-23.2 -249,61.1 -272.2,188.2 -23.2,127.1 61.1,248.9 188.2,272.1 127.1,23.2 248.9,-61 272.1,-188.1" /></g><g
         transform="scale(2.5759)"
         id="g566"><path
           id="path568"
           style="fill:#22a7f0;fill-opacity:1;fill-rule:nonzero;stroke:none"
           d="m 2671.68,15568.2 c -0.31,0 -0.63,0 -1.01,0 -35.55,0.6 -63.99,29.9 -63.43,65.5 l 9.32,602.2 c 0.62,35.6 24.79,64.1 65.44,63.5 35.56,-0.6 64,-29.9 63.43,-65.5 l -9.31,-602.2 c -0.57,-35.3 -29.32,-63.5 -64.44,-63.5" /></g><g
         transform="scale(2.52913)"
         id="g570"><path
           id="path572"
           style="fill:#22a7f0;fill-opacity:1;fill-rule:nonzero;stroke:none"
           d="m 3032.58,16158.1 h -0.96 l -613.68,9.1 c -36.28,0.6 -65.18,30.4 -64.67,66.6 0.51,36.3 26.79,66.2 66.59,64.7 l 613.68,-9.1 c 36.28,-0.6 65.18,-30.4 64.67,-66.6 -0.51,-36 -29.8,-64.7 -65.63,-64.7" /></g><g
         transform="scale(2.32666)"
         id="g574"><path
           id="path576"
           style="fill:#ffca28;fill-opacity:1;fill-rule:nonzero;stroke:none"
           d="m 1917.58,16126.5 c -111.19,0 -210.26,-79.5 -230.95,-192.7 -23.2,-127.4 61.51,-250 188.94,-273.3 61.38,-11.2 124.01,2.2 175.7,37.9 51.63,35.6 86.18,89.3 97.47,151 11.22,61.8 -2.16,124.2 -37.83,175.8 -35.67,51.6 -89.31,86.2 -151.04,97.4 -14.22,2.6 -28.36,3.9 -42.29,3.9 z m 0.98,-612.6 c -22.79,0 -45.71,2.1 -68.63,6.3 -204.83,37.4 -341.03,234.4 -303.62,439.2 37.41,204.8 234.37,340.6 439.2,303.6 99.21,-18.1 185.39,-73.7 242.73,-156.7 57.33,-83 78.93,-183.3 60.82,-282.5 -18.05,-99.2 -73.72,-185.4 -156.62,-242.8 -63.82,-44.1 -137.95,-67.1 -213.88,-67.1" /></g><g
         transform="scale(2.76565)"
         id="g578"><path
           id="path580"
           style="fill:#ed197b;fill-opacity:1;fill-rule:nonzero;stroke:none"
           d="m 2132.4,16165.5 c -14.76,-80.8 38.83,-158.3 119.7,-173.1 80.87,-14.8 158.39,38.8 173.14,119.7 14.76,80.9 -38.83,158.4 -119.7,173.1 -80.86,14.8 -158.38,-38.8 -173.14,-119.7" /></g><g
         transform="scale(2.84854)"
         id="g582"><path
           id="path584"
           style="fill:#fe5722;fill-opacity:1;fill-rule:nonzero;stroke:none"
           d="m 4087.81,16089.1 c -23.13,-126.8 60.91,-248.4 187.75,-271.5 126.84,-23.2 248.41,60.9 271.54,187.7 23.14,126.8 -60.91,248.4 -187.74,271.6 -126.8,23.1 -248.41,-61 -271.55,-187.8" /></g></g></g></svg>