<?xml version="1.0" encoding="UTF-8" standalone="no"?>
<svg
   xmlns:dc="http://purl.org/dc/elements/1.1/"
   xmlns:cc="http://creativecommons.org/ns#"
   xmlns:rdf="http://www.w3.org/1999/02/22-rdf-syntax-ns#"
   xmlns:svg="http://www.w3.org/2000/svg"
   xmlns="http://www.w3.org/2000/svg"
   viewBox="0 0 2750.8933 2750.8933"
   height="2750.8933"
   width="2750.8933"
   xml:space="preserve"
   id="svg2"
   version="1.1"><metadata
     id="metadata8"><rdf:RDF><cc:Work
         rdf:about=""><dc:format>image/svg+xml</dc:format><dc:type
           rdf:resource="http://purl.org/dc/dcmitype/StillImage" /></cc:Work></rdf:RDF></metadata><defs
     id="defs6"><clipPath
       id="clipPath100"
       clipPathUnits="userSpaceOnUse"><path
         id="path98"
         d="m 6805.38,10739.4 22.25,-12.4 c 0.83,-63.3 2.52,-126.6 5.05,-189.8 53.92,-56.4 169.65,-87.6 167.94,-172.7 -81.9,46.1 -163.18,85.8 -259.23,60.1 -52.32,-14 -94.07,-51.3 -135.9,-83.9 -18.71,136.2 107.78,102.2 157.6,193.2 34.66,63.2 6.61,138.8 42.29,205.5 z" /></clipPath><linearGradient
       id="linearGradient106"
       spreadMethod="pad"
       gradientTransform="matrix(-182.783,267.305,-267.305,-182.783,6849.12,10340)"
       gradientUnits="userSpaceOnUse"
       y2="0"
       x2="1"
       y1="0"
       x1="0"><stop
         id="stop102"
         offset="0"
         style="stop-opacity:1;stop-color:#e7f5f8" /><stop
         id="stop104"
         offset="1"
         style="stop-opacity:1;stop-color:#fffdfa" /></linearGradient><clipPath
       id="clipPath204"
       clipPathUnits="userSpaceOnUse"><path
         id="path202"
         d="m 7279.59,10349.8 c 75.66,57 148.41,86 237.97,115.1 51.62,-34.8 95.42,-70.8 160.86,-66 21.9,-101.2 9.67,-221.9 8.4,-325.7 l -407.53,-1.2 c 0.88,90.7 9.23,187.9 0.3,277.8 z" /></clipPath><linearGradient
       id="linearGradient210"
       spreadMethod="pad"
       gradientTransform="matrix(98.677,-355.393,355.393,98.677,7426.69,10423.4)"
       gradientUnits="userSpaceOnUse"
       y2="0"
       x2="1"
       y1="0"
       x1="0"><stop
         id="stop206"
         offset="0"
         style="stop-opacity:1;stop-color:#e39d13" /><stop
         id="stop208"
         offset="1"
         style="stop-opacity:1;stop-color:#f47515" /></linearGradient><clipPath
       id="clipPath230"
       clipPathUnits="userSpaceOnUse"><path
         id="path228"
         d="m 18209.2,7103.4 c 31.4,1.1 58.5,0.3 89.5,-5.5 13,-42.2 -166.4,-1548.8 -189.4,-1712.3 -28.9,-0.8 -57.1,-2.4 -85.9,-4.9 -7.3,139.3 34,339.8 50.4,482.1 47.5,411.2 108.3,827.8 135.4,1240.6 z" /></clipPath><linearGradient
       id="linearGradient238"
       spreadMethod="pad"
       gradientTransform="matrix(803.167,1326.21,-1326.21,803.167,17762.6,5589.5)"
       gradientUnits="userSpaceOnUse"
       y2="0"
       x2="1"
       y1="0"
       x1="0"><stop
         id="stop234"
         offset="0"
         style="stop-opacity:1;stop-color:#d8f2fa" /><stop
         id="stop236"
         offset="1"
         style="stop-opacity:1;stop-color:#fdfeff" /></linearGradient></defs><g
     transform="matrix(1.3333333,0,0,-1.3333333,0,2750.8933)"
     id="g10"><g
       transform="scale(0.1)"
       id="g12"><g
         transform="scale(1.26575)"
         id="g14"><path
           id="path16"
           style="fill:#ffffff;fill-opacity:1;fill-rule:nonzero;stroke:none"
           d="M 0,16300 H 16300 V 0 H 0 v 16300" /></g><path
         id="path18"
         style="fill:#1e2a31;fill-opacity:1;fill-rule:nonzero;stroke:none"
         d="m 970.414,3169.5 c 189.306,-3 378.216,1.3 567.476,3.4 57.27,0.7 151.72,11.8 194.17,-29.7 10.09,-29.3 10.83,-43.7 6.49,-74.5 -18.85,-26.8 -24.31,-30.6 -53.83,-45 -200.8,2.4 -401.66,-2.1 -602.47,-0.6 -60.01,0.5 -133.746,-5.4 -178.551,39.8 -7.25,26.2 -11.777,39.2 1.723,65.4 14.039,27.2 38.32,33.4 64.992,41.2" /><g
         transform="scale(1.09531)"
         id="g20"><path
           id="path22"
           style="fill:#1e2a31;fill-opacity:1;fill-rule:nonzero;stroke:none"
           d="m 15900.9,8505.61 c 74.5,5.29 144.2,-6.39 210.3,-42.55 5.4,-2.92 10.7,-6.02 15.9,-9.22 5.2,-3.2 10.3,-6.48 15.3,-9.95 5,-3.47 10,-7.03 14.8,-10.78 4.8,-3.65 9.7,-7.48 14.3,-11.41 4.7,-3.93 9.3,-8.03 13.7,-12.14 4.5,-4.2 8.8,-8.49 13.1,-12.87 4.2,-4.29 8.4,-8.86 12.4,-13.42 4,-4.57 8,-9.23 11.7,-14.07 3.8,-4.74 7.5,-9.58 11,-14.6 3.6,-4.93 7.1,-9.95 10.4,-15.16 3.2,-5.11 6.4,-10.31 9.5,-15.61 3.1,-5.3 6,-10.59 8.7,-16.07 2.9,-5.38 5.5,-10.96 8,-16.52 2.5,-5.57 4.9,-11.14 7.1,-16.8 2.2,-5.75 4.3,-11.41 6.3,-17.26 1.9,-5.75 3.7,-11.59 5.4,-17.44 2.7,-10.68 5,-21.45 6.8,-32.4 1.8,-10.87 2.9,-21.83 3.6,-32.87 0.7,-10.96 0.8,-22.01 0.4,-33.05 -0.4,-10.96 -1.3,-22 -2.9,-32.87 -1.4,-10.96 -3.5,-21.82 -6,-32.5 -2.6,-10.78 -5.7,-21.37 -9.2,-31.77 -3.7,-10.41 -7.8,-20.64 -12.4,-30.68 -4.6,-10.04 -9.6,-19.81 -15.2,-29.31 -58.3,-99.05 -150,-148.27 -257.7,-175.66 -90.8,-2.92 -165.1,-0.72 -245.7,48.67 -5.2,3.19 -10.3,6.57 -15.4,10.04 -5,3.47 -9.9,7.12 -14.8,10.87 -4.7,3.65 -9.4,7.48 -14.1,11.5 -4.7,3.92 -9.2,8.03 -13.6,12.23 -4.5,4.11 -8.8,8.49 -13.1,12.87 -4.2,4.39 -8.3,8.86 -12.3,13.52 -3.9,4.56 -7.8,9.31 -11.6,14.15 -3.7,4.75 -7.4,9.67 -10.8,14.7 -3.6,5.02 -7,10.04 -10.2,15.25 -3.3,5.11 -6.4,10.31 -9.4,15.7 -3,5.29 -5.8,10.68 -8.6,16.16 -2.7,5.47 -5.3,10.95 -7.7,16.61 -2.4,5.57 -4.8,11.23 -6.9,16.89 -2.2,5.76 -4.2,11.51 -6,17.26 -1.9,5.84 -3.7,11.69 -5.2,17.62 -1.6,5.84 -3,11.78 -4.3,17.8 -2.2,10.77 -3.9,21.73 -5.1,32.69 -1.2,11.04 -1.7,22 -1.8,33.14 0,11.05 0.4,22.09 1.5,33.05 1,11.05 2.7,21.91 4.9,32.78 2.1,10.86 4.8,21.54 8.1,32.13 3.2,10.59 7,21 11.2,31.23 4.3,10.13 9.1,20.08 14.4,29.85 5.3,9.68 11.1,19.08 17.4,28.21 63,92.21 157.2,139.87 263.8,162.06" /></g><g
         transform="scale(1.0884)"
         id="g24"><path
           id="path26"
           style="fill:#ffffff;fill-opacity:1;fill-rule:nonzero;stroke:none"
           d="m 15992.7,8449.75 c 51.9,3.68 99.1,2.57 148.3,-16.81 65.9,-26.19 119.5,-77.64 144.4,-144.44 2.7,-7.44 5,-14.88 7.1,-22.51 1.9,-7.62 3.5,-15.25 4.7,-23.06 1.2,-7.8 2.1,-15.61 2.4,-23.43 0.4,-7.9 0.4,-15.71 0,-23.61 -0.3,-7.81 -1.2,-15.62 -2.4,-23.43 -1.2,-7.71 -2.8,-15.43 -4.7,-23.06 -2.1,-7.62 -4.4,-15.07 -7.1,-22.42 -2.8,-7.44 -5.9,-14.61 -9.4,-21.68 -38,-78.47 -104.2,-118.43 -183.7,-145.72 -62.2,-9.83 -109.6,-8.73 -167.3,19.3 -7.9,3.95 -15.5,8.26 -22.9,12.95 -7.4,4.69 -14.5,9.83 -21.4,15.25 -6.8,5.51 -13.4,11.3 -19.7,17.46 -6.2,6.16 -12.2,12.58 -17.7,19.39 -5.6,6.79 -10.9,13.87 -15.6,21.13 -4.9,7.35 -9.3,14.88 -13.4,22.69 -4,7.81 -7.6,15.8 -10.8,23.98 -3.2,8.18 -6,16.45 -8.4,24.99 -2.1,7.72 -3.9,15.53 -5.3,23.43 -1.5,7.9 -2.5,15.9 -3.1,23.89 -0.6,8.09 -0.9,16.08 -0.7,24.07 0.1,8.09 0.8,16.08 1.7,24.07 0.9,7.99 2.3,15.9 4,23.8 1.8,7.81 3.9,15.53 6.4,23.24 2.4,7.63 5.3,15.16 8.5,22.52 3.2,7.34 6.8,14.51 10.8,21.49 40.6,72.22 98.8,103.46 175.3,126.52" /></g><path
         id="path28"
         style="fill:#1e2a31;fill-opacity:1;fill-rule:nonzero;stroke:none"
         d="m 2881.92,13557.3 c 18.22,1.4 36.57,2.7 54.87,2.1 155.18,-4.5 254,-108.4 353.66,-213.1 47.51,4.7 96.81,9.4 144.36,3.5 298.65,-36.6 255.52,-289.7 337.68,-343.4 36.69,-24 65.62,4 102.33,-42.6 3.85,-21.5 6.65,-30.7 0.3,-52 l -43.27,-14.5 -1.31,-22.7 -7.86,21 c -111.62,-17.8 -230.19,-9.8 -343.02,-9 l -507.09,3.6 c -173.09,0.3 -901.49,-21.1 -999.62,6.9 -23.6,6.7 -24.43,13.6 -36.39,33.8 -0.94,28.9 2.32,41 16.75,66 46.38,36.7 161.84,17.5 221.19,14.9 12.21,83.1 35.48,163.8 92.79,228.1 77.95,87.5 183.71,104.4 294.12,111.8 96.04,108.1 172,180 320.51,205.6" /><path
         id="path30"
         style="fill:#94bde8;fill-opacity:1;fill-rule:nonzero;stroke:none"
         d="m 2848.78,13426.7 c 364.02,20.4 204.54,-131 409.09,-209 68.6,-26.1 147.74,47.5 229.87,7.2 83.71,-41.1 116.31,-137.7 143.57,-219.8 l -498,-1 -826.43,3 c 17.55,58.2 34.73,122.3 78.84,166.7 64.75,65.1 163.82,54.3 247.76,54.2 71.04,74.2 116.27,157.5 215.3,198.7" /><g
         transform="scale(1.05112)"
         id="g32"><path
           id="path34"
           style="fill:#1e2a31;fill-opacity:1;fill-rule:nonzero;stroke:none"
           d="m 13410.9,16291.5 c 108.7,8.5 216.2,-0.4 317.6,-43.1 185,-78 282.1,-220.1 354.1,-400.3 69.5,-3.6 138.3,-15.4 202.7,-42.7 101.3,-42.9 202.8,-138.3 245.6,-241.5 126.4,-14 243.5,-43.5 335.5,-138.2 81.8,-84.1 104.2,-177.9 103.5,-291.1 103.4,-1 208.7,10.4 311.5,-3.1 20.3,-12.7 24.2,-23.7 33,-45.4 -4.9,-23.1 -7.6,-27.9 -29.3,-41.3 -26.8,-16.6 -77,-18.5 -107.4,-19.3 -139.3,-3.4 -280,4 -419.6,3.2 l -1632.6,-0.7 -647.8,-0.7 c -124.1,-0.1 -265.8,-14.1 -386.7,11.5 l -11.2,22.1 c 1,30.2 1.5,36.8 16.8,62.6 57,31.3 1215.8,17.1 1387.6,17.3 l 1377.1,-0.1 c -51.9,390.9 -244.1,225 -388.5,312.4 -57.9,35 -94.5,154.5 -146.8,207.2 -94,95.1 -183.6,36.5 -292.3,52.9 -47.9,7.2 -96.1,185.7 -123.8,233.4 -65.4,112.8 -181.5,196.3 -308.4,224.8 -124.4,27.9 -268.7,0.7 -374.5,-70.8 -133.8,-90.3 -156.8,-209.3 -185.2,-355.5 -5.2,-26.8 -11.2,-62.2 -32.7,-81.4 -21.7,-19.2 -224.4,6.3 -328.4,-68.7 -119,-85.8 -99.4,-206.9 -120.7,-331.9 -6.2,-36.3 -23.9,-45.7 -52.1,-64.6 -28.1,-1.8 -29.5,1.2 -53.4,16.8 -13.3,21.4 -19.7,37.8 -20.7,63.3 -4.1,126.3 57.4,288.5 145,379.3 91.4,94.7 219.4,124 345.5,122.6 16.4,89.3 37.3,172.6 86,250.5 92.8,148.5 235.3,221.6 400.6,260.5" /></g><g
         transform="scale(1.13194)"
         id="g36"><path
           id="path38"
           style="fill:#1e2a31;fill-opacity:1;fill-rule:nonzero;stroke:none"
           d="m 14836.1,13508.5 c 65.2,4.8 130.5,6.7 194.2,-10.3 145.4,-38.6 232.3,-148.4 302,-273 31.7,-2.3 63.2,-6.3 94.5,-11.9 137.7,-25.7 210.1,-110.3 285.4,-218.9 77.3,0.2 142.6,-7.7 205.4,-58.5 66,-53.4 83.4,-120.7 91.7,-200.6 68.1,-0.3 136,2.1 204.1,2.4 27.7,0.1 54.3,-0.5 72.7,-25.5 13.9,-18.9 10.7,-30 7.3,-51 -23.3,-19.7 -37.4,-22.5 -68.1,-26.2 -125.8,-15.3 -263.5,-4.7 -390.3,-4.9 l -781,-0.7 -1027.1,1 c -91.9,-0.1 -333.3,-14.3 -410,1.1 -24.7,4.9 -26.4,10.6 -39.7,30.2 1,21.7 0.2,33.6 16.4,50.6 30.2,31.6 476,18.2 561.5,18.5 5.5,71.2 13,132.5 44.9,198.3 61.8,127.6 168.2,174.8 294.6,217.1 0.5,4 1.1,8.1 1.5,12.1 5.9,58.9 22.4,104 53.6,154.6 66.7,107.9 166,165.7 286.4,195.6" /></g><g
         transform="scale(1.10402)"
         id="g40"><path
           id="path42"
           style="fill:#ffffff;fill-opacity:1;fill-rule:nonzero;stroke:none"
           d="m 15266.6,13748.2 c 38.9,1.8 73.8,0 111.8,-9.9 160.5,-41.6 179.4,-137.9 256,-262.4 49.6,-80.5 119.2,-24.2 204.5,-44.8 116.2,-28.1 151.1,-143.1 207.5,-234.9 54.1,11.3 128.2,33.7 178.8,0.5 32,-21 66.4,-70 72.3,-107.9 2.5,-15.9 1.1,-11.5 -9.8,-25.8 -110.2,-23.2 -457.3,-6.4 -592.1,-6.3 -146.8,-0.5 -1000.3,-19.5 -1049.8,-3.3 -18.1,6 -27.3,21.1 -29.7,39.4 -7,50.4 35.1,118.7 62.5,159.5 64.9,96.8 123.7,87.7 224.7,111.7 95,22.6 74.6,182 124,256.1 53.4,80.2 148.6,112.6 239.3,128.1" /></g><g
         transform="scale(1.00716)"
         id="g44"><path
           id="path46"
           style="fill:#1e2a31;fill-opacity:1;fill-rule:nonzero;stroke:none"
           d="m 4330.75,16300 c 140.98,-3.7 274.42,-42.4 387.38,-128.5 131.03,-100 207.81,-245.1 228.13,-407.3 106.65,7 209.51,2.5 307.17,-45.7 121.75,-60.1 191.49,-183.8 231.54,-308.2 103.93,-1.2 194.51,-12 280.53,-77.5 99.6,-75.8 146.89,-194.3 160.58,-315.3 86.84,1.4 407.22,27 465.91,-7 10.05,-5.9 19.22,-29.1 19.85,-41.1 1.44,-27.9 -3.02,-34.4 -20.61,-53.2 -99.9,-32.3 -421.69,-8.9 -541.78,-8.7 l -1095.15,1.1 -1396.58,-2.5 c -197.53,0.2 -415.82,-17.4 -610.73,1 -25.07,2.3 -41,8.1 -61.01,24.1 -9.38,24.6 -9.43,25.1 -1.79,50.2 76.36,67.9 418.92,41.2 531.99,40.7 -17.92,56.1 -32.53,112.9 -34.04,172.1 -3.23,126.3 38.83,255.6 127.42,347.6 110.53,114.7 255.22,136.5 406.4,141.5 16.89,150 49.79,287.5 150.18,405.3 123.39,144.8 279.05,198.2 464.61,211.4" /></g><path
         id="path48"
         style="fill:#ffffff;fill-opacity:1;fill-rule:nonzero;stroke:none"
         d="m 4259.35,16278.3 c 55.91,4.8 116.17,5.7 171.92,-0.9 205.8,-24.6 370.75,-159.7 414.55,-366.5 10.68,-50.4 9.81,-143.8 39.99,-182.8 70.36,-12 156.37,35.3 232.13,33.5 48.56,-1.2 86.54,-17.5 128.2,-41.7 170.7,-99.1 92.14,-226.6 186.25,-322.3 37.68,-16.2 78.42,-9.8 118.65,-9.5 82.09,0.7 161.81,-19.8 220.36,-80.7 47.9,-49.9 67.46,-101 65.08,-168.9 -24.78,-18 -802.58,-6.4 -903.9,-6.4 l -1551.49,-1.4 c -20.73,35.9 -39.1,70.4 -49.62,110.7 -24.06,92.3 -7.68,187.2 44.1,267 159.94,246.4 312.68,100.6 491.17,137.4 32.86,63.7 -24.5,230.1 65.77,393 71.44,128.9 190.23,199.1 326.84,239.5" /><g
         transform="scale(1.08191)"
         id="g50"><path
           id="path52"
           style="fill:#1e2a31;fill-opacity:1;fill-rule:nonzero;stroke:none"
           d="m 9329.83,15158 6.29,671 c 0.83,94.2 -10.73,200.9 4.24,293.3 7.12,44 23.02,84.1 54.35,116.5 4.72,5 9.71,9.6 14.98,14 5.17,4.5 10.63,8.6 16.27,12.5 5.64,3.8 11.46,7.4 17.56,10.6 6.01,3.3 12.2,6.2 18.48,8.8 6.29,2.7 12.76,4.9 19.32,6.9 6.56,1.9 13.22,3.6 19.97,4.8 6.65,1.3 13.49,2.2 20.24,2.8 6.84,0.6 13.68,0.8 20.52,0.7 6.65,-0.1 13.31,-0.5 19.96,-1.3 6.57,-0.8 13.13,-1.9 19.6,-3.4 6.47,-1.5 12.94,-3.2 19.22,-5.4 6.29,-2.1 12.48,-4.6 18.58,-7.3 6.01,-2.8 11.92,-5.9 17.66,-9.3 5.73,-3.4 11.18,-7.1 16.54,-11 5.36,-4 10.45,-8.2 15.44,-12.8 4.8,-4.5 9.52,-9.2 13.86,-14.2 5.36,-6 10.26,-12.4 14.69,-19.1 4.44,-6.7 8.42,-13.7 11.93,-20.9 3.6,-7.3 6.56,-14.7 9.06,-22.4 2.59,-7.6 4.53,-15.4 6.01,-23.3 18.85,-97.1 8.96,-206.3 8.5,-304.9 -1.02,-230.9 -12.57,-466.7 4.99,-696.9 240.5,-68.8 393.21,-199.1 540.71,-397.1 27.5,-46.6 53.8,-95.2 73.9,-145.6 60.3,-151.5 111.5,-456.6 42,-606.8 -3,-6.6 -6.4,-13.1 -10.1,-19.4 -3.7,-6.3 -7.6,-12.3 -12,-18.2 -4.2,-5.9 -8.9,-11.6 -13.7,-17 -4.9,-5.4 -10,-10.6 -15.4,-15.5 -5.4,-4.9 -11,-9.5 -16.8,-13.8 -5.9,-4.4 -11.9,-8.4 -18.2,-12.2 -6.3,-3.7 -12.7,-7.1 -19.3,-10.2 -6.6,-3.1 -13.4,-5.8 -20.2,-8.2 -66,-23.8 -1276.9,-31.9 -1424.69,-15.6 -25.57,2.8 -50.35,11.9 -72.99,23.9 -7.99,4.2 -15.74,8.8 -23.23,13.8 -7.5,5 -14.73,10.4 -21.68,16.1 -6.95,5.8 -13.58,11.8 -19.91,18.3 -6.33,6.4 -12.31,13.1 -17.93,20.1 -5.63,7.1 -10.88,14.4 -15.76,22 -4.86,7.6 -9.33,15.4 -13.4,23.4 -4.07,8.1 -7.72,16.3 -10.93,24.7 -3.22,8.4 -5.99,17 -8.33,25.7 -57.58,211.2 26.7,524.6 129.97,712.2 147.85,184.9 320.27,339.8 559.71,389.7" /></g><path
         id="path54"
         style="fill:#ffffff;fill-opacity:1;fill-rule:nonzero;stroke:none"
         d="m 9571.19,15121.9 c -53.67,35.1 -104.42,77.9 -126.2,140 2.58,22.5 2.86,35.1 23.45,49.7 55.57,39.7 168.46,19.6 232.13,15.8 49.36,-101 119.74,-147.6 212.3,-204.7 -113.72,-2.4 -227.9,-0.6 -341.68,-0.8" /><g
         transform="scale(1.00105)"
         id="g56"><path
           id="path58"
           style="fill:#ffffff;fill-opacity:1;fill-rule:nonzero;stroke:none"
           d="m 9551.97,15422.5 c -34.65,0.3 -67.61,2.6 -101.91,7.4 l -7.19,10.6 c -7.06,198.6 99.65,427.9 231.19,572.5 178.86,196.7 411.34,276 671.14,287 -292.9,-138.1 -516.91,-243.9 -633.79,-566.4 -36.64,-101 -54.71,-203.2 -62.92,-310 l -96.52,-1.1" /></g><path
         id="path60"
         style="fill:#94bde8;fill-opacity:1;fill-rule:nonzero;stroke:none"
         d="m 9700.57,15327.4 c 483.33,-27.6 972.93,20.6 1455.33,-11.5 -6,-55.2 -5.2,-137 -57.5,-170.8 -61.6,-39.8 -1047.2,-28.4 -1185.53,-22.4 -92.56,57.1 -162.94,103.7 -212.3,204.7" /><g
         transform="scale(1.00105)"
         id="g62"><path
           id="path64"
           style="fill:#f14b45;fill-opacity:1;fill-rule:nonzero;stroke:none"
           d="m 10345.2,16300 c 248.8,-31.6 472,-170 623.5,-367.8 115.4,-150.9 161.9,-330 186.5,-515.8 -533.8,0.3 -1069.6,-7.8 -1603.23,6.1 l 96.52,1.1 c 8.21,106.8 26.28,209 62.92,310 116.88,322.5 340.89,428.3 633.79,566.4" /></g><path
         id="path66"
         style="fill:#94bde8;fill-opacity:1;fill-rule:nonzero;stroke:none"
         d="m 4821.4,12714.5 0.64,29 c 96.25,124.7 161.17,291.6 240.09,429.1 135.4,236 290.58,455.6 459.07,669.1 922.77,1168.9 2499.24,1962.9 3967.25,2136.2 -111.73,-203 -202.92,-542 -140.62,-770.5 2.53,-9.4 5.53,-18.7 9.01,-27.8 3.48,-9.1 7.42,-18 11.83,-26.7 4.4,-8.7 9.24,-17.2 14.5,-25.4 5.28,-8.2 10.96,-16.1 17.05,-23.7 6.08,-7.6 12.55,-14.9 19.4,-21.9 6.84,-6.9 14.02,-13.5 21.54,-19.7 7.52,-6.2 15.34,-12 23.45,-17.4 8.11,-5.4 16.49,-10.4 25.13,-14.9 24.5,-13 51.31,-22.9 78.98,-26 159.89,-17.5 1469.98,-8.8 1541.38,16.9 7.4,2.6 14.7,5.6 21.8,8.9 7.2,3.4 14.1,7.1 20.9,11.1 6.8,4.1 13.3,8.4 19.7,13.1 6.3,4.7 12.4,9.7 18.2,15 5.8,5.3 11.4,10.9 16.7,16.8 5.2,5.9 10.2,12 14.8,18.4 4.7,6.3 9,12.9 13,19.7 4,6.8 7.6,13.8 10.9,20.9 75.2,162.6 19.8,492.7 -45.5,656.6 -21.7,54.5 -50.1,107.1 -79.9,157.5 196.7,-0.2 403.3,-47.3 595.7,-85.4 357.6,-71 719.2,-172.4 1054.4,-317.2 155.8,-67.3 306.6,-149.4 457.6,-226.9 596.2,-305.9 1043.5,-616 1544.7,-1057.8 121.1,-106.8 246.6,-212.1 360.2,-326.8 336,-339.5 782,-924.4 966.9,-1365.6 l 71.7,-98 c -17.5,-0.7 -35,-1.2 -52.6,-1.2 -65.6,0.2 -104.8,51.8 -148.1,94.5 -561.7,532.6 -1172.2,1017.5 -1724,1560.5 -843,-13.2 -1687.9,-1 -2531.1,-0.1 l -5376.94,-2.1 c -164.37,-102.4 -325.23,-289.4 -465.46,-426.2 -217.77,-212.4 -441.21,-418.3 -662.23,-627.2 -127.92,-120.9 -252.66,-255.1 -390.07,-364.8" /><g
         transform="scale(1.20479)"
         id="g68"><path
           id="path70"
           style="fill:#1e2a31;fill-opacity:1;fill-rule:nonzero;stroke:none"
           d="m 5261.65,11730.5 4462.99,1.7 c 699.86,-0.7 1401.16,-10.9 2100.86,0.1 458,-450.7 964.7,-853.2 1431,-1295.3 35.9,-35.4 68.4,-78.2 122.9,-78.4 14.6,0 29.1,0.4 43.7,1 136.5,1 286.9,13.6 421.4,-4.8 3.4,-78.2 21.1,-440.42 -11.3,-488 -38.2,-21.35 -81.5,-15.61 -124.1,-15.09 -47.6,-2.43 -94.6,-4.1 -142.3,-3.7 45.8,-224.24 109.3,-443.57 150.5,-668.89 113.5,-622.49 73.2,-1252.56 -83.7,-1863.46 -63.7,-248.09 -163.1,-486.06 -224,-734.4 598,4.31 951.2,9.21 1508.6,-231.75 136.3,-58.93 251.9,-169.65 390.8,-213.48 50.7,8.3 102.2,13.36 147.2,-16.93 36.5,-24.57 51.8,-68.56 56.9,-110.39 12.2,-97.61 -20.2,-212.57 -32.7,-310.27 -40,-303.95 -82.9,-607.41 -129,-910.53 -18.3,-126.17 -52.3,-262.79 -56,-389.45 -5,-178.29 48.7,-376.09 76.2,-552.96 36,-231.49 62.2,-464.9 93.8,-697.06 23.2,-170.32 55.8,-344.37 67.7,-515.61 l 472.9,0.75 c 69.1,0.08 143.2,6.47 211.6,-0.25 24.8,-2.49 42.3,-9.54 63.3,-22.49 12.7,-18.93 19.1,-27.97 16.7,-52.29 -2.1,-21.33 -11.5,-32.79 -30.6,-42.17 -64,-31.46 -6673.84,-20.17 -7402.6,-18.09 l -5046.85,6.72 -1173.23,2.91 c -209.53,0.08 -420.45,-4.57 -629.8,0.99 -40.37,1.08 -105.41,-1.99 -140.98,17.52 -16.64,9.21 -29.92,23.57 -36.19,41.66 -7.68,22.16 -4.17,40.17 8.26,59.68 48.99,76.61 402.33,164.76 502.05,205.85 -4.55,457.67 -6.54,915.35 -5.93,1373.02 -175.47,43.91 -318.9,117.7 -415.73,276.57 -125.65,206.09 -72.14,427.87 -30.18,650.65 18.37,97.53 33.81,197.88 58.19,294.08 10.02,39.51 20.22,79.76 51.89,107.32 117.77,28.55 519.13,5.06 669.52,8.63 -8.88,27.31 -47.71,60.1 -66.91,82.26 -116.82,134.71 -237.66,279.38 -330.47,431.94 -245.68,403.97 -367.69,917.59 -333.1,1387.72 33.45,454.35 215.64,870.78 493.21,1228.02 71.26,91.72 143.09,181.52 231.62,257.4 254.32,218.04 653.57,410.28 992.73,427.38 95.06,4.81 192.29,-12.79 287.13,-20.41 l 3.13,514.89 c -137.33,3.82 -539.54,-26.65 -642.92,12.23 -13.92,5.23 -24.73,11.1 -30.7,25.18 -19.58,46.14 -11.65,396.9 9.56,448.5 64.55,30.6 412.23,12.1 499.34,9.2 72.8,66.8 144.08,135.1 213.84,205.1 114.05,91.1 217.59,202.4 323.76,302.8 183.46,173.4 368.91,344.3 549.67,520.6 116.39,113.6 249.91,268.8 386.34,353.8" /></g><path
         id="path72"
         style="fill:#fafdfd;fill-opacity:1;fill-rule:nonzero;stroke:none"
         d="m 9657.83,10363.8 c 2.36,141.7 133.24,110.2 162.07,224.2 0.69,-39.3 4.21,-48.9 24.16,-81.2 -69.25,-27.5 -123.65,-101.3 -186.23,-143" /><g
         transform="scale(1.02211)"
         id="g74"><path
           id="path76"
           style="fill:#94bde8;fill-opacity:1;fill-rule:nonzero;stroke:none"
           d="m 16258.7,3984.3 -6.2,8.61 c -29.7,17.61 -51.8,5.38 -83.3,7.73 -27.1,2.06 -28.3,6.95 -43.2,27.49 -3,27.5 -1.8,38.94 10.8,63.7 33.4,24.95 71.6,18.68 112.3,18.98 25.7,18.2 24.2,27.49 32.9,56.94 2.7,-73.18 18,-117.8 -23.3,-183.45" /></g><path
         id="path78"
         style="fill:#ffffff;fill-opacity:1;fill-rule:nonzero;stroke:none"
         d="m 9819.9,10588 c 1.21,47.4 4.76,98.2 -1.65,145.3 -5.48,40.3 -19.38,79 -22.18,119.8 -0.99,14.6 2.6,24.6 9.35,37.3 26.99,14.4 47,13.6 76.4,5.1 13.82,-4 27.46,-8.8 41.04,-13.6 -2.88,-1.8 -5.82,-3.6 -8.64,-5.6 -33.79,-23.7 -43.52,-49.5 -49.67,-89.4 -14.18,-91.9 0.83,-192.9 11.32,-284.5 l -31.81,4.4 c -19.95,32.3 -23.47,41.9 -24.16,81.2" /><path
         id="path80"
         style="fill:#fafdfd;fill-opacity:1;fill-rule:nonzero;stroke:none"
         d="m 9549.92,5788.8 c 214.8,-75.9 369.39,-49.9 575.08,-90.5 -94.8,-61.5 -245.8,-39.9 -355.93,-36.8 -69.47,25.6 -169.16,50.8 -220.74,105.8 l 1.59,21.5" /><path
         id="path82"
         style="fill:#f14b45;fill-opacity:1;fill-rule:nonzero;stroke:none"
         d="m 6867.32,7914.1 c 26.86,-1.9 44.47,-1.9 68.08,-16.2 17.11,-131.1 5.22,-276.2 4.61,-408.9 -23.47,1.5 -41.56,4.5 -63.79,12.3 -23.07,85.1 -8.16,314.4 -8.9,412.8" /><path
         id="path84"
         style="fill:#fafdfd;fill-opacity:1;fill-rule:nonzero;stroke:none"
         d="m 7410.13,5841.3 c -0.75,-36.8 -16.1,-54.4 -35.97,-83.2 l -7.95,-11.7 c -1.6,-2.4 -3.27,-4.7 -4.9,-7 -36.75,-52.4 -66.65,-58.8 -128.4,-69.7 -90.67,-15.9 -209.54,-26.1 -299.55,-13.7 3.91,13.9 6.75,38.6 18.04,47.9 84.34,69.5 288.98,-33.8 458.73,137.4" /><path
         id="path86"
         style="fill:#fafdfd;fill-opacity:1;fill-rule:nonzero;stroke:none"
         d="m 7473.6,10833.8 c 0.44,-3.2 0.92,-6.4 1.32,-9.5 8.21,-65.1 -10.98,-154.5 12.24,-212.5 8.56,15.1 13.64,26.7 19.2,42.9 3.3,-39.6 7.25,-79.2 9.69,-118.9 53.67,-38.8 126.75,-79.9 162.37,-136.9 -65.44,-4.8 -109.24,31.2 -160.86,66 -89.56,-29.1 -162.31,-58.1 -237.97,-115.1 4.49,106.7 112.59,123.4 178.47,191.1 2.68,2.8 5.26,5.6 7.9,8.4 4.29,94.9 1.15,189.6 7.64,284.5" /><path
         id="path88"
         style="fill:#fafdfd;fill-opacity:1;fill-rule:nonzero;stroke:none"
         d="m 5944.52,5851.2 c 107.41,-95.3 204.38,-110.7 343.38,-121.6 78.22,0.6 159.21,8.1 236.12,-7 16.15,-17.2 16.17,-22.5 21.03,-45.9 -100.02,-16.3 -228.42,-10.7 -329.54,-2.6 l 2.9,5 c -80.73,13.5 -180.37,27.6 -240.39,88 -26.92,27.1 -34.21,46.3 -33.5,84.1" /><path
         id="path90"
         style="fill:#3e708e;fill-opacity:1;fill-rule:nonzero;stroke:none"
         d="m 6888.78,8529.4 c 20.71,-9.7 15.25,-4.7 29.29,-18.9 46,-46.7 26.46,-461 25.73,-549 -26.94,10.3 -43.12,12.6 -61.11,35.6 -16.1,136.1 -22.5,402.1 6.09,532.3" /><path
         id="path92"
         style="fill:#fafdfd;fill-opacity:1;fill-rule:nonzero;stroke:none"
         d="m 13972.9,4848.1 c 213.1,23.3 666.1,57.2 862,17.4 l 15.2,-12.5 c -76.5,-61.2 -719.2,-5.2 -868.1,-25.9 l -9.1,21" /><g
         id="g94"><g
           clip-path="url(#clipPath100)"
           id="g96"><path
             id="path108"
             style="fill:url(#linearGradient106);fill-opacity:1;fill-rule:nonzero;stroke:none"
             d="m 6805.38,10739.4 22.25,-12.4 c 0.83,-63.3 2.52,-126.6 5.05,-189.8 53.92,-56.4 169.65,-87.6 167.94,-172.7 -81.9,46.1 -163.18,85.8 -259.23,60.1 -52.32,-14 -94.07,-51.3 -135.9,-83.9 -18.71,136.2 107.78,102.2 157.6,193.2 34.66,63.2 6.61,138.8 42.29,205.5" /></g></g><path
         id="path110"
         style="fill:#f14b45;fill-opacity:1;fill-rule:nonzero;stroke:none"
         d="m 6368.69,7405 c 164.57,14 350.84,11.1 515.74,-0.3 l 5.68,-9.8 -52.21,-39.3 c -30.22,-18.2 -61.77,-34.6 -92.62,-51.8 -75.55,4.6 -153.12,-1.2 -228.01,8.7 -74.77,9.9 -104.11,33.6 -148.58,92.5" /><path
         id="path112"
         style="fill:#fafdfd;fill-opacity:1;fill-rule:nonzero;stroke:none"
         d="m 5638.73,4868 c 115.97,0.8 838.18,21.8 894.76,-11.3 3.12,-21.5 3.42,-20.6 -8.59,-38.7 -115.89,1.1 -829.72,-12.4 -876.32,9.5 l -9.85,40.5" /><path
         id="path114"
         style="fill:#fafdfd;fill-opacity:1;fill-rule:nonzero;stroke:none"
         d="m 9328.65,5924.5 5.14,37.1 h 12.23 c 14.61,-31.7 23.59,-67.8 13.7,-102.4 -3.47,-12.1 -9.39,-23.7 -15.86,-34.4 -69.35,-71.3 -131.81,-121.5 -227.35,-155.9 -136.74,-29.4 -313.72,-30.3 -452.4,-5.8 1.17,5.1 4.39,20.9 6.95,24.9 11.86,18.8 23.87,18.9 43.74,22 164.51,25.4 327.31,-11.5 485.59,64.6 72.41,34.8 102.13,75.7 128.26,149.9" /><path
         id="path116"
         style="fill:#ffffff;fill-opacity:1;fill-rule:nonzero;stroke:none"
         d="m 8411.11,3592.2 142.63,2.5 c 0.52,-102.5 13.66,-220.3 -1.98,-321.2 l -150.16,0.1 c -1.31,92.4 -19.43,232.7 9.51,318.6" /><path
         id="path118"
         style="fill:#f14b45;fill-opacity:1;fill-rule:nonzero;stroke:none"
         d="m 6607.25,9974.8 c 130.86,-3.2 262.25,-1.1 393.19,-1.3 l -1.21,-132.3 -390.53,1.9 -1.45,131.7" /><path
         id="path120"
         style="fill:#f14b45;fill-opacity:1;fill-rule:nonzero;stroke:none"
         d="m 7285.29,9964.3 403.08,-1.2 c -0.08,-41.9 -2.05,-83.4 -4.39,-125.2 -131.67,-7.1 -265.83,-2.9 -397.82,-3.7 l -0.87,130.1" /><path
         id="path122"
         style="fill:#ffffff;fill-opacity:1;fill-rule:nonzero;stroke:none"
         d="m 12405.1,3508.6 c 122.3,-69.3 348.2,-139.5 442.1,-230 -147.3,2.6 -294.7,3.4 -442,2.5 l -0.1,227.5" /><path
         id="path124"
         style="fill:#94bde8;fill-opacity:1;fill-rule:nonzero;stroke:none"
         d="m 7347.97,7390.6 c 168.6,1.6 398.93,22.1 559.5,-4 17.18,-25.3 11.82,-57.5 11.34,-86.8 -179.3,-0.7 -378.48,-20.7 -555.38,4 -17.9,28.7 -14.01,53.3 -15.46,86.8" /><path
         id="path126"
         style="fill:#f14b45;fill-opacity:1;fill-rule:nonzero;stroke:none"
         d="m 9657.61,9977.2 c 129.77,-4.9 259.85,-2.2 389.69,-1.3 l 0.3,-141.2 c -128.87,8.6 -259.69,4.3 -388.84,3.9 l -1.15,138.6" /><path
         id="path128"
         style="fill:#f14b45;fill-opacity:1;fill-rule:nonzero;stroke:none"
         d="m 5907.52,9969.7 c 132.54,4.7 266.22,1.7 398.88,2.1 0.84,-32.8 2.13,-65.5 -1.76,-98.2 -3.2,-26.7 2.52,-16.3 -18.19,-32.6 l -404.62,1 c 0.09,20.3 -0.12,40.7 1.27,60.9 2.2,32 0.69,45.2 24.42,66.8" /><path
         id="path130"
         style="fill:#94bde8;fill-opacity:1;fill-rule:nonzero;stroke:none"
         d="m 6031.98,3158.9 c 331.54,1.7 663.09,0.9 994.63,-2.3 154.29,-0.8 313.81,8.4 467.48,-0.8 27.98,-1.7 46.12,-1.3 69.12,-17.6 l -9.61,-11.8 -55.99,-3.9 c -489.31,-1 -985.91,-13.4 -1474.6,3.9 -27.54,1 -69.03,-0.5 -87.96,20 28.99,13.3 65.09,11 96.93,12.5" /><path
         id="path132"
         style="fill:#ffffff;fill-opacity:1;fill-rule:nonzero;stroke:none"
         d="m 12120.5,3596.8 159.2,-1.4 c 1,-102.1 10.8,-216.5 -4,-317.2 l -179.8,-1.1 c 1.7,107.5 13,213 24.6,319.7" /><path
         id="path134"
         style="fill:#ffffff;fill-opacity:1;fill-rule:nonzero;stroke:none"
         d="m 13838.9,3602.3 c 57.4,1.6 115,1 172.5,1.4 -0.1,-109.4 4,-217.7 10,-326.9 -60.5,-1.5 -121.4,0.4 -181.9,1.1 -1.2,108.1 -1.4,216.3 -0.6,324.4" /><path
         id="path136"
         style="fill:#ffffff;fill-opacity:1;fill-rule:nonzero;stroke:none"
         d="m 10246.1,3595.6 169.3,-1.3 16.9,-319.3 -198.7,-0.2 c 1.3,106.9 7.9,214 12.5,320.8" /><path
         id="path138"
         style="fill:#ffffff;fill-opacity:1;fill-rule:nonzero;stroke:none"
         d="m 14140.4,3519.7 c 149.6,-84.4 359,-141.9 490,-244.3 l -494.4,0.7 4.4,243.6" /><path
         id="path140"
         style="fill:#ffffff;fill-opacity:1;fill-rule:nonzero;stroke:none"
         d="m 6641.34,3599.7 187.94,-2.4 0.42,-332.9 -184.63,1.2 c -7.02,110.7 -3.37,223.2 -3.73,334.1" /><path
         id="path142"
         style="fill:#ffffff;fill-opacity:1;fill-rule:nonzero;stroke:none"
         d="m 6920.71,4862.6 c 117.16,12.1 1302.21,17.4 1354.16,-1.4 13.58,-4.9 14.99,-21.5 19.94,-34 -90.93,-15.8 -1315.23,-20.8 -1361.61,-1.8 l -12.49,37.2" /><path
         id="path144"
         style="fill:#ffffff;fill-opacity:1;fill-rule:nonzero;stroke:none"
         d="m 13699.8,3514.8 c 24.5,-25.3 10.9,-199.1 10.7,-240.9 l -481.7,0.7 -8.5,7.1 c 15,41.2 407.1,195.8 479.5,233.1" /><path
         id="path146"
         style="fill:#ffffff;fill-opacity:1;fill-rule:nonzero;stroke:none"
         d="m 8272.91,3527 7.96,-2.6 c 23.75,-52.7 2.7,-187.2 0.87,-248.7 -153.94,0.2 -307.86,1.3 -461.78,3.5 l -17.1,3.1 -4.46,10.3 c 99.88,97.5 344.74,150.9 474.51,234.4" /><path
         id="path148"
         style="fill:#3e708e;fill-opacity:1;fill-rule:nonzero;stroke:none"
         d="m 15496.9,7170.8 c 95.2,-0.7 191.2,1.2 286.3,-2.9 13.3,-70.3 3.8,-157.6 4,-229.8 l -289.9,-5.1 c -2.4,79.6 -3,158.3 -0.4,237.8" /><path
         id="path150"
         style="fill:#ffffff;fill-opacity:1;fill-rule:nonzero;stroke:none"
         d="m 11960.4,3506.7 14.2,-7.2 c 11.8,-70.9 3.9,-150.7 2.6,-222.8 -156.7,-0.6 -313.4,0.5 -470.1,3.4 l -19.6,4.1 -1.8,18.7 c 47.5,64 383.3,167.8 474.7,203.8" /><path
         id="path152"
         style="fill:#ffffff;fill-opacity:1;fill-rule:nonzero;stroke:none"
         d="m 12377.8,4886.4 c 174.6,-1.5 1262.6,14.9 1342.1,-11.9 11.8,-20.4 10.4,-22.2 7.6,-45.9 -443.2,4.6 -886.5,5.1 -1329.8,1.4 -20.1,16.9 -16.3,31.4 -19.9,56.4" /><path
         id="path154"
         style="fill:#ffffff;fill-opacity:1;fill-rule:nonzero;stroke:none"
         d="m 6960.56,3546.3 c 123.11,-77.3 434.28,-187.9 508.87,-273.8 -165.92,-8.7 -333.38,-4.3 -499.54,-4.1 -7.17,92.2 -7.01,185.4 -9.33,277.9" /><path
         id="path156"
         style="fill:#ffffff;fill-opacity:1;fill-rule:nonzero;stroke:none"
         d="m 8655.2,4871.7 c 129.19,15.4 1437,14.9 1471.3,-1.3 12.7,-6 14.4,-28.3 18.3,-41 -116.1,-8.3 -1435.4,-17 -1480.81,6.2 l -8.79,36.1" /><path
         id="path158"
         style="fill:#ffffff;fill-opacity:1;fill-rule:nonzero;stroke:none"
         d="m 12951.5,6025.9 17.7,-2.6 c 51.8,-7.3 192.6,12.4 220,-21 l 1.2,-63.7 -0.4,-152.2 c -49.8,15.9 -108.6,30.2 -161.1,22.5 -79.9,-11.7 -156.2,-52.8 -230.4,-83.1 -98.2,-40 -207.5,-55.2 -313,-55.4 -34.5,0 -76.4,-4.2 -106.5,13.7 89,55.2 285.4,44.6 397.8,76.4 66.1,18.7 140.9,47.1 173.8,112.2 26.2,51.9 16.4,100 0.9,153.2" /><path
         id="path160"
         style="fill:#fafdfd;fill-opacity:1;fill-rule:nonzero;stroke:none"
         d="m 10508.4,4885.1 1020.4,0.2 c 151.9,0 319.3,14.9 469.5,-1.6 16.2,-21.2 12.5,-22.6 9.2,-49.5 -136.2,0.8 -1463.2,-11 -1479.8,-3.6 -5.9,2.6 -10.7,7.4 -16,11.2 l -3.3,43.3" /><path
         id="path162"
         style="fill:#ffffff;fill-opacity:1;fill-rule:nonzero;stroke:none"
         d="m 8680.24,3554.1 c 123.11,-76.1 445.92,-169.3 514.47,-275.6 -163.79,-17.4 -339.16,-5.3 -504.25,-4.4 -11.32,92.7 -9.47,186.7 -10.22,280" /><path
         id="path164"
         style="fill:#ffffff;fill-opacity:1;fill-rule:nonzero;stroke:none"
         d="m 6525.43,3566.8 4.99,-4.4 c 23.33,-54.3 6.65,-224.9 6.31,-291.9 l -519.02,2.9 -5.42,5.9 0.99,14.8 c 139.37,122.7 352.92,173.1 512.15,272.7" /><path
         id="path166"
         style="fill:#ffffff;fill-opacity:1;fill-rule:nonzero;stroke:none"
         d="m 10512.4,3565.3 c 125.8,-59.8 417.6,-155.5 508.3,-216.7 25.8,-17.4 46.1,-46 65.2,-70.2 -178.9,-7 -359.6,-2.1 -538.8,-2.2 l -34.7,289.1" /><path
         id="path168"
         style="fill:#ffffff;fill-opacity:1;fill-rule:nonzero;stroke:none"
         d="m 10131.7,3577.1 c 0.5,-0.5 1.2,-0.9 1.6,-1.5 24.5,-44.5 -13.9,-246.3 -20.6,-301.2 -176.33,-0.8 -352.67,0.5 -528.99,3.8 l -11.77,15.5 c 11.85,23.9 21.56,33.2 44.71,47 161.02,95.7 352.01,128.3 515.05,236.4" /><path
         id="path170"
         style="fill:#94bde8;fill-opacity:1;fill-rule:nonzero;stroke:none"
         d="m 10855,9722.8 823.4,-0.9 4,-120.7 -659.1,1 -252.4,12.9 c -7,30.3 -13.9,58.3 -13.8,89.6 27.8,19.5 64.3,15.8 97.9,18.1" /><path
         id="path172"
         style="fill:#3e708e;fill-opacity:1;fill-rule:nonzero;stroke:none"
         d="m 4885.59,11862.7 c 143.62,23.1 317.66,0.7 464.4,1 l 0.66,-237.8 c -107.43,6.8 -217.64,2.4 -325.39,2.7 l -1.07,8.4 c -48.58,-1.1 -93.08,-13.8 -140.75,-17.4 l 2.15,243.1" /><path
         id="path174"
         style="fill:#94bde8;fill-opacity:1;fill-rule:nonzero;stroke:none"
         d="m 4885.59,11862.7 c 45.05,-3.9 89.48,-6 134.69,-6.4 0.22,-71.4 -5.28,-148.7 3.91,-219.3 -48.58,-1.1 -93.08,-13.8 -140.75,-17.4 l 2.15,243.1" /><path
         id="path176"
         style="fill:#94bde8;fill-opacity:1;fill-rule:nonzero;stroke:none"
         d="m 6568.28,9218.1 c 26.54,0.6 57.12,3.8 83.03,-2.2 3.18,-0.7 19.3,-5.9 20.45,-7.2 21.18,-24.1 2.28,-313.6 22.79,-383.1 8.94,-30.4 28.91,-58.1 46.22,-84.2 71.34,-28.3 121.79,-59.9 176.5,-112.9 l -212.91,-4.4 c -123.14,-0.4 -245.91,-0.5 -368.99,4.3 49.89,40.3 107.77,70.4 153.41,116 120.7,120.7 82.32,316.7 79.5,473.7" /><path
         id="path178"
         style="fill:#3e708e;fill-opacity:1;fill-rule:nonzero;stroke:none"
         d="m 4876.1,7183.5 473.46,-0.7 0.16,-233.7 -474.2,-0.2 c 1.15,78.2 0.46,156.4 0.58,234.6" /><path
         id="path180"
         style="fill:#ffffff;fill-opacity:1;fill-rule:nonzero;stroke:none"
         d="m 11009.6,7300.9 c 104.3,108.8 200,224.6 287.2,347.5 51.3,71.8 100.3,159.7 160.9,223.1 l 10.5,-11.1 c -4.1,-153.8 -5.4,-307.6 -3.9,-461.4 -36.4,-30 -74.3,-59.2 -109.4,-90.7 -113.4,-1.8 -232.7,3.6 -345.3,-7.4" /><path
         id="path182"
         style="fill:#ffffff;fill-opacity:1;fill-rule:nonzero;stroke:none"
         d="m 11136.2,6073.6 c 94.6,8.8 189.7,7.7 284.6,8.3 -37.2,-44.1 -73.2,-98.2 -66.8,-159 4.4,-42.3 32.7,-72.2 66,-95.8 124,-88.1 300.6,-102.5 447.4,-112.2 47.1,-3.2 99.5,-1 143.8,-17.3 -21.9,-28.9 -28.6,-32.9 -64.5,-37.6 -139.2,-18.3 -316.6,22 -447.3,71.6 -63,23.9 -152.7,81.5 -219.5,77.9 -85.3,-4.5 -175.8,-67.9 -256.5,-95.2 -100.9,-34.2 -410.4,-85.3 -494.1,-21.3 92,56.6 415.1,-21.4 623.4,143.6 30.4,24.1 56.3,53.5 55.9,94.6 -0.4,53.2 -33.9,108.4 -72.4,142.4" /><path
         id="path184"
         style="fill:#ffffff;fill-opacity:1;fill-rule:nonzero;stroke:none"
         d="m 8409.92,5712.4 135.86,0.1 c -4.46,-302.1 -1.68,-604.7 -1.98,-906.9 l -133.34,-0.6 -0.54,907.4" /><path
         id="path186"
         style="fill:#94bde8;fill-opacity:1;fill-rule:nonzero;stroke:none"
         d="m 4073.52,12356.3 c 105.86,0.2 211.71,-0.4 317.56,-1.8 0.78,-62.7 16.06,-331.6 -11.49,-366.9 l -319.38,-0.4 c -0.39,63.1 -16.47,330.3 13.31,369.1" /><path
         id="path188"
         style="fill:#e0a113;fill-opacity:1;fill-rule:nonzero;stroke:none"
         d="m 6605.49,10340.7 c 41.83,32.6 83.58,69.9 135.9,83.9 96.05,25.7 177.33,-14 259.23,-60.1 l 1.25,-285.9 c -134.08,3.9 -268.18,4.7 -402.3,2.4 3.55,85.7 10.7,174 5.92,259.7" /><path
         id="path190"
         style="fill:#ffffff;fill-opacity:1;fill-rule:nonzero;stroke:none"
         d="m 10256.6,5707.3 c 48.4,1.3 97.1,0.5 145.5,0.7 l -3.4,-890.5 -148.7,-2 c 13.8,296.3 1.3,595 6.6,891.8" /><path
         id="path192"
         style="fill:#ffffff;fill-opacity:1;fill-rule:nonzero;stroke:none"
         d="m 13833.5,5713.6 156.6,0.9 -17.2,-866.4 9.1,-21 c -55.5,-17.8 -122.9,-8.5 -180.5,-6.1 18.8,24.2 56.5,63.3 63.6,93 9.6,40.4 -9.3,64.8 -31.1,96 l -0.5,703.6" /><path
         id="path194"
         style="fill:#ffffff;fill-opacity:1;fill-rule:nonzero;stroke:none"
         d="m 10254.2,4671.4 141,0.9 -1.3,-968.8 -138.8,1.4 c -2.5,322.2 -2.8,644.4 -0.9,966.5" /><path
         id="path196"
         style="fill:#ffffff;fill-opacity:1;fill-rule:nonzero;stroke:none"
         d="m 8405.71,4704.7 135.63,0.1 c 20.23,-323.2 4.72,-652.9 9.39,-977.3 l -142.16,-1.7 c -8.71,325.8 -4.76,653.1 -2.86,978.9" /><g
         id="g198"><g
           clip-path="url(#clipPath204)"
           id="g200"><path
             id="path212"
             style="fill:url(#linearGradient210);fill-opacity:1;fill-rule:nonzero;stroke:none"
             d="m 7279.59,10349.8 c 75.66,57 148.41,86 237.97,115.1 51.62,-34.8 95.42,-70.8 160.86,-66 21.9,-101.2 9.67,-221.9 8.4,-325.7 l -407.53,-1.2 c 0.88,90.7 9.23,187.9 0.3,277.8" /></g></g><path
         id="path214"
         style="fill:#e0a113;fill-opacity:1;fill-rule:nonzero;stroke:none"
         d="m 5877.85,10357.2 c 71.38,48.3 141.86,92.5 222.41,123.9 62.28,-32 120.67,-70.2 184.32,-100 3.57,-102.5 4.7,-205.1 3.38,-307.6 l -414.29,-1.3 c 1.01,94.5 -2.13,190.9 4.18,285" /><path
         id="path216"
         style="fill:#dd7519;fill-opacity:1;fill-rule:nonzero;stroke:none"
         d="m 9844.06,10506.8 31.81,-4.4 c 64.26,-12.4 107.33,-44.2 157.33,-85 3.5,-115.6 5.2,-231.3 5.3,-347 -128.07,1.7 -256.17,1.7 -384.28,0 3.29,97.9 5.71,195.4 3.61,293.4 62.58,41.7 116.98,115.5 186.23,143" /><path
         id="path218"
         style="fill:#ffffff;fill-opacity:1;fill-rule:nonzero;stroke:none"
         d="m 13840.1,4677.1 153.9,1.1 c 4.8,-321.1 0,-642.8 -0.8,-963.9 -50.3,-3 -101.3,-1.5 -151.7,-1.6 -5.4,321.2 -1.2,643.1 -1.4,964.4" /><g
         transform="scale(1.01682)"
         id="g220"><path
           id="path222"
           style="fill:#94bde8;fill-opacity:1;fill-rule:nonzero;stroke:none"
           d="m 15902,12164.3 c 132.3,1.7 264.6,0.8 396.9,-2.6 l 1.1,-365.9 -399,-0.4 1,368.9" /></g><g
         id="g224"><g
           clip-path="url(#clipPath230)"
           id="g226"><g
             transform="scale(1.1227)"
             id="g232"><path
               id="path240"
               style="fill:url(#linearGradient238);fill-opacity:1;fill-rule:nonzero;stroke:none"
               d="m 16219.1,6327.07 c 28,0.98 52.1,0.27 79.7,-4.9 11.6,-37.59 -148.2,-1379.53 -168.7,-1525.16 -25.7,-0.71 -50.8,-2.14 -76.5,-4.37 -6.5,124.08 30.3,302.67 44.9,429.42 42.3,366.26 96.5,737.33 120.6,1105.01" /></g></g></g><path
         id="path242"
         style="fill:#e0a113;fill-opacity:1;fill-rule:nonzero;stroke:none"
         d="m 10226,9889.8 c 3.1,20.1 5.9,53.6 16.4,70.5 14.2,22.8 114.9,84.1 145.3,106.7 125.2,92.8 246.5,190.5 363.7,293.3 7.9,-175.6 8.5,-351.8 10,-527.5 -174.5,-0.7 -364.7,-16.5 -537.5,2.2 l 2.1,54.8" /><g
         transform="scale(1.11892)"
         id="g244"><path
           id="path246"
           style="fill:#94bde8;fill-opacity:1;fill-rule:nonzero;stroke:none"
           d="m 15072.7,3757.19 1214,-1.16 c 7.8,-36.37 9.9,-73.73 13.3,-110.82 l -1238.6,-1.97 c 1,38.16 6.7,76.15 11.3,113.95" /></g><path
         id="path248"
         style="fill:#e0a113;fill-opacity:1;fill-rule:nonzero;stroke:none"
         d="m 10279.7,10415.5 c 11.6,4.2 23,8.7 34.1,14.1 57.2,28 178.8,108.4 197.4,166.7 l 8.4,-24.6 39.5,-18 36.3,-37.9 35.9,-19.4 c 41.1,-27.6 98.4,-73.8 117.1,-121.1 1.9,-4.7 2,-10 3,-15 -117.2,-102.8 -238.5,-200.5 -363.7,-293.3 -30.4,-22.6 -131.1,-83.9 -145.3,-106.7 -10.5,-16.9 -13.3,-50.4 -16.4,-70.5 -2.4,78.6 -20.5,267.4 5.3,333.1 2.1,72.2 24,125.5 48.4,192.6" /><path
         id="path250"
         style="fill:#f9ae84;fill-opacity:1;fill-rule:nonzero;stroke:none"
         d="m 10631.3,10496.4 c 41.1,-27.6 98.4,-73.8 117.1,-121.1 1.9,-4.7 2,-10 3,-15 -117.2,-102.8 -238.5,-200.5 -363.7,-293.3 -30.4,-22.6 -131.1,-83.9 -145.3,-106.7 -10.5,-16.9 -13.3,-50.4 -16.4,-70.5 -2.4,78.6 -20.5,267.4 5.3,333.1 7.6,-59.6 1.1,-126.5 0.4,-186.9 160.9,97.4 314.3,233.5 452.9,360.5 l -53.3,99.9" /><path
         id="path252"
         style="fill:#f14b45;fill-opacity:1;fill-rule:nonzero;stroke:none"
         d="m 6347.42,7908 c 146.77,1.5 293.55,1.5 440.33,0 l 1.03,-413.3 -434.75,-0.2 -6.61,413.5" /><path
         id="path254"
         style="fill:#94bde8;fill-opacity:1;fill-rule:nonzero;stroke:none"
         d="m 2939.57,5068.5 37.63,-2.8 c 13.81,-16.2 17.49,-21.2 19.69,-43.3 4.23,-42.7 -3.29,-89.6 -3.41,-132.9 l 0.06,-364.3 -0.1,-1201.3 c 73.77,-15.8 350.32,-123.7 422.21,-161 -329.59,-0.4 -659.59,-6.6 -989.09,1.5 168.43,50.4 343.9,101.1 505.49,170.1 l 0.12,1126.4 c -0.1,199.6 -11.78,409.2 7.4,607.6" /><path
         id="path256"
         style="fill:#ffffff;fill-opacity:1;fill-rule:nonzero;stroke:none"
         d="m 2939.57,5068.5 37.63,-2.8 c 13.81,-16.2 17.49,-21.2 19.69,-43.3 4.23,-42.7 -3.29,-89.6 -3.41,-132.9 l 0.06,-364.3 -0.1,-1201.3 -36.97,0.6 c -17.63,21.4 -20.25,41 -20.67,68.8 -1.19,77.9 5.6,157.8 5.6,236.2 0.06,479 10.22,960.3 -1.83,1439" /><path
         id="path258"
         style="fill:#ffffff;fill-opacity:1;fill-rule:nonzero;stroke:none"
         d="m 8748.57,3615.9 c 152.28,12.3 312.11,2.7 465.12,2.8 275.97,1.6 551.94,0.7 827.91,-2.7 -74.7,-40.8 -153.62,-72.1 -233.56,-100.8 -76.63,-23.8 -158.73,-44.6 -231.61,-78.2 -76.86,-35.5 -106,-68.1 -135.05,-145.2 l -6.19,-16.6 c -26.05,-18.2 -31.14,-22.3 -62.41,-24.8 -58.27,25 -69.66,68.6 -91.38,122.8 -159.31,106.2 -362.98,150.8 -532.83,242.7" /><path
         id="path260"
         style="fill:#ffffff;fill-opacity:1;fill-rule:nonzero;stroke:none"
         d="m 6989.09,3624.6 734.04,0.4 c 177.2,-0.2 356.68,5.3 533.34,-9.2 -83.84,-50.8 -174.34,-85.5 -265.13,-121.4 -157.94,-53.8 -270.91,-99.1 -378.46,-233.3 l -24.12,26.1 c -159.69,174.1 -401.49,220.4 -599.67,337.4" /><path
         id="path262"
         style="fill:#ffffff;fill-opacity:1;fill-rule:nonzero;stroke:none"
         d="m 10599.6,3615.5 c 151.7,9.4 309.3,0.8 461.7,0.8 l 898.4,-1.4 c -78.9,-41.3 -163.3,-71.6 -246.1,-103.9 -112.3,-38.5 -232.8,-74.2 -336.6,-132.4 -17.3,-36.8 -25.4,-97.5 -67.4,-112.3 -24.4,-8.7 -63.3,-2.2 -78.1,18 -30.6,41.8 -64.1,93.6 -104.5,125.7 -76.6,60.7 -401.2,140 -527.4,205.5" /><g
         transform="scale(1.13966)"
         id="g264"><path
           id="path266"
           style="fill:#fafdfd;fill-opacity:1;fill-rule:nonzero;stroke:none"
           d="m 16212.3,6392.95 c 29.5,-1.15 49.9,-1.24 74.5,-20.19 12.8,-19.65 13.2,-33.69 11.4,-56.24 -15,-182.6 -50.7,-368.71 -75.2,-550.87 -46.6,-345.97 -90.5,-694.85 -148.8,-1038.9 -23.2,-7.2 -45.2,-9.48 -68.1,-0.62 -4.9,100.03 15.5,209.72 26.4,309.4 26.9,234.36 55.2,468.56 84.8,702.57 23.5,193.83 30,394.94 63.3,586.58 4.9,28.43 14.4,45.36 31.7,68.27" /></g><path
         id="path268"
         style="fill:#ffffff;fill-opacity:1;fill-rule:nonzero;stroke:none"
         d="m 6499.56,6050.4 c 198.33,20.5 581.27,11.7 759.24,-73.8 29.43,-14.1 47.16,-26.3 58.06,-57.3 l -16.42,-20.4 c -123.65,-60.4 -289.06,-55 -424.2,-56 -140.32,-0.6 -280.64,-0.1 -420.95,1.3 -91.71,1.3 -355.17,-8.6 -409.91,68.9 -7.07,10 -1.05,20.2 1.47,30.9 96.59,93.1 323.64,96.4 452.71,106.4" /><g
         transform="scale(1.10957)"
         id="g270"><path
           id="path272"
           style="fill:#fafdfd;fill-opacity:1;fill-rule:nonzero;stroke:none"
           d="m 16181.8,6408.69 118.2,-0.9 c -20,-316.51 -61.5,-635.92 -96.1,-951.35 -22.4,-203.96 -34.6,-417.73 -73.3,-618.89 l -115.4,0.54 c 20.4,167.99 35.2,336.71 55.7,504.7 43.2,354.64 89.9,709.01 110.9,1065.9" /></g><g
         transform="scale(1.04798)"
         id="g274"><path
           id="path276"
           style="fill:#fafdfd;fill-opacity:1;fill-rule:nonzero;stroke:none"
           d="m 16228.7,6785.18 c 25.7,-0.86 45.3,-0.58 68.4,-13.26 2.9,-82.07 -166.5,-1647.37 -167.3,-1648.81 -7.2,-11.35 -31,-10.97 -43.6,-13.35 -27,1.24 -48,1.43 -72.5,14.6 -13.3,84.83 146.9,1582.47 170,1629.81 11.1,22.99 22.2,22.42 45,31.01" /></g><g
         transform="scale(1.14076)"
         id="g278"><path
           id="path280"
           style="fill:#94bde8;fill-opacity:1;fill-rule:nonzero;stroke:none"
           d="m 15980.3,4607.54 c 25.9,1.67 47.4,1.4 73,-2.19 1.2,-2.2 2.7,-4.3 3.6,-6.58 22.5,-52.86 47.4,-375.36 57.5,-450.4 62.6,-435.93 122.2,-872.31 178.9,-1309.04 2.6,-22 6.7,-38.3 -2.3,-59.43 -28.2,-0.35 -53.4,-0.61 -80.9,5.87 -4.7,11.66 -5.4,12.54 -9,26.83 -22.5,90.29 -240.6,1733.75 -231.3,1776.53 1.6,6.93 7,12.27 10.5,18.41" /></g><path
         id="path282"
         style="fill:#ffffff;fill-opacity:1;fill-rule:nonzero;stroke:none"
         d="m 8275.11,6020.2 c 210.1,9.8 683.5,21.6 863.06,-56.6 24.84,-10.8 34.47,-17.2 44.07,-42.4 -1.6,-2.8 -2.85,-5.9 -4.82,-8.4 -55.23,-71.9 -355.92,-81.4 -449.38,-88.6 -191.57,-5.1 -722.82,-4.7 -889.82,56.4 -27.22,10 -44.35,22.2 -56.28,48.3 l 14.27,18.3 c 131.12,66.3 332.64,62.6 478.9,73" /><g
         transform="scale(1.06327)"
         id="g284"><path
           id="path286"
           style="fill:#fafdfd;fill-opacity:1;fill-rule:nonzero;stroke:none"
           d="m 16185.6,6687.48 114.4,0.85 c -24.4,-310.83 -63.3,-621.85 -96.9,-931.94 -25.7,-238.13 -44.5,-479.37 -78.8,-716.37 -35.1,-0.94 -66.6,-2.26 -100.9,6.39 -34.4,58.03 133.6,1464.35 162.2,1641.07" /></g><path
         id="path288"
         style="fill:#ffffff;fill-opacity:1;fill-rule:nonzero;stroke:none"
         d="m 13327.5,6033.4 c 390,-4.2 780,-4.8 1170.1,-1.9 v -194.3 c -389.2,-9.8 -780.8,-2.2 -1170.3,-3 l 0.2,199.2" /><g
         transform="scale(1.07887)"
         id="g290"><path
           id="path292"
           style="fill:#fafdfd;fill-opacity:1;fill-rule:nonzero;stroke:none"
           d="m 16177.1,6590.78 c 41,-0.28 82,-4.55 122.9,-7.7 -9.8,-183.98 -35.1,-369.92 -55.8,-553.07 l -123.8,-1056.48 -119,1.02 c 62.3,538.34 120.9,1077.05 175.7,1616.23" /></g><g
         transform="scale(1.09469)"
         id="g294"><path
           id="path296"
           style="fill:#fafdfd;fill-opacity:1;fill-rule:nonzero;stroke:none"
           d="m 16175.4,6494.46 124.6,1.1 c -52.4,-532.76 -112.4,-1064.79 -179.8,-1595.9 -38.9,-2.1 -78.3,-0.36 -117.3,-0.09 21.7,144.24 30.1,292.23 47,437.3 47.7,385.22 89.5,771.09 125.5,1157.59" /></g><path
         id="path298"
         style="fill:#ffffff;fill-opacity:1;fill-rule:nonzero;stroke:none"
         d="m 11693.7,6030.4 c 188,12.2 1012.1,35.5 1131.4,-49.9 18.3,-13.1 13.6,-18 16.5,-38.9 -55.8,-66.6 -138.5,-75.5 -219.8,-87.5 -239.8,-43.1 -773.6,-46.7 -998.8,20.9 -45.8,13.8 -115.6,39 -139.7,82.5 l 7.3,19.6 c 61,39.9 132.6,44.8 203.1,53.3" /><g
         transform="scale(1.03521)"
         id="g300"><path
           id="path302"
           style="fill:#fafdfd;fill-opacity:1;fill-rule:nonzero;stroke:none"
           d="m 16075.9,4114.99 c 10.3,190.78 37.8,383.59 58.7,573.6 11.4,103.07 15.5,211.84 30.4,313.56 2.7,18.84 10.3,36.03 23.3,50.04 12,12.84 24.3,16.13 40.5,20.67 24,-6.47 35,-7.34 47.2,-31.68 24,-47.82 -183.4,-1731.82 -202.1,-1979.4 -40.4,-2.41 -80.6,-5.7 -121.1,-4.35 46.9,290.57 61.2,585.1 100.1,876.44 40.8,64.82 25.7,108.87 23,181.12" /></g><path
         id="path304"
         style="fill:#94bde8;fill-opacity:1;fill-rule:nonzero;stroke:none"
         d="m 7505.25,9239.3 c 86.59,2.3 173.69,-0.1 260.33,-0.6 5.1,-259.8 -7.01,-520 -2.58,-780.1 26.84,-21.4 86.62,-57.3 94.68,-90.4 -25.59,-15.4 -45.68,-12 -75.21,-12.8 -129.62,-1.6 -259.22,-0.5 -388.78,3.3 38.82,37.1 69.91,71.2 99.45,116.6 10.44,254.1 9.53,509.6 12.11,764" /><path
         id="path306"
         style="fill:#3e708e;fill-opacity:1;fill-rule:nonzero;stroke:none"
         d="m 6335.25,8524.1 c 155.7,6 311.87,2.1 467.66,0.4 -0.21,-177.2 9.69,-361.1 -12.78,-537 -149.11,-2.1 -298.22,-2.4 -447.33,-0.9 3.79,179.4 -12.09,358 -7.55,537.5" /><path
         id="path308"
         style="fill:#94bde8;fill-opacity:1;fill-rule:nonzero;stroke:none"
         d="m 8472.3,10555.9 42.65,-10 c 53.07,-41.7 112.37,-78 168.5,-115.6 17,-192.3 7.8,-392.9 9,-586.1 l -389.01,0.4 c -1.07,100.4 -27.31,525.9 17.06,588.5 33.33,47.1 104.11,67.1 144.72,114.3 2.4,2.8 4.72,5.7 7.08,8.5" /><path
         id="path310"
         style="fill:#fafdfd;fill-opacity:1;fill-rule:nonzero;stroke:none"
         d="m 8445.88,10493.3 c 22.31,-14.8 23.07,-22.3 33.83,-47.3 -3.89,-36.6 -3.26,-38 -28.45,-64.5 -8,2.9 -21.86,7.4 -28.75,11.9 -20.83,13.3 -21.62,25.8 -26.86,48 14.87,30.9 22.33,33.8 50.23,51.9" /><path
         id="path312"
         style="fill:#ffffff;fill-opacity:1;fill-rule:nonzero;stroke:none"
         d="m 10094.4,6030.2 c 44.6,4.2 90.8,4.4 135.7,4.9 176.4,1.9 734,36.5 852.5,-79.1 l -8.3,-29.2 c -137.6,-94.3 -388.6,-89.5 -549.4,-95.2 -258.6,-14.5 -557.31,-16.4 -810.39,40.3 -43.16,9.7 -131.25,23.4 -155.95,62.3 l 9.29,17.8 c 147.93,74.5 363.95,66.4 526.55,78.2" /><path
         id="path314"
         style="fill:#ffffff;fill-opacity:1;fill-rule:nonzero;stroke:none"
         d="m 12220.2,5709.3 c 20.9,-0.7 25.6,-0.9 43.4,-11.6 14.7,-42.1 13.6,-1799.1 2.2,-1961.8 -28.4,-13.3 -62,-12.2 -93.2,-14.5 -24.8,0.1 -13,-2.6 -35.5,7.9 -25.6,56.9 -6.3,199.1 -5.9,266.2 l 5.5,1330.1 c 1,91.2 -11.1,183.3 -7.9,273.8 1.1,29 7.2,55.7 15.8,83.3 25,26.4 40.3,22.2 75.6,26.6" /><path
         id="path316"
         style="fill:#94bde8;fill-opacity:1;fill-rule:nonzero;stroke:none"
         d="m 9147.34,10550.6 c 3.93,112 13.15,218.7 -7.09,329.7 13.19,16.5 6.75,15.6 25.36,16.6 20.86,1.1 32.68,-4.6 51.3,-12.6 -3.3,-20.8 1.17,-8 -11.77,-25.2 -52.85,-70.3 -11.96,-241.6 -16.05,-329.6 67.75,-31.2 129.97,-61.9 191.2,-104.6 -1.21,-195 -12.53,-390.3 -11.32,-585.1 l -400.87,-0.4 5.64,577.2 c 28.15,27.1 59.98,49.3 91.37,72.3 l 82.23,61.7" /><path
         id="path318"
         style="fill:#fafdfd;fill-opacity:1;fill-rule:nonzero;stroke:none"
         d="m 9065.11,10488.9 c 31.42,-13.2 36.05,-12.9 53.3,-41.7 0.82,-28.5 0.3,-30.1 -15.62,-53.8 -20.89,-11.2 -39.81,-21 -64.29,-14.3 -23.23,6.3 -45.94,23.3 -64.76,37.5 28.15,27.1 59.98,49.3 91.37,72.3" /><path
         id="path320"
         style="fill:#ffffff;fill-opacity:1;fill-rule:nonzero;stroke:none"
         d="m 10069.2,10999.6 c 54.8,-9.3 177.2,-16.8 228,2.6 -2.3,-21.9 -4,-44 -8.1,-65.7 19.5,-29.3 27.9,-35.9 62.6,-43.8 57.5,-13.1 178.3,26.1 213,-20.9 l -4.2,-41.6 c -6.3,-92.9 -4.7,-183.6 -1.4,-276.5 l -39.5,18 -8.4,24.6 c -18.6,-58.3 -140.2,-138.7 -197.4,-166.7 -11.1,-5.4 -22.5,-9.9 -34.1,-14.1 -24.4,-67.1 -46.3,-120.4 -48.4,-192.6 -25.8,-65.7 -7.7,-254.5 -5.3,-333.1 l -2.1,-54.8 c -27.6,0.4 -50.8,0.6 -77.2,10 -47.3,103 12.1,433.9 -16.1,576.7 -18.1,91.9 -91.1,121.9 -163.07,169 -2.56,76.2 14.81,158.6 3.72,233.9 -4.33,29.3 -13.55,30.2 -37.03,45.8 31.92,23.4 74.78,30.6 108.18,54.2 4.9,3.5 9.7,7.1 14.5,10.7 1.5,22.3 7.1,42.6 12.3,64.3" /><path
         id="path322"
         style="fill:#5f6e85;fill-opacity:1;fill-rule:nonzero;stroke:none"
         d="m 10069.2,10999.6 c 54.8,-9.3 177.2,-16.8 228,2.6 -2.3,-21.9 -4,-44 -8.1,-65.7 -51.4,23.6 -176.9,13.1 -232.2,-1.2 1.5,22.3 7.1,42.6 12.3,64.3" /><path
         id="path324"
         style="fill:#1e2a31;fill-opacity:1;fill-rule:nonzero;stroke:none"
         d="m 10279.7,10415.5 c 16.3,100.9 91.9,97.6 125.7,175.1 34.8,80.1 4.9,187.9 23.3,273.9 6.9,3.2 14.5,7.2 22.3,7.6 27.3,1.5 36,-6.2 54.3,-23.2 25.6,-68.5 7.5,-179.1 5.9,-252.6 -18.6,-58.3 -140.2,-138.7 -197.4,-166.7 -11.1,-5.4 -22.5,-9.9 -34.1,-14.1" /><path
         id="path326"
         style="fill:#94bde8;fill-opacity:1;fill-rule:nonzero;stroke:none"
         d="m 6636.34,5718.9 c 57.34,1.9 115.11,-1 172.47,-2.4 -6.74,-666.3 -8.95,-1332.6 -6.63,-1999 l -165.6,0.5 c -5.34,404.3 -7.18,808.7 -5.52,1213.1 0.4,262.1 -4.81,525.9 5.28,787.8" /><path
         id="path328"
         style="fill:#94bde8;fill-opacity:1;fill-rule:nonzero;stroke:none"
         d="m 7353.41,8252.2 c 190.83,1.9 381.66,1.4 572.49,-1.5 10.72,-249 2.8,-501.3 2.62,-750.6 -191.43,-7.5 -383.96,-4.7 -575.55,-5.8 l 0.44,757.9" /><path
         id="path330"
         style="fill:#f14b45;fill-opacity:1;fill-rule:nonzero;stroke:none"
         d="m 6215.51,5674.1 c 101.12,-8.1 229.52,-13.7 329.54,2.6 -30.81,-133.6 -6.57,-527.7 -7.25,-690.6 -324.29,0.8 -653.41,13.8 -977.13,0.5 64.3,84.3 581.66,670.5 654.84,687.5" /><path
         id="path332"
         style="fill:#94bde8;fill-opacity:1;fill-rule:nonzero;stroke:none"
         d="m 12391.8,6823.2 3390.4,-7.1 0.3,-152.2 c -123.3,-14.5 -253.4,-7.3 -377.6,-6.8 -196.8,1.4 -393.5,1.1 -590.2,-0.7 -807.5,-8 -1615.1,-10.8 -2422.6,-8.3 l -0.3,175.1" /><path
         id="path334"
         style="fill:#ffffff;fill-opacity:1;fill-rule:nonzero;stroke:none"
         d="m 4698.34,3635.7 1799.58,-0.2 -348.66,-148.7 c -29.59,-13.1 -58.71,-27.1 -87.36,-42.1 -115.33,-60.3 -173.92,-128 -212.5,-251.6 -384.29,7.6 -769.52,3.1 -1153.93,3.4 -1.39,146.4 -0.44,292.8 2.87,439.2" /><path
         id="path336"
         style="fill:#3e708e;fill-opacity:1;fill-rule:nonzero;stroke:none"
         d="m 5496.32,9739.6 c 269.97,10.7 542.63,3.9 812.88,4.4 l 2116.63,-9.5 1572.06,-1.7 c 280.41,-0.2 578.81,20.6 857.11,-10 -33.6,-2.3 -70.1,1.4 -97.9,-18.1 -0.1,-31.3 6.8,-59.3 13.8,-89.6 l 252.4,-12.9 c -205.7,-14.5 -420.8,-1.6 -627.4,-1 l -1167.34,-1.3 c -1242.98,-7 -2485.94,-4.3 -3728.87,8.3 l -3.37,131.4" /><path
         id="path338"
         style="fill:#ffffff;fill-opacity:1;fill-rule:nonzero;stroke:none"
         d="m 12422,3614.3 1255.8,1.5 c -153,-98.7 -566.9,-194.3 -641.4,-348.5 -0.2,-28.7 0.6,-49.7 19.7,-73.7 27.9,-34.9 80.6,-42.3 122.3,-44.1 65.9,-2.9 134.6,7.1 200.8,8.7 95.5,2.3 191.6,-0.6 287.2,-1.9 224.9,-3.1 449.7,-5.1 674.7,-5.9 118.3,-0.6 240.6,-7.3 358.7,1.9 32.4,2.5 56.3,4 81.4,26.8 12.9,22.7 19.5,38 13.6,64.6 -25.8,116.6 -494.1,289 -607.2,357.8 l -14.6,9 c 586.8,20.9 1180.4,8.1 1767.8,3.3 3.2,-72.4 24.1,-385.1 -8.6,-429.4 l -42.9,-2.1 c -310.3,-2.4 -623.8,4.4 -933.6,-9.3 -125.2,-5.5 -247.9,-33.5 -373.5,-35.6 -749.9,-12.9 -1501.3,-2.3 -2251.3,-2 l -706.9,1.2 c -97.9,0.4 -218.9,-12.5 -314.3,7.9 l 21.7,-1.7 0.2,8.3 c 4.6,-1.2 9.1,-3.1 13.9,-3.5 58,-5.2 126.3,3.4 185.2,4.6 152.6,3.3 305.1,5.4 457.7,6.3 l 637.8,-0.3 c 99.6,-0.6 203.3,-9 302.4,-3.6 27.4,1.5 52.4,8.7 73.2,27.7 21.8,19.9 22.5,32.8 26.7,60.2 -41.8,146.4 -465.4,266.3 -606.5,371.8" /><path
         id="path340"
         style="fill:#f14b45;fill-opacity:1;fill-rule:nonzero;stroke:none"
         d="m 12379,5684.1 c 30.1,-17.9 72,-13.7 106.5,-13.7 105.5,0.2 214.8,15.4 313,55.4 74.2,30.3 150.5,71.4 230.4,83.1 52.5,7.7 111.3,-6.6 161.1,-22.5 19.2,-31.6 38.8,-54.8 75.9,-65.2 130.8,-36.8 307.4,-6.9 444.2,-9.1 4.3,-232.9 6.7,-465.9 7.3,-698.8 l -1336.5,0.9 1.1,462.7 c -0.1,65.9 6,142.2 -3,207.2" /><path
         id="path342"
         style="fill:#f14b45;fill-opacity:1;fill-rule:nonzero;stroke:none"
         d="m 10125,5698.3 c 26.5,-62.3 8.2,-583.5 8.2,-694.4 -488.18,1.4 -978.23,6.7 -1466.31,-4.9 l 1.63,429 c 0.22,74.1 9.09,162.5 -4.41,235.1 138.68,-24.5 315.66,-23.6 452.4,5.8 92.18,-37 529.76,-14.3 652.56,-7.4 110.13,-3.1 261.13,-24.7 355.93,36.8" /><path
         id="path344"
         style="fill:#f14b45;fill-opacity:1;fill-rule:nonzero;stroke:none"
         d="m 7759.48,5787.9 c 104.44,-42.2 500.23,-77.5 506.8,-82.2 3.79,-2.8 13.58,-22.6 15.88,-27.7 -21.12,-224.1 -3.51,-466.9 -2.48,-692.7 -446.18,1.4 -895,-13.2 -1340.77,-1 0.96,138.4 23.04,562.9 -5.55,671.7 90.01,-12.4 208.88,-2.2 299.55,13.7 61.75,10.9 91.65,17.3 128.4,69.7 96.53,1.9 186.63,1.8 282.03,-15.1 l 73.67,-30.1 c 0.16,40.7 17.99,63.2 42.47,93.7" /><path
         id="path346"
         style="fill:#fafdfd;fill-opacity:1;fill-rule:nonzero;stroke:none"
         d="m 7759.48,5787.9 c 104.44,-42.2 500.23,-77.5 506.8,-82.2 3.79,-2.8 13.58,-22.6 15.88,-27.7 -110.94,-35.3 -456.7,-20.2 -565.15,16.2 0.16,40.7 17.99,63.2 42.47,93.7" /><path
         id="path348"
         style="fill:#94bde8;fill-opacity:1;fill-rule:nonzero;stroke:none"
         d="m 14955,12365.9 c 362.4,1.9 731.2,17.6 1092.8,-2 l 0.1,-375.4 c -509.8,-17.9 -1025.7,-1.9 -1536.2,-1.1 l -1091.6,1.2 -0.3,371.6 1535.2,5.7" /><path
         id="path350"
         style="fill:#94bde8;fill-opacity:1;fill-rule:nonzero;stroke:none"
         d="m 4516.28,12360.9 2625.82,-0.5 c 0.24,-124.2 9.37,-255.8 -3.55,-379.1 l -2619.57,5.8 c -2.81,124.6 -3.71,249.2 -2.7,373.8" /><path
         id="path352"
         style="fill:#f14b45;fill-opacity:1;fill-rule:nonzero;stroke:none"
         d="m 12390.9,11870.2 3048.9,-1.6 c 2.2,-106.7 8.9,-218.8 -3.2,-324.9 -694.5,-5.1 -1389.1,-6.1 -2083.6,-2.8 l -599.7,-0.4 c -117.5,-0.9 -237.6,-7.8 -354.8,-2 -20.5,103.4 -8,226.1 -7.6,331.7" /><path
         id="path354"
         style="fill:#f14b45;fill-opacity:1;fill-rule:nonzero;stroke:none"
         d="m 10529.3,5693 c 83.7,-64 393.2,-12.9 494.1,21.3 80.7,27.3 171.2,90.7 256.5,95.2 66.8,3.6 156.5,-54 219.5,-77.9 130.7,-49.6 308.1,-89.9 447.3,-71.6 35.9,4.7 42.6,8.7 64.5,37.6 -10.9,-79.1 -2.2,-167.8 -1.1,-248.2 l 4.2,-433.1 c -500.3,3.6 -1000.5,3.6 -1500.8,-0.2 0.2,191.3 -21.5,497.6 15.8,676.9" /><path
         id="path356"
         style="fill:#94bde8;fill-opacity:1;fill-rule:nonzero;stroke:none"
         d="m 10370.1,12360.3 2930.5,-0.1 c 0.8,-121.2 9.4,-252 -4.7,-372.2 l -2924.1,-5.9 -1.7,378.2" /><path
         id="path358"
         style="fill:#94bde8;fill-opacity:1;fill-rule:nonzero;stroke:none"
         d="m 7265,12360.8 h 2986.4 l -2.7,-376.9 -2983.94,-1.4 0.24,378.3" /><g
         transform="scale(1.11727)"
         id="g360"><path
           id="path362"
           style="fill:#94bde8;fill-opacity:1;fill-rule:nonzero;stroke:none"
           d="m 15212.2,4696.72 978.2,1.61 c 21.4,-97.03 25.9,-202.37 37.1,-301.27 18.3,-178.83 42.5,-356.85 72.5,-534.16 -31,-2.69 -63,-2.15 -94.2,-3.14 l -1094.8,-4.92 c 22.9,264.22 41,586.7 101.2,841.88" /></g><path
         id="path364"
         style="fill:#f14b45;fill-opacity:1;fill-rule:nonzero;stroke:none"
         d="m 5642.13,4666.4 c 100.2,20.6 223.16,8.8 325.78,8.2 l 570.29,-3.9 0.06,-912.4 -997.57,2.2 c -165.66,0.3 -338.15,-9.9 -503.08,2.8 0.36,68.1 2.07,135.2 8.24,203.1 115.25,172.8 271.17,341 415.11,490.4 61.63,63.9 144.38,126 193.67,198.9 l -12.5,10.7" /><g
         transform="scale(1.12643)"
         id="g366"><path
           id="path368"
           style="fill:#94bde8;fill-opacity:1;fill-rule:nonzero;stroke:none"
           d="m 14947.1,3517.13 c 422.4,1.6 845.5,5.51 1267.8,0 6.4,-61.08 85.1,-672.48 80.2,-685.53 -1.8,-4.97 -6.2,-8.7 -9.2,-13.05 l -42.5,-2.13 -1371.9,-1.77 c 22.3,233.83 42.4,470.07 75.6,702.48" /></g><path
         id="path370"
         style="fill:#f14b45;fill-opacity:1;fill-rule:nonzero;stroke:none"
         d="m 12380.7,4648.1 c 445.6,-12.7 892.9,2.7 1338.8,-1.9 v -903.6 c -443.8,18.1 -893.9,4.2 -1338.5,4.5 l -0.3,901" /><path
         id="path372"
         style="fill:#f14b45;fill-opacity:1;fill-rule:nonzero;stroke:none"
         d="m 15503.7,11482.6 c 94.9,0 191.1,3.3 285.8,-2.9 l 5.9,-4210.1 c -69.7,-0.7 -141.7,2.1 -211,-4.2 l -89.2,0.4 c -13.9,158.7 -4,324.4 -3.5,483.8 l 2.8,878.1 9.2,2854.9" /><path
         id="path374"
         style="fill:#f14b45;fill-opacity:1;fill-rule:nonzero;stroke:none"
         d="m 6927.58,4672.6 c 450.23,-4.3 901.41,7 1351.42,-4.5 l 2.59,-921.3 c -449.48,6.5 -899.93,-0.4 -1349.49,-2 l -4.52,927.8" /><path
         id="path376"
         style="fill:#f14b45;fill-opacity:1;fill-rule:nonzero;stroke:none"
         d="m 8667.17,4658 c 486.45,-7.9 973.8,-3.4 1460.33,-4.2 -3.2,-301.7 4.8,-604.5 6.9,-906.2 l -1461.93,0.7 -5.3,909.7" /><path
         id="path378"
         style="fill:#f14b45;fill-opacity:1;fill-rule:nonzero;stroke:none"
         d="m 10508.1,4657 1511.6,-1.7 2.3,-908.1 c -504.4,8 -1009.4,-3.1 -1513.9,2.9 V 4657" /><path
         id="path380"
         style="fill:#ffffff;fill-opacity:1;fill-rule:nonzero;stroke:none"
         d="m 2472.78,6566.2 c 310.88,5.5 622.35,1.8 933.3,1.9 48.33,-204 185.06,-728.8 159.17,-913.5 -22.19,-158.2 -112.77,-271.1 -235.29,-364.9 -158.59,-99.1 -341.63,-127.5 -524.12,-88.6 -159.31,33.9 -300.79,115.4 -389.2,256.3 -10.78,16.9 -20.56,34.3 -29.33,52.3 -8.76,18 -16.44,36.5 -23.05,55.4 -6.62,18.9 -12.12,38.1 -16.5,57.7 -4.38,19.5 -7.61,39.2 -9.69,59.1 -25.53,229.9 83.63,644.5 134.71,884.3" /><path
         id="path382"
         style="fill:#d82a27;fill-opacity:1;fill-rule:nonzero;stroke:none"
         d="m 2651.69,5385.9 c 208.9,72.4 423.66,164.3 618.27,269.8 49.44,26.8 221.06,152.1 250.07,156.8 12.44,-28.7 8.2,-64.2 8.18,-95.5 -31.87,-142.9 -113.45,-262.9 -236.27,-343.3 -7.85,-5.1 -15.81,-10 -23.88,-14.8 -8.08,-4.7 -16.28,-9.3 -24.58,-13.6 -8.3,-4.3 -16.7,-8.5 -25.2,-12.4 -8.51,-3.9 -17.1,-7.6 -25.77,-11.1 -8.69,-3.5 -17.46,-6.8 -26.3,-9.9 -8.85,-3.1 -17.77,-6 -26.75,-8.6 -8.99,-2.7 -18.03,-5.1 -27.12,-7.3 -9.11,-2.2 -18.26,-4.2 -27.46,-5.9 -9.21,-1.8 -18.44,-3.3 -27.71,-4.6 -9.28,-1.3 -18.58,-2.4 -27.9,-3.3 -9.32,-0.8 -18.67,-1.5 -28.03,-1.8 -9.36,-0.4 -18.72,-0.6 -28.09,-0.6 -9.36,0.1 -18.71,0.4 -28.06,0.9 -9.35,0.5 -18.69,1.3 -28.01,2.2 -9.31,1 -18.59,2.2 -27.86,3.6 -9.26,1.4 -18.47,3.1 -27.65,5 -78.05,16.6 -144.46,49.3 -209.88,94.4" /><path
         id="path384"
         style="fill:#f14b45;fill-opacity:1;fill-rule:nonzero;stroke:none"
         d="m 2452.41,6053.8 c 341.91,-4.6 684.47,1.7 1026.42,3.5 48.74,-106.2 70.76,-224.7 49.38,-340.3 0.02,31.3 4.26,66.8 -8.18,95.5 -29.01,-4.7 -200.63,-130 -250.07,-156.8 -194.61,-105.5 -409.37,-197.4 -618.27,-269.8 -49.44,31.7 -100.36,78.5 -135.84,124.8 -124.03,162.2 -90.26,356.7 -63.44,543.1" /><path
         id="path386"
         style="fill:#ffffff;fill-opacity:1;fill-rule:nonzero;stroke:none"
         d="m 5489.89,7191.4 3196.26,1.8 3590.05,-2.6 c 1.5,-78.9 0.5,-158 0.6,-236.9 l -6787.49,-3.4 c -0.75,80.3 0.34,160.8 0.58,241.1" /><path
         id="path388"
         style="fill:#fafdfd;fill-opacity:1;fill-rule:nonzero;stroke:none"
         d="m 4882.65,6820.7 c 1015.14,8.2 2030.3,10.3 3045.47,6.1 l 4346.68,2.2 -0.6,-211.3 -4762.02,1 -1623.27,-0.5 c -282,0.2 -567.37,-7.8 -849,4.5 -2.86,-885.5 -0.88,-1770.9 5.94,-2656.3 -6.17,-67.9 -7.88,-135 -8.24,-203.1 l -152.36,-0.1 c -11,131.2 -6.37,266.1 -6.61,397.9 l 0.02,661.7 3.99,1997.9" /><path
         id="path390"
         style="fill:#f9ae84;fill-opacity:1;fill-rule:nonzero;stroke:none"
         d="m 4883.44,11619.6 c 47.67,3.6 92.17,16.3 140.75,17.4 l 1.07,-8.4 c 107.75,-0.3 217.96,4.1 325.39,-2.7 9.41,-222.7 4.8,-447 5.3,-669.8 1.68,-415.4 0.62,-830.8 -3.16,-1246.2 l -2.66,-2415.7 c -154.76,0.2 -315.54,-8.2 -469.43,6.4 -19.53,530.5 -4.46,1067.4 -3.43,1598.5 l 6.17,2720.5" /><path
         id="path392"
         style="fill:#ffffff;fill-opacity:1;fill-rule:nonzero;stroke:none"
         d="m 4883.44,11619.6 c 47.67,3.6 92.17,16.3 140.75,17.4 l 1.07,-8.4 c 10.34,-786 12.68,-1572 7.01,-2358 l -3.85,-1967.5 c -49.04,-0.4 -98.86,1.2 -147.72,-2.5 -19.53,530.5 -4.46,1067.4 -3.43,1598.5 l 6.17,2720.5" /><path
         id="path394"
         style="fill:#f14b45;fill-opacity:1;fill-rule:nonzero;stroke:none"
         d="m 5492.88,11866.4 6784.72,3.4 c 1.6,-100.7 18,-229.7 -4.6,-327.1 l -6775.99,1.5 c -8.06,106.8 -4.36,215.2 -4.13,322.2" /><path
         id="path396"
         style="fill:#ffffff;fill-opacity:1;fill-rule:nonzero;stroke:none"
         d="m 10375,14013.3 c 497.4,10.1 996.7,1.3 1494.2,-0.2 124.6,-112 1357.5,-1509.2 1361.9,-1536 l -2859.2,-3.9 c -2.9,512.9 -8.5,1027.3 3.1,1540.1" /><path
         id="path398"
         style="fill:#ffffff;fill-opacity:1;fill-rule:nonzero;stroke:none"
         d="m 8928.17,14018.1 1325.33,-0.7 -1.3,-1539.5 c -521.19,2.9 -1042.38,2.7 -1563.57,-0.4 -444.63,-3.5 -889.27,-4.7 -1333.91,-3.7 l 1018.23,1125.6 c 121.41,134.6 228.74,286.2 355.13,415.1 l 200.09,3.6" /><path
         id="path400"
         style="fill:#ffffff;fill-opacity:1;fill-rule:nonzero;stroke:none"
         d="m 14086.1,14018 h 116.4 c 163.2,-162 337.4,-308.7 508.1,-462.4 396,-356.7 796.9,-709.3 1184.6,-1074.9 -686.6,2.7 -1373.2,-0.3 -2059.8,-8.9 l -435.1,0.1 c -142.8,174.2 -299.1,339.2 -446.6,509.6 -301.5,348.1 -602.4,699.1 -919.2,1033.4 l 2051.6,3.1" /><path
         id="path402"
         style="fill:#ffffff;fill-opacity:1;fill-rule:nonzero;stroke:none"
         d="m 6377.7,14014.5 2198.84,-0.7 c -213.12,-267.2 -456.59,-509.9 -684.41,-764.2 -230.39,-257.2 -450.65,-533 -701.94,-769.8 -71.18,-7 -144.86,-4.1 -216.43,-4.6 l -2229.29,-2.3 c 330.55,319.3 670.67,629.1 1001.83,948.1 189.83,182.9 421.62,445.5 631.4,593.5" /><path
         id="path404"
         style="fill:#ffffff;fill-opacity:1;fill-rule:nonzero;stroke:none"
         d="m 3622.29,6113.2 c 73.78,-15.6 266.58,-203.4 347.35,-254.1 251.1,-157.7 527.56,-239.9 784.06,-376.8 1.68,-234.4 1.39,-468.8 -0.86,-703.2 -0.73,-124.3 -10.32,-258.4 4.07,-381.8 15.87,-205.6 2.37,-423.5 3,-630.4 -25.27,-0.2 -50.65,-0.4 -75.9,-1.7 -29.78,-1.5 -54.14,-5.7 -73.32,-30.4 -57.88,-74.5 -20.87,-474.5 -8.2,-575.8 l -41.06,2.5 12.17,-7.7 c -72.25,9.8 -154.13,3.8 -227.19,4 l -485.83,-1.9 c -77.96,-0.5 -161.95,-8.8 -238.39,6.7 -12.62,19.4 -21.64,39.3 -31.29,60.3 -85.19,73 -360.13,141.2 -477.86,180.2 l -1.02,1668.7 c 179.07,40.9 337.76,130.2 444.5,282.9 169.45,242.4 112.21,487.5 65.77,758.5" /><path
         id="path406"
         style="fill:#f9ae84;fill-opacity:1;fill-rule:nonzero;stroke:none"
         d="m 5039.91,6622.7 c 281.63,-12.3 567,-4.3 849,-4.5 l 1623.27,0.5 4762.02,-1 c 1.7,-156.2 1,-312.5 -2.1,-468.7 -276.6,-2.6 -586.8,22.1 -851.3,-67.1 -94.9,-0.6 -190,0.5 -284.6,-8.3 -57.6,19.7 -113.2,36.4 -173.5,45.2 -295.9,42.8 -1189.58,52.1 -1445.54,-76.1 -37.28,-18.7 -64.44,-44.9 -89.82,-77.3 1.37,-62.2 11.66,-88.6 49.48,-137.1 l 73.1,-39.5 -1.59,-21.5 c 51.58,-55 151.27,-80.2 220.74,-105.8 -122.8,-6.9 -560.38,-29.6 -652.56,7.4 95.54,34.4 158,84.6 227.35,155.9 6.47,10.7 12.39,22.3 15.86,34.4 9.89,34.6 0.91,70.7 -13.7,102.4 h -12.23 l -5.14,-37.1 -22.52,78.6 c -4.07,1.5 -8.16,2.9 -12.19,4.3 -73.52,27.1 -134.31,67.7 -213.82,83.5 -275.3,54.3 -1058.31,69.7 -1307.39,-34.2 -46.52,-19.5 -98.68,-51.2 -115.4,-101.9 -9.13,-27.6 -6.27,-59.4 0.18,-87.2 32.23,-32.9 61.89,-56.8 101.97,-79.7 -24.48,-30.5 -42.31,-53 -42.47,-93.7 l -73.67,30.1 c -95.4,16.9 -185.5,17 -282.03,15.1 1.63,2.3 3.3,4.6 4.9,7 l 7.95,11.7 c 19.87,28.8 35.22,46.4 35.97,83.2 14.14,32 25.41,61.7 22.87,97.4 -2.76,39.1 -24.46,70.5 -55.07,93.9 -197.71,151.2 -754.97,139.9 -992.71,114.8 -110.4,-11.6 -362.03,-35.6 -430.49,-136.9 -34.07,-50.4 -19.6,-104 -10.21,-159.3 -0.71,-37.8 6.58,-57 33.5,-84.1 60.02,-60.4 159.66,-74.5 240.39,-88 l -2.9,-5 c -73.18,-17 -590.54,-603.2 -654.84,-687.5 -37.49,-42.9 -41.1,-117.1 -38.86,-174.4 1.87,-48 14.73,-99.4 50.25,-133.1 25.36,-9 43.64,-11.7 70.07,-12.7 l 12.5,-10.7 c -49.29,-72.9 -132.04,-135 -193.67,-198.9 -143.94,-149.4 -299.86,-317.6 -415.11,-490.4 -6.82,885.5 -8.8,1770.9 -5.94,2656.3" /><path
         id="path408"
         style="fill:#f14b45;fill-opacity:1;fill-rule:nonzero;stroke:none"
         d="m 12392.1,6648.1 c 807.5,-2.5 1615.1,0.3 2422.6,8.3 196.7,1.8 393.4,2.1 590.2,0.7 124.2,-0.5 254.3,-7.7 377.6,6.8 3,-415.3 3.7,-830.6 1.9,-1245.9 l 2.4,-1671.8 -1670.8,2.5 c -2.4,301.6 -7.5,605.2 1.3,906.6 157.3,-1.5 720.3,-31.2 829.9,9.6 51.5,54.1 36.7,160.6 34.9,231.6 -1.1,40.9 -5.3,66.9 -32.9,99.5 -70.6,42.9 -709.9,15.3 -835.2,12.5 l -0.8,706.4 c 117.5,-2.7 383.7,-39.8 469.5,42.7 50.6,48.7 39,183.4 37.1,251.1 -1.1,37.7 -6.7,68.6 -20.9,103.4 -31.1,28 -69.6,31 -110.8,35.6 -161.9,18 -334.7,5.8 -498.1,6.3 -211,0.5 -427.7,10.9 -638.2,-1 -45.2,-2.6 -90.1,-2.6 -124,-37.2 -40.7,-41.6 -35.8,-122.9 -37.4,-177.2 l -1.2,63.7 c -27.4,33.4 -168.2,13.7 -220,21 l -17.7,2.6 c -147,140 -366.4,124.2 -555.6,128.5 -2.6,164.6 -3.9,329.1 -3.8,493.7" /><g
         transform="scale(1.13154)"
         id="g410"><path
           id="path412"
           style="fill:#94bde8;fill-opacity:1;fill-rule:nonzero;stroke:none"
           d="m 14058,10493.2 c 177.3,4.3 361.6,7.9 538.5,-3.8 -50.7,-2.6 -100.8,-4.4 -151.5,-3.9 48.7,-238.8 116.4,-472.3 160.2,-712.21 120.8,-662.79 78,-1333.64 -89.1,-1984.08 -67.8,-264.16 -173.7,-517.53 -238.5,-781.95 636.7,4.6 1012.8,9.81 1606.2,-246.74 145.2,-62.74 268.3,-180.64 416.2,-227.3 -69.3,-39.77 -85.1,-87.14 -107.9,-159.25 l -868.4,1.59 c -128.9,0.17 -286.7,17.06 -412.6,-7.07 -15.3,-15.03 -20.4,-28.81 -24.3,-49.4 -17.7,-93.41 -17.2,-196.02 -29,-291.29 -38.2,-305.16 -72.5,-610.76 -103.1,-916.71 -7.9,-81.84 -11.2,-336.54 -45.1,-392.57 -6.5,-10.87 -13.5,-18.46 -16.1,-31.19 -13.4,-65.58 -10.1,-142.99 -16.2,-210.16 -20.1,-215.9 -32.7,-439.49 -67.7,-653.09 l -1.9,-10.78 c -39.5,-3.89 -96.9,-2.39 -124,-36.15 -29.4,-36.94 -16,-117.18 -14.5,-161.81 25.8,-47.46 59.9,-81.93 98.8,-118.34 -9.4,-232.42 -41,-466.71 -61.8,-698.6 l -306.7,2.3 c 0.4,103.75 20.1,421.63 -15.8,495.87 -41.6,14.05 -90.7,9.19 -134.2,9.46 l 8.5,7187.17" /></g><path
         id="path414"
         style="fill:#94bde8;fill-opacity:1;fill-rule:nonzero;stroke:none"
         d="m 3223.31,6679.2 c -10.7,32.9 -57.48,72.4 -80.61,99.1 -140.75,162.3 -286.34,336.6 -398.15,520.4 -295.99,486.7 -442.99,1105.5 -401.31,1671.9 40.3,547.4 259.79,1049.1 594.21,1479.5 85.85,110.5 172.39,218.7 279.05,310.1 306.4,262.7 787.41,494.3 1196.03,514.9 114.53,5.8 231.67,-15.4 345.93,-24.6 l 0.4,-4851.5 5.02,-1434.9 c -1.05,-185.8 10.49,-382.8 -6.97,-566.8 -14.39,123.4 -4.8,257.5 -4.07,381.8 2.25,234.4 2.54,468.8 0.86,703.2 -256.5,136.9 -532.96,219.1 -784.06,376.8 -80.77,50.7 -273.57,238.5 -347.35,254.1 -42.36,123.1 -70.06,467.6 -142.15,547.6 -27.42,30.4 -211.31,17.7 -256.83,18.4" /><path
         id="path416"
         style="fill:#1e2a31;fill-opacity:1;fill-rule:nonzero;stroke:none"
         d="m 3545.78,8943.2 c 72.56,2 141.89,-9.6 206.52,-43.7 95.24,-50.1 163.08,-140 191.61,-243.2 1.71,-5.9 3.26,-11.9 4.65,-17.9 1.39,-6 2.62,-12.1 3.71,-18.2 1.09,-6.1 2.02,-12.2 2.78,-18.3 0.77,-6.2 1.38,-12.3 1.84,-18.5 0.45,-6.1 0.75,-12.3 0.88,-18.5 0.14,-6.2 0.12,-12.4 -0.06,-18.5 -0.19,-6.2 -0.53,-12.4 -1.03,-18.6 -0.49,-6.1 -1.15,-12.3 -1.97,-18.4 -0.81,-6.1 -1.77,-12.2 -2.9,-18.3 -1.13,-6.1 -2.41,-12.1 -3.85,-18.1 -1.44,-6.1 -3.03,-12 -4.78,-17.9 -1.74,-6 -3.64,-11.9 -5.7,-17.7 -2.04,-5.8 -4.23,-11.6 -6.59,-17.3 -2.33,-5.8 -4.82,-11.4 -7.45,-17 -2.65,-5.6 -5.43,-11.1 -8.34,-16.6 -2.92,-5.4 -5.97,-10.8 -9.17,-16.1 -66.35,-111.8 -161.93,-161 -282.78,-192.8 -94.25,-0.9 -176.72,6.7 -259.48,57.5 -10.52,6.5 -20.68,13.6 -30.49,21.2 -9.82,7.5 -19.25,15.5 -28.29,24 -9.02,8.5 -17.61,17.4 -25.77,26.7 -8.16,9.3 -15.85,19 -23.05,29.1 -7.21,10.1 -13.9,20.5 -20.08,31.2 -6.18,10.8 -11.82,21.8 -16.93,33.1 -5.1,11.3 -9.64,22.8 -13.62,34.5 -3.97,11.8 -7.37,23.7 -10.17,35.7 -1.48,6.2 -2.8,12.5 -3.95,18.8 -1.16,6.3 -2.15,12.6 -2.98,18.9 -0.84,6.4 -1.5,12.7 -2,19.1 -0.51,6.4 -0.85,12.8 -1.03,19.1 -0.17,6.4 -0.18,12.8 -0.04,19.2 0.15,6.4 0.47,12.8 0.95,19.2 0.47,6.4 1.11,12.7 1.91,19 0.81,6.4 1.78,12.7 2.91,19 1.12,6.3 2.41,12.6 3.86,18.8 1.46,6.2 3.06,12.4 4.82,18.5 1.77,6.2 3.69,12.3 5.76,18.3 2.08,6.1 4.32,12.1 6.71,18 2.39,5.9 4.93,11.8 7.62,17.6 2.68,5.8 5.52,11.5 8.5,17.2 2.98,5.6 6.1,11.2 9.37,16.7 3.26,5.5 6.67,10.9 10.21,16.2 70.89,107.3 175.11,156.3 297.89,179" /><path
         id="path418"
         style="fill:#ffffff;fill-opacity:1;fill-rule:nonzero;stroke:none"
         d="m 3517.17,8812.4 c 73.54,4.9 133.83,4.3 197.76,-37.9 59.41,-39.2 98.32,-100.7 112.12,-170.1 13.74,-69.2 0.93,-143.9 -39.33,-202.3 -46.76,-68 -109.46,-94.7 -188.12,-107.1 -44.55,-0.8 -87.1,-0.9 -129.75,13.8 -7.98,2.7 -15.81,5.7 -23.48,9.2 -7.65,3.5 -15.12,7.3 -22.38,11.6 -7.27,4.2 -14.29,8.8 -21.08,13.8 -6.78,5 -13.29,10.3 -19.52,15.9 -6.25,5.7 -12.18,11.6 -17.79,17.9 -5.62,6.2 -10.89,12.8 -15.84,19.6 -4.93,6.8 -9.49,13.8 -13.7,21.1 -4.22,7.3 -8.04,14.8 -11.46,22.5 -3.47,7.7 -6.52,15.6 -9.15,23.7 -2.65,8 -4.87,16.2 -6.67,24.5 -1.8,8.3 -3.17,16.6 -4.11,25.1 -0.93,8.4 -1.42,16.8 -1.49,25.3 -0.07,8.5 0.31,17 1.13,25.4 0.8,8.4 2.05,16.8 3.73,25.1 1.67,8.3 3.78,16.5 6.3,24.6 2.53,8.1 5.46,16.1 8.81,23.9 38.58,91.4 105.51,138.6 194.02,174.4" /><path
         id="path420"
         style="fill:#ffffff;fill-opacity:1;fill-rule:nonzero;stroke:none"
         d="m 12957.8,11439.1 c 807.6,-4 1615.2,-2.3 2422.8,5.1 l -3.4,-4502.1 -563.3,0.1 -2418.7,1.2 -2.7,4493 565.3,2.7" /><path
         id="path422"
         style="fill:#1e2a31;fill-opacity:1;fill-rule:nonzero;stroke:none"
         d="m 15072.5,11167.4 c 24.7,0.9 38.9,-2.5 61.8,-11.8 10.3,-12.9 14,-21.4 15.3,-38.1 10,-127 2.3,-259.1 2.4,-386.9 l 2.3,-741.4 -5.5,-2798.3 c -808.7,16.7 -1618.9,3.6 -2427.8,1.8 -29.2,0.2 -46.7,-3.2 -72.4,11.3 -23.2,119.5 -6.6,271.9 -6.4,394.6 l 1,854.1 -3.3,1432 c -3.1,359.6 -12.5,721.3 -6,1080.9 1.1,59.7 2.1,127.1 23,183.4 132.7,24.4 447.5,6.6 599.2,8.3 605.4,7 1211,-0.6 1816.4,10.1" /><path
         id="path424"
         style="fill:#ffffff;fill-opacity:1;fill-rule:nonzero;stroke:none"
         d="m 13469.4,8709.7 c 20.2,0.7 39.3,-1.6 59.3,-4 17.3,-15.7 31.6,-29 31.8,-54.2 0.2,-23.9 -7.2,-42.3 -21.7,-60.4 -25.3,-0.7 -49.3,-3.7 -72.9,7.1 -20.5,28.6 -24.5,34.7 -28.8,71.3 10.1,24.9 9.3,27.1 32.3,40.2" /><path
         id="path426"
         style="fill:#fafdfd;fill-opacity:1;fill-rule:nonzero;stroke:none"
         d="m 14283.5,7556.8 c 147.8,0.3 309.2,14.3 455.3,-1.6 -7.4,-104.9 -70.6,-149.2 -141.4,-217.7 -46.7,-3.9 -93.7,-5.4 -140.4,-8 -41.5,30.8 -90.1,56.5 -127.9,91.6 -42.1,39.2 -43.5,81 -45.6,135.7" /><path
         id="path428"
         style="fill:#ffffff;fill-opacity:1;fill-rule:nonzero;stroke:none"
         d="m 13459,8478.4 c 26.9,-12.2 81,-27.5 91.9,-56 14.4,-37.4 8.1,-79.2 27.2,-117.2 49.9,-99.1 144.5,-137.9 156.6,-257.8 -166.2,10.7 -335.8,5 -502.2,-1 2.2,4.1 4.4,8.2 6.6,12.3 107.3,193.4 167.9,170.3 219.9,419.7" /><path
         id="path430"
         style="fill:#94bde8;fill-opacity:1;fill-rule:nonzero;stroke:none"
         d="m 14285.3,8062.1 c 59.4,85.5 152.3,144.9 199.8,237.2 75.6,-76.2 181.1,-145.4 242.2,-232.2 l 11.5,-511.9 c -146.1,15.9 -307.5,1.9 -455.3,1.6 0.3,168.3 -1.9,337.1 1.8,505.3" /><path
         id="path432"
         style="fill:#fafdfd;fill-opacity:1;fill-rule:nonzero;stroke:none"
         d="m 14547.1,7835.8 c 10.3,-2.9 19.2,-5.1 29,-8.8 29.3,-11.1 44.1,-30.2 56,-58.1 -1.8,-28.6 -0.8,-34.7 -17.3,-57.6 -35.3,0.2 -57.2,-2.7 -86.3,18.2 -9.6,35.6 7.5,72.3 18.6,106.3" /><path
         id="path434"
         style="fill:#f14b45;fill-opacity:1;fill-rule:nonzero;stroke:none"
         d="m 13232.5,8046.4 c 166.4,6 336,11.7 502.2,1 6.7,-124.3 9,-253.1 1.4,-377.4 -142.8,-2.7 -285.7,-3.6 -428.5,-2.7 3.9,-35.5 6.5,-68.5 4.4,-104.3 l 212.7,-0.4 210.4,3.5 c -4.4,-31.7 -8.3,-63.4 -14.1,-94.8 -29.5,-63.8 -67.6,-109.8 -117.7,-157.8 -77.4,-3.1 -155.9,0.3 -233.3,1.2 -67,41.5 -117.6,87.1 -144,162.7 -2.1,183.4 -20.7,388.4 6.5,569" /><path
         id="path436"
         style="fill:#94bde8;fill-opacity:1;fill-rule:nonzero;stroke:none"
         d="m 12763.1,9278.1 c 759.6,-5 1519.2,-5.6 2278.8,-1.8 l 1.3,-149 c -122.3,-24 -472.2,-6.1 -622.9,-6.7 l -1657.4,-3.4 0.2,160.9" /><path
         id="path438"
         style="fill:#ffffff;fill-opacity:1;fill-rule:nonzero;stroke:none"
         d="m 12763.9,9013.5 2285.7,0.4 c 6.6,-568.1 -1.4,-1137.3 -3.3,-1705.5 -103.7,-0.3 -207.3,1 -311,3.8 23.5,24.2 46.6,48.9 69.2,73.9 21,23.6 36.9,47.3 44.8,78.2 29.5,115.3 18.4,414.2 9.3,541.1 -13,179.4 -110,222.1 -232.1,329.2 0.9,10.7 2,21.4 2.5,32.2 3.7,73.5 53.2,183.2 28.2,248.9 -34.9,37.3 -75.8,38.7 -124.1,41.6 -57.7,3.4 -126.9,6.2 -172.2,-34.4 -32.6,-65.5 22.9,-206.6 34.5,-280.5 -46,-35.1 -97.3,-64.3 -138.8,-105 -102.5,-100.5 -93.3,-212.1 -92.1,-344.3 -1.3,-157.7 -14.7,-329.8 13.3,-485 30.8,-38.5 68,-65.9 106.9,-95.5 -171.9,-4.2 -346.2,-5.5 -517.9,1.4 47.9,54.7 66.2,96.6 78.5,168.8 22.2,130.6 35,563.9 -14,674.2 -35.4,79.9 -118.5,154.2 -170.4,227 l 0.6,478 c -111.1,3.9 -223.5,0.5 -334.7,0.2 0.1,-126.9 27.8,-418.4 -26.7,-523.9 -20,-38.6 -57.9,-71.5 -87.6,-102.9 -28.3,-30 -60.3,-63.1 -76.4,-101.6 -57.5,-137.9 -28.2,-375 -24,-524.8 3.9,-138.3 8.8,-206.7 112.8,-305 l -464.2,-1.4 c -9.5,569.3 -0.6,1141.5 3.2,1710.9" /><path
         id="path440"
         style="fill:#ffffff;fill-opacity:1;fill-rule:nonzero;stroke:none"
         d="m 12745.8,11050 c 764.8,-0.1 1530.8,9.3 2295.3,-1.2 2.5,-553.1 2,-1106.1 -1.6,-1659.2 l -401.4,-0.8 -128.9,-0.2 -143.7,0.3 -150.1,-2 -162.4,-0.8 -140.3,0.1 -142.3,-0.1 c -51.7,-2.7 -103.2,-1.1 -154.9,0 -45.8,2.7 -92.2,0.3 -138,-0.5 -164.3,-18.6 -545.6,-15 -706.1,0.9 l -15.7,12.6 c -10.9,190.2 -4,384.3 -4.8,574.8 l -5.1,1076.1" /><path
         id="path442"
         style="fill:#94bde8;fill-opacity:1;fill-rule:nonzero;stroke:none"
         d="m 14216.6,9991.2 c 43.7,6.8 82.2,15.2 126,4.2 24.5,-21.3 20.4,-28.5 23.1,-61 14.3,-177.8 0.7,-366.7 -0.2,-545.5 l -150.1,-2 1.2,604.3" /><path
         id="path444"
         style="fill:#94bde8;fill-opacity:1;fill-rule:nonzero;stroke:none"
         d="m 14427.3,10172.5 c 70.3,-2.3 138.8,-7 208.7,-15.8 2.6,-256 3.3,-512 2.1,-767.9 l -128.9,-0.2 c 0.4,199 19.7,419.2 -8.8,615.1 -17,10.9 -29.4,14.9 -48.6,20.7 -23.1,23.7 -29.3,39.9 -28.6,72.2 0.8,25.3 2.2,50.6 4.1,75.9" /><path
         id="path446"
         style="fill:#94bde8;fill-opacity:1;fill-rule:nonzero;stroke:none"
         d="m 13615.5,9386.1 c 0,121.7 -11.1,1170.3 12.5,1219.7 23.3,15.4 39.6,23.1 68.6,20 23.3,-2.5 43.9,-13.8 56.3,-34 25.4,-41.7 9,-147.1 8.3,-197.8 97.3,-1.8 195.7,-0.5 292.8,-6.3 -0.4,-333.7 -5.2,-668 -1,-1001.6 l -140.3,0.1 -142.3,-0.1 c -51.7,-2.7 -103.2,-1.1 -154.9,0" /><path
         id="path448"
         style="fill:#fafdfd;fill-opacity:1;fill-rule:nonzero;stroke:none"
         d="m 13761.8,10249.3 154.4,2.3 -3.5,-865.4 -142.3,-0.1 c -5.6,287.7 -8.5,575.5 -8.6,863.2" /><path
         id="path450"
         style="fill:#94bde8;fill-opacity:1;fill-rule:nonzero;stroke:none"
         d="m 13026.6,10872.9 c 148.2,3.7 296.4,5 444.6,3.9 6,-497.1 8.1,-994.2 6.3,-1491.2 -164.3,-18.6 -545.6,-15 -706.1,0.9 81.9,1.5 163.9,1.9 245.8,1.2 0.2,493.5 -13.8,992.3 9.4,1485.2" /><path
         id="path452"
         style="fill:#fafdfd;fill-opacity:1;fill-rule:nonzero;stroke:none"
         d="m 13173.2,10745.7 165.1,0.7 -2,-1357.4 -165.8,-0.6 c -7,213.2 -0.9,428.4 -1.1,641.9 -0.3,237.9 -6.6,477.8 3.8,715.4" /><path
         id="path454"
         style="fill:#ffffff;fill-opacity:1;fill-rule:nonzero;stroke:none"
         d="m 5492.82,11441.4 h 3475.34 l 3312.54,-4.8 -0.4,-4135.5 c -167.3,-0.4 -336,-5.1 -503.1,4.1 -68.5,58.1 -117.6,81.9 -205.5,100.1 -12.7,129.3 19.7,516.3 -14.2,595.5 -33.8,0.9 -58.6,-0.2 -90.8,-10.9 l -11.1,2 c -114,-98.9 -199.8,-238.4 -290.7,-358.1 -74,-97.3 -153,-190.9 -229.6,-286.2 -8.1,-13.6 -15.1,-24.2 -26.5,-35.5 -25.7,-25.2 -259.7,-11.9 -314.9,-12 l -2563.73,0.8 c -2.34,228.8 36.63,792.1 -17.61,981.9 -27.32,95.6 -76.08,159.2 -141.81,230.5 6.71,158 5.4,316.6 6.51,474.7 0.67,95.2 7.4,195.9 -1.81,290.7 -1.51,15.5 -3.16,45.8 -16.91,54.6 -42.45,27.4 -387.18,19.9 -443.07,7 -40,-53.5 -30.65,-715.3 -32.32,-822.9 -41.22,-57.6 -96.99,-112.5 -121.01,-180.3 -46.54,-131.2 -20.31,-846.3 -19.72,-1036.5 -104.25,0.3 -208.44,1.6 -312.56,-4.2 47.69,45.8 86.43,89.4 119.34,147 0.22,261.5 -1.17,522.9 -4.19,784.4 -1.27,123.3 10.23,263.6 -13.1,384.6 -25.05,129.8 -150.39,188.2 -249.41,257.2 -0.93,56.1 12.43,407.9 9.73,415.4 -5.4,14.8 -10.08,24.5 -25.65,28.7 -40.18,11 -281.93,-0.6 -311.63,-22 -21.3,-15.2 27.92,-305 21.48,-358.2 -15.46,-127.4 -203.9,-154.7 -229.73,-280.8 -19.69,-96.1 -19.79,-1083.3 -3.21,-1196.2 8.97,-60.9 47.13,-110.8 80.15,-161.1 l -833.67,-0.9 c -8.62,245.3 -0.26,493 -0.08,738.7 l 0.25,1454.2 c 1656.44,-8.4 3312.87,-7.8 4969.26,1.9 118.7,-0.1 1264.8,-16 1297.6,-4.7 13.7,4.7 23.3,10.6 28.7,24.2 24,60.1 16.8,243.6 -4.6,304.5 -66,38.7 -782.8,15.9 -923.4,12.3 0.5,141.3 37.1,540.5 -34.5,641.3 -34.3,48.3 -100.2,65.3 -139,109.1 -36.4,41 -29.2,88.1 -27.9,139 2.4,53.9 3,104.1 -3.4,157.9 0.5,36.9 64.8,27.6 90.7,55 2.5,26.4 0.6,39.9 -9.4,64.4 -91.2,31.7 -344,32 -437,9.9 -50.8,-19.4 -173.2,-11.9 -228,-2.6 -94.3,22.2 -339.02,27.7 -427.1,-11.7 l -15.22,-21.8 c 6.13,-24.2 9.53,-35 31.15,-49.1 19.44,-12.7 41.21,-23 61.82,-33.7 -2.72,-97.6 -4.09,-193.7 2.05,-291.3 -54.5,-43.9 -111.66,-86.3 -159.67,-137.3 0.24,-85 21.38,-567.9 -10.96,-612.1 -24.18,-4.3 -39.67,-7.2 -64.11,-1.7 -17.53,35.8 -10.84,88.7 -10.72,128.4 0.46,148.8 47.97,422.9 -51.9,535.2 -36.37,40.9 -93.99,72.1 -139.73,102.5 9.39,76.1 27.52,168.1 9.17,243.2 l -24.54,18.3 1.83,10.7 c 42.83,13.4 82.77,23.7 119.14,51.1 11.38,22.8 10.17,22.5 3.66,47.4 -19.04,19.9 -38.26,27.1 -65.52,28.4 -84.64,4.1 -330.37,13.7 -393.45,-26.3 -10.22,-24 -9.17,-25.9 -3.51,-51.6 31.09,-29.5 83.05,-30.7 123.99,-37 l 9.19,-11.4 c -13.68,-96.8 -15.47,-189.2 -21.78,-286 -66.43,-38.4 -141.12,-66.9 -161.71,-147.8 -40.96,-160.9 4.68,-413.9 -13.17,-590.3 -23.15,-13.7 -34.86,-8.5 -60.69,-6.6 -42.49,52.6 -11.89,507.9 -24.72,609.4 -48.86,71 -98.99,103 -173.72,141.3 10.46,77.4 35.8,173.1 0.5,245.6 -23.73,15.7 -25.62,14.7 -54.38,13.2 -31.24,-23.8 -42.16,-45.6 -46.62,-84.7 -8.44,-74.1 7.2,-152.9 6.47,-228 l -42.65,10 c -7.08,83.9 10.92,169.8 -2.08,253.8 -4.83,31.3 -10.94,49.2 -36.81,67.7 -25.16,-4.3 -33.85,-13.8 -51.62,-31.5 -23.23,-70.9 -10.33,-169.6 -9.43,-244.5 -68.2,-38.8 -121.21,-74.4 -168.6,-139.2 -29.11,-198.9 -11.74,-418.2 -11.48,-619.9 -131.41,-2.3 -263.06,-1.3 -394.5,-1.7 0.18,161 4.73,322.8 1.03,483.7 -3.63,158.1 -82.35,181.2 -184.44,277.7 1.39,84.8 15.72,194.2 -22.34,271.6 -2.78,5.6 -5.79,11.1 -8.69,16.6 21.74,19.2 90.75,9.5 123.19,23 14.22,23 13.4,32.9 16.34,59.4 -9.67,21.6 -11.08,32.3 -36.71,38.3 -37.38,8.9 -350.12,6.4 -396.74,1.4 -23.95,-2.6 -41.77,-8.8 -63.06,-19.7 -15.35,-23 -15.56,-23.4 -13.54,-50.9 78.68,-101 264.93,-4.7 365.46,-50.4 -7.69,-28.6 -44.74,-52.3 -67.23,-71.2 -17.87,-49.3 -6.99,-113.4 -4.69,-165.4 -5.56,-16.2 -10.64,-27.8 -19.2,-42.9 -23.22,58 -4.03,147.4 -12.24,212.5 -0.4,3.1 -0.88,6.3 -1.32,9.5 -22.37,20.5 -34.96,32.6 -66.51,37 -23.01,-12.6 -29.2,-20.9 -36.11,-46.8 -19.8,-74.1 -4.67,-163.8 -8.48,-240.4 -79.67,-47.8 -142.11,-84.5 -166.08,-181.3 -35.3,-142.5 39.65,-454.9 -15.88,-561.8 -30.42,-9 -44.47,-8.1 -74.49,-1.9 -50.43,61.1 25.07,489.4 -31.89,603.2 -32.08,64.1 -89.8,101.3 -142.59,147.4 0.71,84.3 16.79,210.6 -24.34,284.4 l -16.74,9.8 c -23.84,-7.5 -31.59,-14.1 -47.13,-33.5 -6.16,-40.9 -11.9,-81.7 -15.73,-122.9 l -22.25,12.4 c -1.04,31.4 -17.28,75.8 -38.92,99 -15.66,16.8 -25.83,16.9 -47.23,20.6 -24.48,-18.2 -33.24,-32.9 -37.15,-63.7 -7.78,-61.5 0.58,-126.7 -0.04,-188.8 -57.73,-46.8 -121.66,-92.6 -171.79,-147.4 -13.43,-205.5 -4.37,-414.9 -3.5,-620.9 l -118.79,-3.7 c 0.02,136.8 36.26,567.5 -58.29,665.6 -40.74,42.3 -92.04,72.2 -133.63,113.5 l 1.74,12.5 c 10.23,78.2 13.48,159.6 -14.41,234.6 l -19.08,17.3 c -28.89,-12.3 -41.28,-27.8 -52.99,-57.2 -29.8,-74.7 -33.2,-184.9 -1.85,-259.6 31.63,-75.4 131.02,-107.6 175.13,-180.1 -63.65,29.8 -122.04,68 -184.32,100 -80.55,-31.4 -151.03,-75.6 -222.41,-123.9 -0.27,31.5 -4.6,46.2 16.44,72.7 50.57,63.7 120.22,94.3 168.68,168 2.43,90 16.2,191.9 -37.3,270.3 l -30.7,4 c -48.86,-78.7 -37.74,-165.7 -35.62,-254 -99.64,-91.3 -181.22,-129.7 -187.08,-279.6 -6.55,-167.1 3.87,-335.8 2.88,-503.1 -92.8,0.1 -185.72,-0.7 -278.51,0.6 l -3.82,1605.3" /><path
         id="path456"
         style="fill:#1e2a31;fill-opacity:1;fill-rule:nonzero;stroke:none"
         d="m 5872.69,11011 c 107.89,-1.2 219.43,12.1 326.6,2.6 41.95,-3.7 65.74,-9 93.08,-41.8 4.96,-29.9 -0.38,-43.7 -10.47,-71.2 -105.2,-2.8 -336.72,-34.6 -422.95,22.9 -8.93,30.7 4.37,58.4 13.74,87.5" /><path
         id="path458"
         style="fill:#1e2a31;fill-opacity:1;fill-rule:nonzero;stroke:none"
         d="m 6584.82,11011.3 c 95.26,-0.3 382.94,26.6 448.38,-19.5 13.18,-31.2 8.44,-52.4 3.1,-84.3 -84.74,-15.4 -375.74,-29 -449.82,9.3 -13.63,31 -5.79,62 -1.66,94.5" /><path
         id="path460"
         style="fill:#1e2a31;fill-opacity:1;fill-rule:nonzero;stroke:none"
         d="m 8303.4,11007.6 c 88.14,3.2 322.18,24.7 389.46,-10.1 13.68,-21.9 17.22,-29.9 10.72,-57.1 -6.31,-26.4 -24.81,-36.4 -46.51,-49.1 -113.79,-1.2 -292.49,-24.5 -392.46,29.5 -16.5,24.1 -15.9,24.6 -13.96,53.8 17.08,21.7 26.57,23 52.75,33" /><path
         id="path462"
         style="fill:#1e2a31;fill-opacity:1;fill-rule:nonzero;stroke:none"
         d="m 9813.58,8603.7 c 36.85,0.5 68.76,0 104.69,-8.5 14.22,-3.3 27.66,-3.1 42.17,-2.9 l -3.03,-33.1 c -20.73,-21.6 -37.35,-38.8 -43.01,-69.6 -13.6,-73.8 -3.97,-165.7 -4.15,-241.4 -0.9,-182.5 -0.31,-365 1.79,-547.4 67.05,14.1 305.66,115.5 338.36,110.1 25.9,-4.3 38.3,-19.6 54.1,-38.7 1.8,-26.3 3.1,-30.7 -16.7,-50.9 -52.1,-53.3 -332.36,-124.3 -407.72,-118.2 -117.5,9.5 -274.11,30.1 -372.78,100.1 -21.65,15.4 -27.56,25.3 -32.29,50.8 6.97,22.6 23.45,32 41.3,46.1 89.84,22.9 198.02,-70.5 290.13,-92.1 9.09,217.4 21.8,628.8 -8.6,836.5 -3.81,26.1 5.12,36 15.74,59.2" /><path
         id="path464"
         style="fill:#94bde8;fill-opacity:1;fill-rule:nonzero;stroke:none"
         d="m 9544.52,9294 c -55.83,-79.1 -75.76,-128.7 -56.3,-228.8 24.44,-125.6 106.99,-239.9 214.52,-308 61.61,-39 131.35,-59.3 203.74,-42.6 126.02,29 251.52,136.6 315.82,246.8 22.2,38.1 42.4,82.7 48.7,126.6 9.3,64 -34.2,204.2 25.1,236.8 31.4,-2.8 44,-1.6 70.6,-19.5 37.5,-67.9 11.6,-185.6 -9,-257.9 -48.1,-169.1 -147.4,-309.5 -302.1,-395.6 -31.3,-17.4 -65.83,-27.2 -96.56,-45.2 l 1.4,-14.3 c -14.51,-0.2 -27.95,-0.4 -42.17,2.9 -35.93,8.5 -67.84,9 -104.69,8.5 -164.23,60.7 -318.61,149.3 -398.39,313.8 -59.08,121.9 -52.57,260.9 -30.31,390.8 54.49,-1.6 105.8,-4.9 159.64,-14.3" /><path
         id="path466"
         style="fill:#f9ae84;fill-opacity:1;fill-rule:nonzero;stroke:none"
         d="m 10140.4,9168.4 c 36.1,-0.1 62.6,5.7 93.6,-13.5 13.2,-42.1 10.5,-57.7 -9.9,-96.1 -19.3,-36.4 -38.8,-73.3 -63.7,-106.2 -24.4,-53.8 -122.8,-132.9 -174.78,-158.4 -62.96,-30.8 -130.88,-36.6 -197.41,-13.3 -100.64,35.3 -180.06,128.1 -224.37,222.4 -22.69,48.3 -36.25,92.2 -16.98,143.6 60.58,32.7 490.24,20.4 593.54,21.5" /><path
         id="path468"
         style="fill:#f9ae84;fill-opacity:1;fill-rule:nonzero;stroke:none"
         d="m 11455.6,7991.9 -1.6,14.2 c -91.3,54.9 -191.7,93 -281.6,151.6 -88,57.3 -199.2,209 -223,311.6 -7.2,30.9 -4.4,46.4 7.6,75.2 12.3,8.7 23.3,16.4 38.6,18.7 125.7,18.3 279.8,1.4 408.1,1.1 172.4,-0.5 473.8,19.2 633,-8.3 8.2,-1.5 15.9,-3.7 24,-5.8 14.9,-46.6 -33.7,-154.3 -56.5,-199.5 -74.1,-146.8 -201.9,-229.5 -345.7,-298.3 -31.8,-15.2 -75.4,-27.7 -101,-51.6 -33.8,0.9 -58.6,-0.2 -90.8,-10.9 l -11.1,2" /><path
         id="path470"
         style="fill:#d82a27;fill-opacity:1;fill-rule:nonzero;stroke:none"
         d="m 11048.2,8488.6 927.8,3.9 c -29.2,-106.5 -76.2,-174.4 -152.5,-251.4 -108.2,-82.3 -241.6,-135.3 -379.4,-117.1 -127.5,16.9 -268.2,102.2 -343,208.4 -30.6,43.4 -63.7,101.5 -52.9,156.2" /></g></g></svg>