<?xml version="1.0" encoding="UTF-8" standalone="no"?>
<svg
   xmlns:dc="http://purl.org/dc/elements/1.1/"
   xmlns:cc="http://creativecommons.org/ns#"
   xmlns:rdf="http://www.w3.org/1999/02/22-rdf-syntax-ns#"
   xmlns:svg="http://www.w3.org/2000/svg"
   xmlns="http://www.w3.org/2000/svg"
   viewBox="0 0 256 256"
   height="256"
   width="256"
   xml:space="preserve"
   id="svg2"
   version="1.1"><metadata
     id="metadata8"><rdf:RDF><cc:Work
         rdf:about=""><dc:format>image/svg+xml</dc:format><dc:type
           rdf:resource="http://purl.org/dc/dcmitype/StillImage" /></cc:Work></rdf:RDF></metadata><defs
     id="defs6"><clipPath
       id="clipPath86"
       clipPathUnits="userSpaceOnUse"><path
         id="path84"
         d="M 590,470 540,740 H 955 L 954.98,470 Z" /></clipPath><clipPath
       id="clipPath112"
       clipPathUnits="userSpaceOnUse"><path
         id="path110"
         d="M 965.02,470 965,740 h 415 l -50,-270 z" /></clipPath><clipPath
       id="clipPath202"
       clipPathUnits="userSpaceOnUse"><path
         id="path200"
         d="M 960,420 H 660 v 20 h 300 z" /></clipPath><linearGradient
       id="linearGradient208"
       spreadMethod="pad"
       gradientTransform="matrix(0,20,20,0,810,420)"
       gradientUnits="userSpaceOnUse"
       y2="0"
       x2="1"
       y1="0"
       x1="0"><stop
         id="stop204"
         offset="0"
         style="stop-opacity:1;stop-color:#c6d3d5" /><stop
         id="stop206"
         offset="1"
         style="stop-opacity:1;stop-color:#adb7b9" /></linearGradient><clipPath
       id="clipPath218"
       clipPathUnits="userSpaceOnUse"><path
         id="path216"
         d="M 1260,420 H 960 v 20 h 300 z" /></clipPath><linearGradient
       id="linearGradient224"
       spreadMethod="pad"
       gradientTransform="matrix(0,20,20,0,1110,420)"
       gradientUnits="userSpaceOnUse"
       y2="0"
       x2="1"
       y1="0"
       x1="0"><stop
         id="stop220"
         offset="0"
         style="stop-opacity:1;stop-color:#adb7b9" /><stop
         id="stop222"
         offset="1"
         style="stop-opacity:1;stop-color:#939b9d" /></linearGradient><clipPath
       id="clipPath252"
       clipPathUnits="userSpaceOnUse"><path
         id="path250"
         d="m 693.281,440 c -3.476,-6.52 -6.722,-13.191 -9.718,-20 h 11.039 c 3.125,6.82 6.507,13.488 10.132,20 z" /></clipPath><linearGradient
       id="linearGradient258"
       spreadMethod="pad"
       gradientTransform="matrix(0,19.999,19.999,0,694.149,420)"
       gradientUnits="userSpaceOnUse"
       y2="0"
       x2="1"
       y1="0"
       x1="0"><stop
         id="stop254"
         offset="0"
         style="stop-opacity:1;stop-color:#fdd605" /><stop
         id="stop256"
         offset="1"
         style="stop-opacity:1;stop-color:#ddbb04" /></linearGradient><clipPath
       id="clipPath274"
       clipPathUnits="userSpaceOnUse"><path
         id="path272"
         d="m 1236.44,420 c -3,6.809 -6.24,13.48 -9.72,20 h -11.46 c 3.64,-6.512 7.02,-13.18 10.14,-20 z" /></clipPath><linearGradient
       id="linearGradient280"
       spreadMethod="pad"
       gradientTransform="matrix(0,20,20,0,1225.85,420)"
       gradientUnits="userSpaceOnUse"
       y2="0"
       x2="1"
       y1="0"
       x1="0"><stop
         id="stop276"
         offset="0"
         style="stop-opacity:1;stop-color:#ed1c24" /><stop
         id="stop278"
         offset="1"
         style="stop-opacity:1;stop-color:#cf181f" /></linearGradient></defs><g
     transform="matrix(1.3333333,0,0,-1.3333333,0,256)"
     id="g10"><g
       transform="scale(0.1)"
       id="g12"><path
         id="path14"
         style="fill:#e5ebf8;fill-opacity:1;fill-rule:nonzero;stroke:none"
         d="M 620,1400 H 340 c -11,0 -20,9 -20,20 v 0 c 0,11 9,20 20,20 h 280 c 11,0 20,-9 20,-20 v 0 c 0,-11 -9,-20 -20,-20" /><path
         id="path16"
         style="fill:#e5ebf8;fill-opacity:1;fill-rule:nonzero;stroke:none"
         d="M 670,1420 H 490 c -11,0 -20,9 -20,20 v 0 c 0,11 9,20 20,20 h 180 c 11,0 20,-9 20,-20 v 0 c 0,-11 -9,-20 -20,-20" /><path
         id="path18"
         style="fill:#e5ebf8;fill-opacity:1;fill-rule:nonzero;stroke:none"
         d="M 1070,1540 H 890 c -11,0 -20,9 -20,20 v 0 c 0,11 9,20 20,20 h 180 c 11,0 20,-9 20,-20 v 0 c 0,-11 -9,-20 -20,-20" /><path
         id="path20"
         style="fill:#e5ebf8;fill-opacity:1;fill-rule:nonzero;stroke:none"
         d="m 1490,1350 h -180 c -11,0 -20,9 -20,20 v 0 c 0,11 9,20 20,20 h 180 c 11,0 20,-9 20,-20 v 0 c 0,-11 -9,-20 -20,-20" /><path
         id="path22"
         style="fill:#e5ebf8;fill-opacity:1;fill-rule:nonzero;stroke:none"
         d="m 1580,1370 h -180 c -11,0 -20,9 -20,20 v 0 c 0,11 9,20 20,20 h 180 c 11,0 20,-9 20,-20 v 0 c 0,-11 -9,-20 -20,-20" /><path
         id="path24"
         style="fill:#e5ebf8;fill-opacity:1;fill-rule:nonzero;stroke:none"
         d="m 950,1560 h -90 c -11,0 -20,9 -20,20 v 0 c 0,11 9,20 20,20 h 90 c 11,0 20,-9 20,-20 v 0 c 0,-11 -9,-20 -20,-20" /><path
         id="path26"
         style="fill:#fdd605;fill-opacity:1;fill-rule:nonzero;stroke:none"
         d="m 538.949,931.25 c 38.156,-4.277 72.781,7.434 111.051,-1.25 -39.469,24.934 -75.531,0.891 -115,25.836 0,-15.785 0,-31.578 0,-47.367 1.316,-0.309 2.633,-0.547 3.949,-0.75 0,7.851 0,15.687 0,23.531" /><path
         id="path28"
         style="fill:#ef2e32;fill-opacity:1;fill-rule:nonzero;stroke:none"
         d="m 538.949,931.25 c 0,-7.898 0,-15.789 0,-23.68 39.473,-4.429 71.578,26.856 111.051,22.43 -39.609,10.645 -71.578,-3.176 -111.051,1.25" /><path
         id="path30"
         style="fill:#5d657e;fill-opacity:1;fill-rule:nonzero;stroke:none"
         d="m 530,780 h 10 V 960 H 530 V 780" /><path
         id="path32"
         style="fill:#c6d3d5;fill-opacity:1;fill-rule:nonzero;stroke:none"
         d="m 535,975.836 c 5.523,0 10,-4.481 10,-10 0,-5.523 -4.477,-10 -10,-10 v 20" /><path
         id="path34"
         style="fill:#eaecec;fill-opacity:1;fill-rule:nonzero;stroke:none"
         d="m 535,955.836 c -5.523,0 -10,4.477 -10,10 0,5.519 4.477,10 10,10 v -20" /><path
         id="path36"
         style="fill:#ef2e32;fill-opacity:1;fill-rule:nonzero;stroke:none"
         d="m 738.949,974.586 c 38.156,4.269 72.781,-7.434 111.051,1.25 -39.469,-24.934 -75.531,-0.891 -115,-25.836 0,15.793 0,31.578 0,47.367 1.316,0.309 2.633,0.547 3.949,0.742 0,-7.839 0,-15.683 0,-23.523" /><path
         id="path38"
         style="fill:#fdd605;fill-opacity:1;fill-rule:nonzero;stroke:none"
         d="m 738.949,974.586 c 0,7.894 0,15.789 0,23.68 39.473,4.424 71.578,-26.856 111.051,-22.43 -39.609,-10.645 -71.578,3.168 -111.051,-1.25" /><path
         id="path40"
         style="fill:#5d657e;fill-opacity:1;fill-rule:nonzero;stroke:none"
         d="m 730,824.172 h 10 V 1004.16 H 730 V 824.172" /><path
         id="path42"
         style="fill:#c6d3d5;fill-opacity:1;fill-rule:nonzero;stroke:none"
         d="m 735,1020 c 5.523,0 10,-4.48 10,-10 0,-5.52 -4.477,-10 -10,-10 v 20" /><path
         id="path44"
         style="fill:#eaecec;fill-opacity:1;fill-rule:nonzero;stroke:none"
         d="m 735,1000 c -5.523,0 -10,4.48 -10,10 0,5.52 4.477,10 10,10 v -20" /><path
         id="path46"
         style="fill:#fdd605;fill-opacity:1;fill-rule:nonzero;stroke:none"
         d="m 1188.95,975.414 c 38.15,-4.269 72.78,7.434 111.05,-1.25 -39.47,24.934 -75.53,0.891 -115,25.836 0,-15.789 0,-31.578 0,-47.367 1.32,-0.309 2.64,-0.547 3.95,-0.742 0,7.839 0,15.683 0,23.523" /><path
         id="path48"
         style="fill:#ef2e32;fill-opacity:1;fill-rule:nonzero;stroke:none"
         d="m 1188.95,975.414 c 0,-7.894 0,-15.789 0,-23.68 39.47,-4.421 71.58,26.856 111.05,22.43 -39.61,10.645 -71.58,-3.168 -111.05,1.25" /><path
         id="path50"
         style="fill:#5d657e;fill-opacity:1;fill-rule:nonzero;stroke:none"
         d="m 1180,824.172 h 10 v 179.988 h -10 V 824.172" /><path
         id="path52"
         style="fill:#c6d3d5;fill-opacity:1;fill-rule:nonzero;stroke:none"
         d="m 1185,1020 c 5.52,0 10,-4.48 10,-10 0,-5.52 -4.48,-10 -10,-10 v 20" /><path
         id="path54"
         style="fill:#eaecec;fill-opacity:1;fill-rule:nonzero;stroke:none"
         d="m 1185,1000 c -5.52,0 -10,4.48 -10,10 0,5.52 4.48,10 10,10 v -20" /><path
         id="path56"
         style="fill:#3d9536;fill-opacity:1;fill-rule:nonzero;stroke:none"
         d="m 1440.5,413.121 c -7.79,11.02 -12.4,24.41 -12.4,38.879 0,37.559 30.81,68 68.8,68 38,0 68.81,-30.441 68.81,-68 0,-13.949 -4.26,-26.922 -11.56,-37.719 C 1574.79,408.75 1590,390.16 1590,368 c 0,-26.512 -21.75,-48 -48.57,-48 -13.06,0 -24.9,5.121 -33.63,13.41 -9.32,-8.308 -21.64,-13.41 -35.18,-13.41 -29.07,0 -52.62,23.281 -52.62,52 0,16.75 8.05,31.609 20.5,41.121" /><path
         id="path58"
         style="fill:#666c4d;fill-opacity:1;fill-rule:nonzero;stroke:none"
         d="m 1519.48,370 c -0.56,9.891 -1.37,19.75 -3.36,29.391 -0.76,4.859 -2.09,9.589 -3.16,14.379 -1.36,4.71 -2.58,9.441 -4.2,14.062 -3.05,9.289 -6.62,18.379 -10.77,27.18 -4.14,8.808 -8.73,17.398 -14.03,25.519 4.73,-8.461 8.71,-17.301 12.21,-26.293 3.52,-9 6.44,-18.199 8.8,-27.508 1.29,-4.64 2.16,-9.371 3.17,-14.039 0.73,-4.742 1.71,-9.429 2.13,-14.203 1.29,-9.476 1.41,-19.027 1.31,-28.488 h 7.9" /><path
         id="path60"
         style="fill:#666c4d;fill-opacity:1;fill-rule:nonzero;stroke:none"
         d="m 1509.61,425.262 c -0.35,7.769 2.5,15.75 7.97,21.636 5.42,5.922 13.35,9.633 21.64,9.954 -8.28,0.347 -16.78,-2.723 -23.04,-8.551 -6.29,-5.781 -10.21,-14.242 -10.52,-23.039 h 3.95" /><path
         id="path62"
         style="fill:#2a6622;fill-opacity:1;fill-rule:nonzero;stroke:none"
         d="m 1322,500 c 24.7,0 46.48,-12.289 59.45,-30.988 9.88,4.629 20.88,7.308 32.55,7.308 41.98,0 76,-33.59 76,-75 0,-41.429 -34.02,-75 -76,-75 -27.78,0 -52,14.739 -65.26,36.7 -8.27,-3.27 -17.28,-5.122 -26.74,-5.122 -39.76,0 -72,31.813 -72,71.051 0,39.242 32.24,71.051 72,71.051" /><path
         id="path64"
         style="fill:#378730;fill-opacity:1;fill-rule:nonzero;stroke:none"
         d="m 1535,383.539 c 0,-16.187 -4.97,-31.18 -13.39,-43.539 H 1460 v 120 c 41.43,0 75,-34.23 75,-76.461" /><path
         id="path66"
         style="fill:#378730;fill-opacity:1;fill-rule:nonzero;stroke:none"
         d="m 1410,390.801 c 0,-18.903 -6.62,-36.379 -17.85,-50.801 H 1310 v 140 c 55.22,0 100,-39.941 100,-89.199" /><path
         id="path68"
         style="fill:#307629;fill-opacity:1;fill-rule:nonzero;stroke:none"
         d="m 1385,383.539 c 0,42.231 33.57,76.461 75,76.461 V 340 h -61.61 c -8.42,12.359 -13.39,27.352 -13.39,43.539" /><path
         id="path70"
         style="fill:#3d9536;fill-opacity:1;fill-rule:nonzero;stroke:none"
         d="m 379.684,515.961 c -5.403,9.019 -8.571,19.598 -8.571,30.949 0,27.34 18.063,50.32 42.649,57.32 8.66,24.442 31.531,41.95 58.461,41.95 11.422,0 22.086,-3.2 31.289,-8.68 10.652,19.379 30.945,32.5 54.265,32.5 34.368,0 62.223,-28.441 62.223,-63.531 0,-35.078 -27.855,-63.528 -62.223,-63.528 -11.422,0 -22.089,3.188 -31.289,8.68 -9.226,-16.801 -25.707,-28.812 -45.109,-31.742 -6.871,-13.738 -18.789,-24.359 -33.281,-29.359 5.398,-9.04 8.566,-19.598 8.566,-30.961 C 456.664,426.672 430.551,400 398.336,400 366.117,400 340,426.672 340,459.559 c 0,26.222 16.621,48.441 39.684,56.402" /><path
         id="path72"
         style="fill:#666c4d;fill-opacity:1;fill-rule:nonzero;stroke:none"
         d="m 468.574,520.48 c -0.453,11.122 -5.504,21.758 -13.469,28.961 -7.921,7.278 -18.621,11.039 -28.96,10.508 10.359,-0.461 20.203,-5.179 26.867,-12.597 6.73,-7.391 10.168,-17.293 9.644,-26.872 h 5.918" /><path
         id="path74"
         style="fill:#2a6622;fill-opacity:1;fill-rule:nonzero;stroke:none"
         d="m 430,470 c 0,44.559 35.801,80.789 80.609,82.559 3.817,26.8 27.125,47.441 55.391,47.441 30.93,0 56.004,-24.691 56.004,-55.148 0,-15.454 -6.461,-29.391 -16.859,-39.391 H 630 V 340 H 460 v 70 c -19.469,15.148 -30,33.672 -30,60" /><path
         id="path76"
         style="fill:#565d73;fill-opacity:1;fill-rule:nonzero;stroke:none"
         d="M 960,750 959.984,460 H 580 l -50,290 h 430" /><path
         id="path78"
         style="fill:#7eb1d0;fill-opacity:1;fill-rule:nonzero;stroke:none"
         d="M 590,470 540,740 H 955 L 954.98,470 H 590" /><g
         id="g80"><g
           clip-path="url(#clipPath86)"
           id="g82"><path
             id="path88"
             style="fill:#6d98b3;fill-opacity:1;fill-rule:nonzero;stroke:none"
             d="m 600,680 v -20 h 20 v -20 h 20 v -20 0 h 20 v -20 h 20 v -20 h 20 v -20 h 20 v -20 h 20 v -20 h 20 V 500 L 710,460 H 590 l -30,100 v 20 20 l -10,20 v 20 20 20 h 50" /></g></g><path
         id="path90"
         style="fill:#565d73;fill-opacity:1;fill-rule:nonzero;stroke:none"
         d="m 590,460 h -10 v 280 h 10 V 460" /><path
         id="path92"
         style="fill:#565d73;fill-opacity:1;fill-rule:nonzero;stroke:none"
         d="m 640,460 h -10 v 280 h 10 V 460" /><path
         id="path94"
         style="fill:#565d73;fill-opacity:1;fill-rule:nonzero;stroke:none"
         d="m 700,460 h -10 v 280 h 10 V 460" /><path
         id="path96"
         style="fill:#565d73;fill-opacity:1;fill-rule:nonzero;stroke:none"
         d="m 770,460 h -10 v 280 h 10 V 460" /><path
         id="path98"
         style="fill:#565d73;fill-opacity:1;fill-rule:nonzero;stroke:none"
         d="m 865,460 h -10 v 280 h 10 V 460" /><path
         id="path100"
         style="fill:#c6d3d5;fill-opacity:1;fill-rule:nonzero;stroke:none"
         d="M 960,460 H 715 c 52.582,78.34 142.68,130 245,130 V 460" /><path
         id="path102"
         style="fill:#4a5063;fill-opacity:1;fill-rule:nonzero;stroke:none"
         d="m 960,750 0.016,-290 H 1340 l 50,290 H 960" /><path
         id="path104"
         style="fill:#5894cf;fill-opacity:1;fill-rule:nonzero;stroke:none"
         d="M 965.02,470 965,740 h 415 L 1330,470 H 965.02" /><g
         id="g106"><g
           clip-path="url(#clipPath112)"
           id="g108"><path
             id="path114"
             style="fill:#4c80b4;fill-opacity:1;fill-rule:nonzero;stroke:none"
             d="m 1320,680 v -20 h -20 v -20 h -20 v -20 0 h -20 v -20 h -20 v -20 h -20 v -20 h -20 v -20 h -20 v -20 h -20 v -20 l 50,-40 h 120 l 30,100 v 20 20 l 10,20 v 20 20 20 h -50" /></g></g><path
         id="path116"
         style="fill:#4a5063;fill-opacity:1;fill-rule:nonzero;stroke:none"
         d="m 1330,460 h 10 v 280 h -10 V 460" /><path
         id="path118"
         style="fill:#4a5063;fill-opacity:1;fill-rule:nonzero;stroke:none"
         d="m 1280,460 h 10 v 280 h -10 V 460" /><path
         id="path120"
         style="fill:#4a5063;fill-opacity:1;fill-rule:nonzero;stroke:none"
         d="m 1210,460 h 10 v 280 h -10 V 460" /><path
         id="path122"
         style="fill:#4a5063;fill-opacity:1;fill-rule:nonzero;stroke:none"
         d="m 1140,460 h 10 v 280 h -10 V 460" /><path
         id="path124"
         style="fill:#4a5063;fill-opacity:1;fill-rule:nonzero;stroke:none"
         d="m 1055,460 h 10 v 280 h -10 V 460" /><path
         id="path126"
         style="fill:#adb7b9;fill-opacity:1;fill-rule:nonzero;stroke:none"
         d="m 960,590 c 102.31,0 192.41,-51.66 245,-130 H 960 v 130" /><path
         id="path128"
         style="fill:#378730;fill-opacity:1;fill-rule:nonzero;stroke:none"
         d="m 430,510 c 0,0 50,-97.602 50,-136.629 0,-12.07 -2.152,-23.43 -5.93,-33.371 H 429.867 V 509.738 C 429.949,509.898 430,510 430,510" /><path
         id="path130"
         style="fill:#307629;fill-opacity:1;fill-rule:nonzero;stroke:none"
         d="m 380,373.371 c 0,37.899 47.125,130.988 49.867,136.367 V 340 H 385.93 c -3.778,9.941 -5.93,21.301 -5.93,33.371" /><path
         id="path132"
         style="fill:#666c4d;fill-opacity:1;fill-rule:nonzero;stroke:none"
         d="m 540.266,390 c -0.571,10.219 -1.871,20.332 -4.364,30.141 -2.527,9.757 -5.586,19.359 -9.539,28.57 -3.89,9.219 -8.312,18.18 -13.238,26.848 -4.949,8.64 -10.305,17.05 -16.285,24.972 5.445,-8.301 10.207,-17.011 14.539,-25.89 4.309,-8.911 8.078,-18.039 11.293,-27.34 3.281,-9.27 5.629,-18.821 7.433,-28.391 1.782,-9.601 2.356,-19.308 2.262,-28.91 h 7.899" /><path
         id="path134"
         style="fill:#666c4d;fill-opacity:1;fill-rule:nonzero;stroke:none"
         d="m 530.395,437.359 c 0.027,3.262 1.441,7.129 3.156,10.52 1.742,3.461 3.933,6.73 6.476,9.699 2.551,2.973 5.469,5.641 8.817,7.703 3.328,2.059 7.14,3.481 11.156,3.668 -4.008,0.141 -8.031,-0.961 -11.637,-2.801 -3.621,-1.839 -6.879,-4.359 -9.777,-7.218 -2.902,-2.879 -5.465,-6.09 -7.617,-9.602 -2.102,-3.566 -4.051,-7.207 -4.52,-11.969 h 3.946" /><path
         id="path136"
         style="fill:#9ca4a6;fill-opacity:1;fill-rule:nonzero;stroke:none"
         d="m 1400,340 -70,100 10,20 100,-120 h -40" /><path
         id="path138"
         style="fill:#b5c0c2;fill-opacity:1;fill-rule:nonzero;stroke:none"
         d="m 520,340 70,100 -10,20 -100,-120 h 40" /><path
         id="path140"
         style="fill:#c6d3d5;fill-opacity:1;fill-rule:nonzero;stroke:none"
         d="M 960,460 959.984,340 H 600 l -20,120 h 380" /><path
         id="path142"
         style="fill:#adb7b9;fill-opacity:1;fill-rule:nonzero;stroke:none"
         d="m 960,460 0.016,-120 H 1320 l 20,120 H 960" /><path
         id="path144"
         style="fill:#c6d3d5;fill-opacity:1;fill-rule:nonzero;stroke:none"
         d="M 893.477,860 C 662.891,846.91 500,767.969 500,767.969 l 15.863,-63.168 c 0,0 206.442,31.59 444.375,31.59 0.137,0 -0.14,0 0,0 L 960.316,860 h -66.839" /><path
         id="path146"
         style="fill:#ef2e32;fill-opacity:1;fill-rule:nonzero;stroke:none"
         d="m 1388.95,934.59 c 38.15,4.265 72.78,-7.434 111.05,1.238 -39.47,-24.918 -75.53,-0.887 -115,-25.828 0,15.793 0,31.582 0,47.367 1.32,0.309 2.64,0.547 3.95,0.742 0,-7.839 0,-15.675 0,-23.519" /><path
         id="path148"
         style="fill:#fdd605;fill-opacity:1;fill-rule:nonzero;stroke:none"
         d="m 1388.95,934.59 c 0,7.89 0,15.785 0,23.676 39.47,4.425 71.58,-26.848 111.05,-22.438 -39.61,-10.64 -71.58,3.176 -111.05,-1.238" /><path
         id="path150"
         style="fill:#5d657e;fill-opacity:1;fill-rule:nonzero;stroke:none"
         d="m 1380,780 h 10 v 180 h -10 V 780" /><path
         id="path152"
         style="fill:#c6d3d5;fill-opacity:1;fill-rule:nonzero;stroke:none"
         d="m 1385,975.836 c 5.52,0 10,-4.481 10,-10 0,-5.523 -4.48,-10 -10,-10 v 20" /><path
         id="path154"
         style="fill:#eaecec;fill-opacity:1;fill-rule:nonzero;stroke:none"
         d="m 1385,955.836 c -5.52,0 -10,4.477 -10,10 0,5.519 4.48,10 10,10 v -20" /><path
         id="path156"
         style="fill:#adb7b9;fill-opacity:1;fill-rule:nonzero;stroke:none"
         d="m 1420,767.969 c 0,0 -162.86,78.929 -393.45,92.019 L 960.316,860 960.238,736.391 c 237.752,-0.039 443.902,-31.59 443.902,-31.59 l 15.86,63.168" /><path
         id="path158"
         style="fill:#4a5063;fill-opacity:1;fill-rule:nonzero;stroke:none"
         d="m 1210,420 h -110 v -80 h 110 v 80 0" /><path
         id="path160"
         style="fill:#7eb1d0;fill-opacity:1;fill-rule:nonzero;stroke:none"
         d="m 1110,340 v 70 h 40 v -70 h -40" /><path
         id="path162"
         style="fill:#5894cf;fill-opacity:1;fill-rule:nonzero;stroke:none"
         d="m 1110,340 v 70 h 30 l -20,-70 h -10" /><path
         id="path164"
         style="fill:#7eb1d0;fill-opacity:1;fill-rule:nonzero;stroke:none"
         d="m 1160,340 v 70 h 40 v -70 h -40" /><path
         id="path166"
         style="fill:#5894cf;fill-opacity:1;fill-rule:nonzero;stroke:none"
         d="m 1160,340 v 70 h 30 l -20,-70 h -10" /><path
         id="path168"
         style="fill:#5d657e;fill-opacity:1;fill-rule:nonzero;stroke:none"
         d="m 880,420 h -50 v -50 h 50 v 50 0" /><path
         id="path170"
         style="fill:#7eb1d0;fill-opacity:1;fill-rule:nonzero;stroke:none"
         d="m 840,380 v 30 h 30 v -30 h -30" /><path
         id="path172"
         style="fill:#5d657e;fill-opacity:1;fill-rule:nonzero;stroke:none"
         d="m 950,420 h -50 v -50 h 50 v 50 0" /><path
         id="path174"
         style="fill:#7eb1d0;fill-opacity:1;fill-rule:nonzero;stroke:none"
         d="m 910,380 v 30 h 30 v -30 h -30" /><path
         id="path176"
         style="fill:#4a5063;fill-opacity:1;fill-rule:nonzero;stroke:none"
         d="m 1020,420 h -50 v -50 h 50 v 50 0" /><path
         id="path178"
         style="fill:#7eb1d0;fill-opacity:1;fill-rule:nonzero;stroke:none"
         d="m 980,380 v 30 h 30 v -30 h -30" /><path
         id="path180"
         style="fill:#4a5063;fill-opacity:1;fill-rule:nonzero;stroke:none"
         d="m 1090,420 h -50 v -50 h 50 v 50 0" /><path
         id="path182"
         style="fill:#7eb1d0;fill-opacity:1;fill-rule:nonzero;stroke:none"
         d="m 1050,380 v 30 h 30 v -30 h -30" /><path
         id="path184"
         style="fill:#91d122;fill-opacity:1;fill-rule:nonzero;stroke:none"
         d="m 860,410 h -10 v 10 h 10 v -10" /><path
         id="path186"
         style="fill:#91d122;fill-opacity:1;fill-rule:nonzero;stroke:none"
         d="m 1000,410 h -10 v 10 h 10 v -10" /><path
         id="path188"
         style="fill:#ef2e32;fill-opacity:1;fill-rule:nonzero;stroke:none"
         d="m 930,410 h -10 v 10 h 10 v -10" /><path
         id="path190"
         style="fill:#91d122;fill-opacity:1;fill-rule:nonzero;stroke:none"
         d="m 1060,410 h -10 v 10 h 10 v -10" /><path
         id="path192"
         style="fill:#8b94a9;fill-opacity:1;fill-rule:nonzero;stroke:none"
         d="m 880,480 v 50 h 160 V 480 H 880" /><path
         id="path194"
         style="fill:#221f39;fill-opacity:1;fill-rule:nonzero;stroke:none"
         d="m 890,490 v 30 h 140 V 490 H 890" /><g
         id="g196"><g
           clip-path="url(#clipPath202)"
           id="g198"><path
             id="path210"
             style="fill:url(#linearGradient208);fill-opacity:1;fill-rule:nonzero;stroke:none"
             d="M 960,420 H 660 v 20 h 300 v -20" /></g></g><g
         id="g212"><g
           clip-path="url(#clipPath218)"
           id="g214"><path
             id="path226"
             style="fill:url(#linearGradient224);fill-opacity:1;fill-rule:nonzero;stroke:none"
             d="M 1260,420 H 960 v 20 h 300 v -20" /></g></g><path
         id="path228"
         style="fill:#d1dbdd;fill-opacity:1;fill-rule:nonzero;stroke:none"
         d="m 1145,370 h -30 c -2.75,0 -5,2.25 -5,5 v 0 c 0,2.75 2.25,5 5,5 h 30 c 2.75,0 5,-2.25 5,-5 v 0 c 0,-2.75 -2.25,-5 -5,-5" /><path
         id="path230"
         style="fill:#d1dbdd;fill-opacity:1;fill-rule:nonzero;stroke:none"
         d="m 1195,370 h -30 c -2.75,0 -5,2.25 -5,5 v 0 c 0,2.75 2.25,5 5,5 h 30 c 2.75,0 5,-2.25 5,-5 v 0 c 0,-2.75 -2.25,-5 -5,-5" /><path
         id="path232"
         style="fill:#5d657e;fill-opacity:1;fill-rule:nonzero;stroke:none"
         d="M 820,420 H 710 v -80 h 110 v 80 0" /><path
         id="path234"
         style="fill:#7eb1d0;fill-opacity:1;fill-rule:nonzero;stroke:none"
         d="m 720,340 v 70 h 40 v -70 h -40" /><path
         id="path236"
         style="fill:#5894cf;fill-opacity:1;fill-rule:nonzero;stroke:none"
         d="m 720,340 v 70 h 30 l -20,-70 h -10" /><path
         id="path238"
         style="fill:#7eb1d0;fill-opacity:1;fill-rule:nonzero;stroke:none"
         d="m 770,340 v 70 h 40 v -70 h -40" /><path
         id="path240"
         style="fill:#5894cf;fill-opacity:1;fill-rule:nonzero;stroke:none"
         d="m 770,340 v 70 h 30 l -20,-70 h -10" /><path
         id="path242"
         style="fill:#d1dbdd;fill-opacity:1;fill-rule:nonzero;stroke:none"
         d="m 755,370 h -30 c -2.75,0 -5,2.25 -5,5 v 0 c 0,2.75 2.25,5 5,5 h 30 c 2.75,0 5,-2.25 5,-5 v 0 c 0,-2.75 -2.25,-5 -5,-5" /><path
         id="path244"
         style="fill:#d1dbdd;fill-opacity:1;fill-rule:nonzero;stroke:none"
         d="m 805,370 h -30 c -2.75,0 -5,2.25 -5,5 v 0 c 0,2.75 2.25,5 5,5 h 30 c 2.75,0 5,-2.25 5,-5 v 0 c 0,-2.75 -2.25,-5 -5,-5" /><g
         id="g246"><g
           clip-path="url(#clipPath252)"
           id="g248"><path
             id="path260"
             style="fill:url(#linearGradient258);fill-opacity:1;fill-rule:nonzero;stroke:none"
             d="m 693.281,440 c -3.476,-6.52 -6.722,-13.191 -9.718,-20 h 11.039 c 3.125,6.82 6.507,13.488 10.132,20 h -11.453" /></g></g><path
         id="path262"
         style="fill:#fdd605;fill-opacity:1;fill-rule:nonzero;stroke:none"
         d="M 704.734,440 C 754.469,529.371 850.238,590 960,590 v 10 C 844.48,600 743.938,535.078 693.281,440 h 11.453" /><path
         id="path264"
         style="fill:#fdd605;fill-opacity:1;fill-rule:nonzero;stroke:none"
         d="M 683.563,420 C 671.379,392.332 663.266,362.5 660,331.25 h 10.133 c 3.39,31.34 11.824,61.191 24.469,88.75 h -11.039" /><path
         id="path266"
         style="fill:#ed1c24;fill-opacity:1;fill-rule:nonzero;stroke:none"
         d="M 1226.72,440 C 1176.06,535.078 1075.52,600 960,600 v -10 c 109.76,0 205.54,-60.629 255.26,-150 h 11.46" /><g
         id="g268"><g
           clip-path="url(#clipPath274)"
           id="g270"><path
             id="path282"
             style="fill:url(#linearGradient280);fill-opacity:1;fill-rule:nonzero;stroke:none"
             d="m 1236.44,420 c -3,6.809 -6.24,13.48 -9.72,20 h -11.46 c 3.64,-6.512 7.02,-13.18 10.14,-20 h 11.04" /></g></g><path
         id="path284"
         style="fill:#ed1c24;fill-opacity:1;fill-rule:nonzero;stroke:none"
         d="m 1225.4,420 c 12.65,-27.559 21.07,-57.41 24.46,-88.75 H 1260 c -3.27,31.25 -11.38,61.082 -23.56,88.75 h -11.04" /><path
         id="path286"
         style="fill:#8b94a9;fill-opacity:1;fill-rule:nonzero;stroke:none"
         d="M 1600,320 H 320 v 20 h 1280 v -20" /><path
         id="path288"
         style="fill:#6892ac;fill-opacity:1;fill-rule:nonzero;stroke:none"
         d="m 855,380 v 0 c -2.75,0 -5,2.25 -5,5 v 10 c 0,2.75 2.25,5 5,5 v 0 c 2.75,0 5,-2.25 5,-5 v -10 c 0,-2.75 -2.25,-5 -5,-5" /><path
         id="path290"
         style="fill:#6892ac;fill-opacity:1;fill-rule:nonzero;stroke:none"
         d="m 925,380 v 0 c -2.75,0 -5,2.25 -5,5 v 10 c 0,2.75 2.25,5 5,5 v 0 c 2.75,0 5,-2.25 5,-5 v -10 c 0,-2.75 -2.25,-5 -5,-5" /><path
         id="path292"
         style="fill:#6892ac;fill-opacity:1;fill-rule:nonzero;stroke:none"
         d="m 995,380 v 0 c -2.754,0 -5,2.25 -5,5 v 10 c 0,2.75 2.246,5 5,5 v 0 c 2.754,0 5,-2.25 5,-5 v -10 c 0,-2.75 -2.246,-5 -5,-5" /><path
         id="path294"
         style="fill:#6892ac;fill-opacity:1;fill-rule:nonzero;stroke:none"
         d="m 1065,380 v 0 c -2.75,0 -5,2.25 -5,5 v 10 c 0,2.75 2.25,5 5,5 v 0 c 2.75,0 5,-2.25 5,-5 v -10 c 0,-2.75 -2.25,-5 -5,-5" /><path
         id="path296"
         style="fill:#797f81;fill-opacity:1;fill-rule:nonzero;stroke:none"
         d="m 960,450 h 300 V 440 H 960 v 10" /><path
         id="path298"
         style="fill:#939b9d;fill-opacity:1;fill-rule:nonzero;stroke:none"
         d="M 960,440 H 660 v 10 h 300 v -10" /><path
         id="path300"
         style="fill:#d1dbdd;fill-opacity:1;fill-rule:nonzero;stroke:none"
         d="m 885,340 v 50 c 0,2.75 2.25,5 5,5 v 0 c 2.75,0 5,-2.25 5,-5 v -50 h -10" /><path
         id="path302"
         style="fill:#d1dbdd;fill-opacity:1;fill-rule:nonzero;stroke:none"
         d="m 1025,340 v 50 c 0,2.75 2.25,5 5,5 v 0 c 2.75,0 5,-2.25 5,-5 v -50 h -10" /><path
         id="path304"
         style="fill:#ef2e32;fill-opacity:1;fill-rule:nonzero;stroke:none"
         d="m 937.273,905.43 c 3.711,1.539 7.434,2.789 11.157,3.929 -41.34,-4.078 -73.192,-29.058 -73.192,-59.359 0,-5.641 1.184,-11.078 3.242,-16.262 -0.359,27.153 22.813,56.793 58.793,71.692" /><path
         id="path306"
         style="fill:#ef2e32;fill-opacity:1;fill-rule:nonzero;stroke:none"
         d="m 1045.23,850 c 0,5.641 -1.18,11.082 -3.24,16.262 0.36,-27.153 -22.81,-56.793 -58.799,-71.692 -3.711,-1.539 -7.429,-2.789 -11.148,-3.929 41.347,4.078 73.187,29.058 73.187,59.359" /><path
         id="path308"
         style="fill:#fdd605;fill-opacity:1;fill-rule:nonzero;stroke:none"
         d="M 1041.99,866.262 C 1031.93,891.48 999.188,910 960.238,910 c -4.015,0 -7.941,-0.262 -11.808,-0.641 -3.723,-1.14 -7.446,-2.39 -11.157,-3.929 C 901.293,890.531 878.121,860.891 878.48,833.738 888.535,808.52 921.289,790 960.238,790 c 4.016,0 7.938,0.262 11.805,0.641 3.719,1.14 7.437,2.39 11.148,3.929 35.989,14.899 59.159,44.539 58.799,71.692" /></g></g></svg>