<?xml version="1.0" encoding="UTF-8" standalone="no"?>
<svg
   xmlns:dc="http://purl.org/dc/elements/1.1/"
   xmlns:cc="http://creativecommons.org/ns#"
   xmlns:rdf="http://www.w3.org/1999/02/22-rdf-syntax-ns#"
   xmlns:svg="http://www.w3.org/2000/svg"
   xmlns="http://www.w3.org/2000/svg"
   viewBox="0 0 2829.3333 2829.3333"
   height="2829.3333"
   width="2829.3333"
   xml:space="preserve"
   id="svg2"
   version="1.1"><metadata
     id="metadata8"><rdf:RDF><cc:Work
         rdf:about=""><dc:format>image/svg+xml</dc:format><dc:type
           rdf:resource="http://purl.org/dc/dcmitype/StillImage" /></cc:Work></rdf:RDF></metadata><defs
     id="defs6" /><g
     transform="matrix(1.3333333,0,0,-1.3333333,0,2829.3333)"
     id="g10"><g
       transform="scale(0.1)"
       id="g12"><path
         id="path14"
         style="fill:#f58028;fill-opacity:1;fill-rule:nonzero;stroke:none"
         d="M 8437.81,15393.3 H 4410.47 v -5083.8 h 4027.34 v 5083.8" /><g
         transform="scale(1.03084)"
         id="g16"><path
           id="path18"
           style="fill:#f58028;fill-opacity:1;fill-rule:nonzero;stroke:none"
           d="M 16300,14932.8 H 12393.2 V 10001.1 H 16300 v 4931.7" /></g><g
         transform="scale(1.06471)"
         id="g20"><path
           id="path22"
           style="fill:#f58028;fill-opacity:1;fill-rule:nonzero;stroke:none"
           d="M 11853.2,16300 H 8070.65 V 9682.88 H 11853.2 V 16300" /></g><g
         transform="scale(1.03971)"
         id="g24"><path
           id="path26"
           style="fill:#ef382a;fill-opacity:1;fill-rule:nonzero;stroke:none"
           d="M 16300,8242.43 V 9915.79 H 16161 12287.5 12138.3 8264.77 8115.58 4242.04 4103.03 V 8242.43 H 16300" /></g><g
         transform="scale(1.11457)"
         id="g28"><path
           id="path30"
           style="fill:#888687;fill-opacity:1;fill-rule:nonzero;stroke:none"
           d="m 15720.1,3787.74 h -125 -12157.5 -125.12 c -311.01,0 -564.26,-244.4 -579.82,-551.52 H 16300 c -15.6,307.12 -268.8,551.52 -579.9,551.52" /></g><path
         id="path32"
         style="fill:#fab63b;fill-opacity:1;fill-rule:nonzero;stroke:none"
         d="m 8536.76,15393.3 v 265 H 4311.6 v -265 h 98.87 4027.34 98.95" /><g
         transform="scale(1.03691)"
         id="g34"><path
           id="path36"
           style="fill:#fab63b;fill-opacity:1;fill-rule:nonzero;stroke:none"
           d="m 16300,14845.3 v 255.5 h -4074.8 v -255.5 h 95.4 3883.9 95.5" /></g><g
         transform="scale(1.08097)"
         id="g38"><path
           id="path40"
           style="fill:#fab63b;fill-opacity:1;fill-rule:nonzero;stroke:none"
           d="M 11766.4,16054.9 V 16300 H 7857.76 v -245.1 h 91.5 3725.74 91.4" /></g><g
         transform="scale(1.06215)"
         id="g42"><path
           id="path44"
           style="fill:#f58028;fill-opacity:1;fill-rule:nonzero;stroke:none"
           d="m 4758.5,4365.66 v 3087.31 h 430.18 V 4365.66 h 395.09 220.11 V 7452.97 H 8181.79 V 4365.66 h 615.2 V 7452.97 H 11174.9 V 4365.66 h 615.2 V 7452.97 H 14168 V 4365.66 h 615.2 v 3087.31 h 688.1 V 4365.66 h 357.2 v 3087.31 h 471.5 v 615.26 H 15955.5 4016.31 3671.86 V 7452.97 H 4143.3 V 4365.66 h 615.2" /></g><g
         transform="scale(1.06637)"
         id="g46"><path
           id="path48"
           style="fill:#b4b3b3;fill-opacity:1;fill-rule:nonzero;stroke:none"
           d="m 15410.2,7423.51 h -685.5 V 4348.4 H 14112 V 7423.51 H 11743.5 V 4348.4 h -612.7 V 7423.51 H 8762.22 V 4348.4 H 8149.45 V 7423.51 H 5780.94 V 4348.4 H 5561.7 5168.17 V 7423.51 H 4739.7 V 4348.4 h -612.78 -29.7 c -230.37,0 -426.21,-161.76 -504.23,-389.45 H 16300 c -78,227.69 -273.9,389.45 -504.2,389.45 h -29.9 -355.7 v 3075.11" /></g><g
         transform="scale(1.01591)"
         id="g50"><path
           id="path52"
           style="fill:#ffffff;fill-opacity:1;fill-rule:nonzero;stroke:none"
           d="m 4580.89,8941.11 v 676.24 H 16300 V 8941.11 H 4580.89" /></g><path
         id="path54"
         style="fill:#b4b3b3;fill-opacity:1;fill-rule:nonzero;stroke:none"
         d="M 10885.5,4179.6 H 3704.22 c -299.18,0 -542.81,-235.1 -557.81,-530.6 h 7181.29 c 15,295.5 258.6,530.6 557.8,530.6" /><path
         id="path56"
         style="fill:#dad9d9;fill-opacity:1;fill-rule:nonzero;stroke:none"
         d="M 11011.3,4605.8 H 4344.06 c -190.74,0 -346.05,-149.9 -355.58,-338.3 h 6667.12 c 9.6,188.4 164.9,338.3 355.7,338.3" /><path
         id="path58"
         style="fill:#181818;fill-opacity:1;fill-rule:nonzero;stroke:none"
         d="M 8492.7,4774.9 H 6356.48 V 7451.4 H 8492.7 V 4774.9" /><path
         id="path60"
         style="fill:#323131;fill-opacity:1;fill-rule:nonzero;stroke:none"
         d="M 6534.49,4992.3 V 7260 h 1676.6 z" /><path
         id="path62"
         style="fill:#181818;fill-opacity:1;fill-rule:nonzero;stroke:none"
         d="M 11674.7,4774.9 H 9538.52 V 7451.4 H 11674.7 V 4774.9" /><path
         id="path64"
         style="fill:#181818;fill-opacity:1;fill-rule:nonzero;stroke:none"
         d="m 14856.7,4774.9 h -2136.1 v 2676.5 h 2136.1 V 4774.9" /><path
         id="path66"
         style="fill:#fab63b;fill-opacity:1;fill-rule:nonzero;stroke:none"
         d="m 4653.83,9917.1 c 39.41,0 77.97,15.9 105.82,43.8 27.89,27.9 43.87,66.4 43.87,105.8 0,39.4 -15.98,78 -43.87,105.8 -27.85,28 -66.41,43.9 -105.82,43.9 -39.42,0 -77.93,-15.9 -105.82,-43.9 -27.89,-27.8 -43.83,-66.4 -43.83,-105.8 0,-39.4 15.94,-77.9 43.83,-105.8 27.89,-27.9 66.4,-43.8 105.82,-43.8" /><path
         id="path68"
         style="fill:#fab63b;fill-opacity:1;fill-rule:nonzero;stroke:none"
         d="m 5736.17,9917.1 v 0 c 82.66,0 149.69,67 149.69,149.6 0,82.7 -67.03,149.7 -149.69,149.7 -82.69,0 -149.65,-67 -149.65,-149.7 0,-82.6 66.96,-149.6 149.65,-149.6 z m 1082.35,0 v 0 c 82.61,0 149.64,67 149.64,149.6 0,82.7 -67.03,149.7 -149.64,149.7 -82.7,0 -149.69,-67 -149.69,-149.7 0,-82.6 66.99,-149.6 149.69,-149.6 z m 1082.3,0 v 0 c 82.66,0 149.65,67 149.65,149.6 0,82.7 -66.99,149.7 -149.65,149.7 -82.66,0 -149.69,-67 -149.69,-149.7 0,-82.6 67.03,-149.6 149.69,-149.6 z m 1082.31,0 v 0 c 82.65,0 149.64,67 149.64,149.6 0,82.7 -66.99,149.7 -149.64,149.7 -82.7,0 -149.69,-67 -149.69,-149.7 0,-82.6 66.99,-149.6 149.69,-149.6 z m 1082.27,0 v 0 c 82.7,0 149.7,67 149.7,149.6 0,82.7 -67,149.7 -149.7,149.7 -82.63,0 -149.62,-67 -149.62,-149.7 0,-82.6 66.99,-149.6 149.62,-149.6 z m 1082.4,0 v 0 c 82.6,0 149.6,67 149.6,149.6 0,82.7 -67,149.7 -149.6,149.7 -82.7,0 -149.7,-67 -149.7,-149.7 0,-82.6 67,-149.6 149.7,-149.6 z m 1082.3,0 v 0 c 82.6,0 149.7,67 149.7,149.6 0,82.7 -67.1,149.7 -149.7,149.7 -82.7,0 -149.7,-67 -149.7,-149.7 0,-82.6 67,-149.6 149.7,-149.6 z m 1082.3,0 v 0 c 82.6,0 149.6,67 149.6,149.6 0,82.7 -67,149.7 -149.6,149.7 -82.6,0 -149.7,-67 -149.7,-149.7 0,-82.6 67.1,-149.6 149.7,-149.6 z m 1082.3,0 v 0 c 82.7,0 149.7,67 149.7,149.6 0,82.7 -67,149.7 -149.7,149.7 -82.6,0 -149.7,-67 -149.7,-149.7 0,-82.6 67.1,-149.6 149.7,-149.6 z m 1082.3,0 v 0 c 82.7,0 149.7,67 149.7,149.6 0,82.7 -67,149.7 -149.7,149.7 -82.6,0 -149.6,-67 -149.6,-149.7 0,-82.6 67,-149.6 149.6,-149.6" /><g
         transform="scale(1.02509)"
         id="g70"><path
           id="path72"
           style="fill:#fab63b;fill-opacity:1;fill-rule:nonzero;stroke:none"
           d="m 16154.1,9674.35 c 38.4,0 76,15.51 103.2,42.73 27.1,27.22 42.7,64.77 42.7,103.21 0,38.44 -15.6,76.09 -42.7,103.21 -27.2,27.31 -64.8,42.83 -103.2,42.83 -38.5,0 -76.1,-15.52 -103.2,-42.83 -27.3,-27.12 -42.9,-64.77 -42.9,-103.21 0,-38.44 15.6,-75.99 42.9,-103.21 27.1,-27.22 64.7,-42.73 103.2,-42.73" /></g><path
         id="path74"
         style="fill:#fab63b;fill-opacity:1;fill-rule:nonzero;stroke:none"
         d="m 4653.83,8662.5 c 39.41,0 77.97,15.9 105.82,43.8 27.89,27.9 43.87,66.4 43.87,105.8 0,39.4 -15.98,78 -43.87,105.8 -27.85,27.9 -66.41,43.9 -105.82,43.9 -39.42,0 -77.93,-16 -105.82,-43.9 -27.89,-27.8 -43.83,-66.4 -43.83,-105.8 0,-39.4 15.94,-77.9 43.83,-105.8 27.89,-27.9 66.4,-43.8 105.82,-43.8" /><path
         id="path76"
         style="fill:#fab63b;fill-opacity:1;fill-rule:nonzero;stroke:none"
         d="m 5736.17,8662.5 v 0 c 82.66,0 149.69,67 149.69,149.6 0,82.7 -67.03,149.7 -149.69,149.7 -82.69,0 -149.65,-67 -149.65,-149.7 0,-82.6 66.96,-149.6 149.65,-149.6 z m 1082.35,0 v 0 c 82.61,0 149.64,67 149.64,149.6 0,82.7 -67.03,149.7 -149.64,149.7 -82.7,0 -149.69,-67 -149.69,-149.7 0,-82.6 66.99,-149.6 149.69,-149.6 z m 1082.3,0 v 0 c 82.66,0 149.65,67 149.65,149.6 0,82.7 -66.99,149.7 -149.65,149.7 -82.66,0 -149.69,-67 -149.69,-149.7 0,-82.6 67.03,-149.6 149.69,-149.6 z m 1082.31,0 v 0 c 82.65,0 149.64,67 149.64,149.6 0,82.7 -66.99,149.7 -149.64,149.7 -82.7,0 -149.69,-67 -149.69,-149.7 0,-82.6 66.99,-149.6 149.69,-149.6 z m 1082.27,0 v 0 c 82.7,0 149.7,67 149.7,149.6 0,82.7 -67,149.7 -149.7,149.7 -82.63,0 -149.62,-67 -149.62,-149.7 0,-82.6 66.99,-149.6 149.62,-149.6 z m 1082.4,0 v 0 c 82.6,0 149.6,67 149.6,149.6 0,82.7 -67,149.7 -149.6,149.7 -82.7,0 -149.7,-67 -149.7,-149.7 0,-82.6 67,-149.6 149.7,-149.6 z m 1082.3,0 v 0 c 82.6,0 149.7,67 149.7,149.6 0,82.7 -67.1,149.7 -149.7,149.7 -82.7,0 -149.7,-67 -149.7,-149.7 0,-82.6 67,-149.6 149.7,-149.6 z m 1082.3,0 v 0 c 82.6,0 149.6,67 149.6,149.6 0,82.7 -67,149.7 -149.6,149.7 -82.6,0 -149.7,-67 -149.7,-149.7 0,-82.6 67.1,-149.6 149.7,-149.6 z m 1082.3,0 v 0 c 82.7,0 149.7,67 149.7,149.6 0,82.7 -67,149.7 -149.7,149.7 -82.6,0 -149.7,-67 -149.7,-149.7 0,-82.6 67.1,-149.6 149.7,-149.6 z m 1082.3,0 v 0 c 82.7,0 149.7,67 149.7,149.6 0,82.7 -67,149.7 -149.7,149.7 -82.6,0 -149.6,-67 -149.6,-149.7 0,-82.6 67,-149.6 149.6,-149.6" /><g
         transform="scale(1.02509)"
         id="g78"><path
           id="path80"
           style="fill:#fab63b;fill-opacity:1;fill-rule:nonzero;stroke:none"
           d="m 16154.1,8450.46 c 38.4,0 76,15.51 103.2,42.73 27.1,27.22 42.7,64.77 42.7,103.21 0,38.43 -15.6,76.09 -42.7,103.21 -27.2,27.22 -64.8,42.83 -103.2,42.83 -38.5,0 -76.1,-15.61 -103.2,-42.83 -27.3,-27.12 -42.9,-64.78 -42.9,-103.21 0,-38.44 15.6,-75.99 42.9,-103.21 27.1,-27.22 64.7,-42.73 103.2,-42.73" /></g><path
         id="path82"
         style="fill:#fab63b;fill-opacity:1;fill-rule:nonzero;stroke:none"
         d="m 4831.76,4837.8 h -326.72 v 2924.9 h 326.72 V 4837.8" /><path
         id="path84"
         style="fill:#fab63b;fill-opacity:1;fill-rule:nonzero;stroke:none"
         d="m 3985.94,8003.3 v 330.1 h 6648.96 z" /><path
         id="path86"
         style="fill:#323131;fill-opacity:1;fill-rule:nonzero;stroke:none"
         d="M 9668.01,4992.3 V 7260 h 1676.59 z" /><g
         transform="scale(1.02323)"
         id="g88"><path
           id="path90"
           style="fill:#181818;fill-opacity:1;fill-rule:nonzero;stroke:none"
           d="m 9665.33,15104.5 h -954.2 V 16300 h 954.2 v -1195.5" /></g><g
         transform="scale(1.01786)"
         id="g92"><path
           id="path94"
           style="fill:#323131;fill-opacity:1;fill-rule:nonzero;stroke:none"
           d="M 8815.23,15281.7 V 16300 h 752.8 l -752.8,-1018.3" /></g><g
         transform="scale(1.02323)"
         id="g96"><path
           id="path98"
           style="fill:#181818;fill-opacity:1;fill-rule:nonzero;stroke:none"
           d="M 10842.9,15104.5 H 9888.7 V 16300 h 954.2 v -1195.5" /></g><g
         transform="scale(1.01786)"
         id="g100"><path
           id="path102"
           style="fill:#323131;fill-opacity:1;fill-rule:nonzero;stroke:none"
           d="M 9998.99,15281.7 V 16300 h 752.81 l -752.81,-1018.3" /></g><g
         transform="scale(1.02323)"
         id="g104"><path
           id="path106"
           style="fill:#181818;fill-opacity:1;fill-rule:nonzero;stroke:none"
           d="m 12020.5,15104.5 h -954.2 V 16300 h 954.2 v -1195.5" /></g><g
         transform="scale(1.01786)"
         id="g108"><path
           id="path110"
           style="fill:#323131;fill-opacity:1;fill-rule:nonzero;stroke:none"
           d="M 11182.7,15281.7 V 16300 h 752.9 l -752.9,-1018.3" /></g><path
         id="path112"
         style="fill:#181818;fill-opacity:1;fill-rule:nonzero;stroke:none"
         d="m 9889.84,13987.9 h -976.36 v 1223.3 h 976.36 v -1223.3" /><path
         id="path114"
         style="fill:#323131;fill-opacity:1;fill-rule:nonzero;stroke:none"
         d="m 8972.7,14087.3 v 1036.4 h 766.25 z" /><path
         id="path116"
         style="fill:#181818;fill-opacity:1;fill-rule:nonzero;stroke:none"
         d="m 11094.8,13987.9 h -976.4 v 1223.3 h 976.4 v -1223.3" /><path
         id="path118"
         style="fill:#323131;fill-opacity:1;fill-rule:nonzero;stroke:none"
         d="m 10177.6,14087.3 v 1036.4 h 766.3 z" /><path
         id="path120"
         style="fill:#181818;fill-opacity:1;fill-rule:nonzero;stroke:none"
         d="m 12299.7,13987.9 h -976.3 v 1223.3 h 976.3 v -1223.3" /><path
         id="path122"
         style="fill:#323131;fill-opacity:1;fill-rule:nonzero;stroke:none"
         d="m 11382.5,14087.3 v 1036.4 h 766.3 z" /><path
         id="path124"
         style="fill:#181818;fill-opacity:1;fill-rule:nonzero;stroke:none"
         d="m 9889.84,12520.4 h -976.36 v 1223.3 h 976.36 v -1223.3" /><path
         id="path126"
         style="fill:#323131;fill-opacity:1;fill-rule:nonzero;stroke:none"
         d="m 8972.7,12619.8 v 1036.4 h 766.25 z" /><path
         id="path128"
         style="fill:#181818;fill-opacity:1;fill-rule:nonzero;stroke:none"
         d="m 11094.8,12520.4 h -976.4 v 1223.3 h 976.4 v -1223.3" /><path
         id="path130"
         style="fill:#323131;fill-opacity:1;fill-rule:nonzero;stroke:none"
         d="m 10177.6,12619.8 v 1036.4 h 766.3 z" /><path
         id="path132"
         style="fill:#181818;fill-opacity:1;fill-rule:nonzero;stroke:none"
         d="m 12299.7,12520.4 h -976.3 v 1223.3 h 976.3 v -1223.3" /><path
         id="path134"
         style="fill:#323131;fill-opacity:1;fill-rule:nonzero;stroke:none"
         d="m 11382.5,12619.8 v 1036.4 h 766.3 z" /><path
         id="path136"
         style="fill:#181818;fill-opacity:1;fill-rule:nonzero;stroke:none"
         d="m 9889.84,11052.9 h -976.36 v 1223.3 h 976.36 v -1223.3" /><path
         id="path138"
         style="fill:#323131;fill-opacity:1;fill-rule:nonzero;stroke:none"
         d="m 8972.7,11152.3 v 1036.4 h 766.25 z" /><path
         id="path140"
         style="fill:#181818;fill-opacity:1;fill-rule:nonzero;stroke:none"
         d="m 11094.8,11052.9 h -976.4 v 1223.3 h 976.4 v -1223.3" /><path
         id="path142"
         style="fill:#323131;fill-opacity:1;fill-rule:nonzero;stroke:none"
         d="m 10177.6,11152.3 v 1036.4 h 766.3 z" /><path
         id="path144"
         style="fill:#181818;fill-opacity:1;fill-rule:nonzero;stroke:none"
         d="m 12299.7,11052.9 h -976.3 v 1223.3 h 976.3 v -1223.3" /><path
         id="path146"
         style="fill:#323131;fill-opacity:1;fill-rule:nonzero;stroke:none"
         d="m 11382.5,11152.3 v 1036.4 h 766.3 z" /><path
         id="path148"
         style="fill:#181818;fill-opacity:1;fill-rule:nonzero;stroke:none"
         d="m 5707.38,13668.4 h -976.33 v 1223.2 h 976.33 v -1223.2" /><path
         id="path150"
         style="fill:#323131;fill-opacity:1;fill-rule:nonzero;stroke:none"
         d="m 4790.23,13767.7 v 1036.5 h 766.25 z" /><path
         id="path152"
         style="fill:#181818;fill-opacity:1;fill-rule:nonzero;stroke:none"
         d="m 6912.3,13668.4 h -976.28 v 1223.2 h 976.28 v -1223.2" /><path
         id="path154"
         style="fill:#323131;fill-opacity:1;fill-rule:nonzero;stroke:none"
         d="m 5995.12,13767.7 v 1036.5 h 766.33 z" /><path
         id="path156"
         style="fill:#181818;fill-opacity:1;fill-rule:nonzero;stroke:none"
         d="M 8117.27,13668.4 H 7140.9 v 1223.2 h 976.37 v -1223.2" /><path
         id="path158"
         style="fill:#323131;fill-opacity:1;fill-rule:nonzero;stroke:none"
         d="m 7200.08,13767.7 v 1036.5 h 766.29 z" /><path
         id="path160"
         style="fill:#181818;fill-opacity:1;fill-rule:nonzero;stroke:none"
         d="m 5707.38,12200.9 h -976.33 v 1223.3 h 976.33 v -1223.3" /><path
         id="path162"
         style="fill:#323131;fill-opacity:1;fill-rule:nonzero;stroke:none"
         d="m 4790.23,12300.2 v 1036.5 h 766.25 z" /><path
         id="path164"
         style="fill:#181818;fill-opacity:1;fill-rule:nonzero;stroke:none"
         d="m 6912.3,12200.9 h -976.28 v 1223.3 h 976.28 v -1223.3" /><path
         id="path166"
         style="fill:#323131;fill-opacity:1;fill-rule:nonzero;stroke:none"
         d="m 5995.12,12300.2 v 1036.5 h 766.33 z" /><path
         id="path168"
         style="fill:#181818;fill-opacity:1;fill-rule:nonzero;stroke:none"
         d="M 8117.27,12200.9 H 7140.9 v 1223.3 h 976.37 v -1223.3" /><path
         id="path170"
         style="fill:#323131;fill-opacity:1;fill-rule:nonzero;stroke:none"
         d="m 7200.08,12300.2 v 1036.5 h 766.29 z" /><path
         id="path172"
         style="fill:#181818;fill-opacity:1;fill-rule:nonzero;stroke:none"
         d="m 5707.38,10733.4 h -976.33 v 1223.3 h 976.33 v -1223.3" /><path
         id="path174"
         style="fill:#323131;fill-opacity:1;fill-rule:nonzero;stroke:none"
         d="m 4790.23,10832.8 v 1036.4 h 766.25 z" /><path
         id="path176"
         style="fill:#181818;fill-opacity:1;fill-rule:nonzero;stroke:none"
         d="m 6912.3,10733.4 h -976.28 v 1223.3 h 976.28 v -1223.3" /><path
         id="path178"
         style="fill:#323131;fill-opacity:1;fill-rule:nonzero;stroke:none"
         d="m 5995.12,10832.8 v 1036.4 h 766.33 z" /><path
         id="path180"
         style="fill:#181818;fill-opacity:1;fill-rule:nonzero;stroke:none"
         d="M 8117.27,10733.4 H 7140.9 v 1223.3 h 976.37 v -1223.3" /><path
         id="path182"
         style="fill:#323131;fill-opacity:1;fill-rule:nonzero;stroke:none"
         d="m 7200.08,10832.8 v 1036.4 h 766.29 z" /><path
         id="path184"
         style="fill:#181818;fill-opacity:1;fill-rule:nonzero;stroke:none"
         d="m 14072.3,13668.4 h -976.4 v 1223.2 h 976.4 v -1223.2" /><path
         id="path186"
         style="fill:#181818;fill-opacity:1;fill-rule:nonzero;stroke:none"
         d="m 15277.2,13668.4 h -976.3 v 1223.2 h 976.3 v -1223.2" /><g
         transform="scale(1.01118)"
         id="g188"><path
           id="path190"
           style="fill:#181818;fill-opacity:1;fill-rule:nonzero;stroke:none"
           d="m 16300,13517.3 h -965.6 V 14727 h 965.6 v -1209.7" /></g><path
         id="path192"
         style="fill:#181818;fill-opacity:1;fill-rule:nonzero;stroke:none"
         d="m 14072.3,12200.9 h -976.4 v 1223.3 h 976.4 v -1223.3" /><path
         id="path194"
         style="fill:#181818;fill-opacity:1;fill-rule:nonzero;stroke:none"
         d="m 15277.2,12200.9 h -976.3 v 1223.3 h 976.3 v -1223.3" /><g
         transform="scale(1.01118)"
         id="g196"><path
           id="path198"
           style="fill:#181818;fill-opacity:1;fill-rule:nonzero;stroke:none"
           d="m 16300,12066 h -965.6 v 1209.8 H 16300 V 12066" /></g><path
         id="path200"
         style="fill:#181818;fill-opacity:1;fill-rule:nonzero;stroke:none"
         d="m 14072.3,10733.4 h -976.4 v 1223.3 h 976.4 v -1223.3" /><path
         id="path202"
         style="fill:#181818;fill-opacity:1;fill-rule:nonzero;stroke:none"
         d="m 15277.2,10733.4 h -976.3 v 1223.3 h 976.3 v -1223.3" /><g
         transform="scale(1.01118)"
         id="g204"><path
           id="path206"
           style="fill:#181818;fill-opacity:1;fill-rule:nonzero;stroke:none"
           d="m 16300,10614.7 h -965.6 v 1209.8 h 965.6 v -1209.8" /></g><path
         id="path208"
         style="fill:#fab63b;fill-opacity:1;fill-rule:nonzero;stroke:none"
         d="m 4842.7,15254 h -210.51 v 105.3 H 4842.7 V 15254" /><path
         id="path210"
         style="fill:#fab63b;fill-opacity:1;fill-rule:nonzero;stroke:none"
         d="m 4842.7,14970.8 h -210.51 v 105.2 h 210.51 v -105.2" /><path
         id="path212"
         style="fill:#fab63b;fill-opacity:1;fill-rule:nonzero;stroke:none"
         d="m 4947.89,15107.8 h -210.51 v 105.2 h 210.51 v -105.2" /><path
         id="path214"
         style="fill:#fab63b;fill-opacity:1;fill-rule:nonzero;stroke:none"
         d="m 4514.18,15213 v -105.2 h 185.16 v 105.2 h -185.16" /><g
         transform="scale(1.05992)"
         id="g216"><path
           id="path218"
           style="fill:#fab63b;fill-opacity:1;fill-rule:nonzero;stroke:none"
           d="m 8570.79,16200.7 h -198.61 v 99.3 h 198.61 v -99.3" /></g><g
         transform="scale(1.04254)"
         id="g220"><path
           id="path222"
           style="fill:#fab63b;fill-opacity:1;fill-rule:nonzero;stroke:none"
           d="M 8713.62,16199.1 H 8511.7 v 100.9 h 201.92 v -100.9" /></g><g
         transform="scale(1.05095)"
         id="g224"><path
           id="path226"
           style="fill:#fab63b;fill-opacity:1;fill-rule:nonzero;stroke:none"
           d="m 8744.05,16199.9 h -200.26 v 100.1 h 200.26 v -100.1" /></g><g
         transform="scale(1.05095)"
         id="g228"><path
           id="path230"
           style="fill:#fab63b;fill-opacity:1;fill-rule:nonzero;stroke:none"
           d="m 8331.37,16300 v -100.1 h 176.22 v 100.1 h -176.22" /></g><path
         id="path232"
         style="fill:#fab63b;fill-opacity:1;fill-rule:nonzero;stroke:none"
         d="m 13175.9,15274.3 h -210.5 v 105.2 h 210.5 v -105.2" /><path
         id="path234"
         style="fill:#fab63b;fill-opacity:1;fill-rule:nonzero;stroke:none"
         d="m 13175.9,14991.1 h -210.5 v 105.2 h 210.5 v -105.2" /><path
         id="path236"
         style="fill:#fab63b;fill-opacity:1;fill-rule:nonzero;stroke:none"
         d="m 13281.1,15128.1 h -210.5 v 105.2 h 210.5 v -105.2" /><path
         id="path238"
         style="fill:#fab63b;fill-opacity:1;fill-rule:nonzero;stroke:none"
         d="m 12847.4,15233.3 v -105.2 h 185.2 v 105.2 h -185.2" /><path
         id="path240"
         style="fill:#fab63b;fill-opacity:1;fill-rule:nonzero;stroke:none"
         d="m 4632.23,10491.8 h -163.36 v 4312.4 h 163.36 v -4312.4" /><path
         id="path242"
         style="fill:#fab63b;fill-opacity:1;fill-rule:nonzero;stroke:none"
         d="m 13021.7,10491.8 h -163.5 v 4312.4 h 163.5 v -4312.4" /><g
         transform="scale(1.02323)"
         id="g244"><path
           id="path246"
           style="fill:#fab63b;fill-opacity:1;fill-rule:nonzero;stroke:none"
           d="M 8636.88,10253.6 H 8477.23 V 16300 h 159.65 v -6046.4" /></g><path
         id="path248"
         style="fill:#fcd182;fill-opacity:1;fill-rule:nonzero;stroke:none"
         d="m 4344.96,15473.1 v 163.3 h 3582.77 z" /><path
         id="path250"
         style="fill:#fcd182;fill-opacity:1;fill-rule:nonzero;stroke:none"
         d="m 12709.8,15473.1 v 163.3 h 3582.9 z" /><g
         transform="scale(1.07963)"
         id="g252"><path
           id="path254"
           style="fill:#fcd182;fill-opacity:1;fill-rule:nonzero;stroke:none"
           d="M 7898.43,16148.7 V 16300 H 11217 l -3318.57,-151.3" /></g><path
         id="path256"
         style="fill:#fab63b;fill-opacity:1;fill-rule:nonzero;stroke:none"
         d="m 12270.1,8092.3 h -210.5 v 105.3 h 210.5 v -105.3" /><path
         id="path258"
         style="fill:#fab63b;fill-opacity:1;fill-rule:nonzero;stroke:none"
         d="m 12270.1,7809.1 h -210.5 v 105.2 h 210.5 v -105.2" /><path
         id="path260"
         style="fill:#fab63b;fill-opacity:1;fill-rule:nonzero;stroke:none"
         d="m 12375.3,7946.1 h -210.5 v 105.2 h 210.5 v -105.2" /><path
         id="path262"
         style="fill:#fab63b;fill-opacity:1;fill-rule:nonzero;stroke:none"
         d="m 11941.6,8051.3 v -105.2 h 185.1 v 105.2 h -185.1" /><path
         id="path264"
         style="fill:#fab63b;fill-opacity:1;fill-rule:nonzero;stroke:none"
         d="m 15461.3,7154.8 h -210.6 V 7260 h 210.6 v -105.2" /><path
         id="path266"
         style="fill:#fab63b;fill-opacity:1;fill-rule:nonzero;stroke:none"
         d="m 15461.3,6871.6 h -210.6 v 105.2 h 210.6 v -105.2" /><path
         id="path268"
         style="fill:#fab63b;fill-opacity:1;fill-rule:nonzero;stroke:none"
         d="M 15566.4,7008.6 H 15356 v 105.2 h 210.4 v -105.2" /><path
         id="path270"
         style="fill:#fab63b;fill-opacity:1;fill-rule:nonzero;stroke:none"
         d="m 15132.7,7113.8 v -105.2 h 185.2 v 105.2 h -185.2" /><path
         id="path272"
         style="fill:#fab63b;fill-opacity:1;fill-rule:nonzero;stroke:none"
         d="m 12282.9,5275.5 h -210.6 v 105.3 h 210.6 v -105.3" /><path
         id="path274"
         style="fill:#fab63b;fill-opacity:1;fill-rule:nonzero;stroke:none"
         d="m 12282.9,4992.3 h -210.6 v 105.3 h 210.6 v -105.3" /><path
         id="path276"
         style="fill:#fab63b;fill-opacity:1;fill-rule:nonzero;stroke:none"
         d="m 12388,5129.3 h -210.4 v 105.3 h 210.4 v -105.3" /><path
         id="path278"
         style="fill:#fab63b;fill-opacity:1;fill-rule:nonzero;stroke:none"
         d="m 11954.3,5234.6 v -105.3 h 185.2 v 105.3 h -185.2" /><path
         id="path280"
         style="fill:#fab63b;fill-opacity:1;fill-rule:nonzero;stroke:none"
         d="m 9084.34,7349 h -210.51 v 105.3 h 210.51 V 7349" /><path
         id="path282"
         style="fill:#fab63b;fill-opacity:1;fill-rule:nonzero;stroke:none"
         d="M 9084.34,7065.8 H 8873.83 V 7171 h 210.51 v -105.2" /><path
         id="path284"
         style="fill:#fab63b;fill-opacity:1;fill-rule:nonzero;stroke:none"
         d="M 9189.53,7202.8 H 8979.06 V 7308 h 210.47 v -105.2" /><path
         id="path286"
         style="fill:#fab63b;fill-opacity:1;fill-rule:nonzero;stroke:none"
         d="m 8755.82,7308 v -105.2 h 185.2 V 7308 h -185.2" /><path
         id="path288"
         style="fill:#fab63b;fill-opacity:1;fill-rule:nonzero;stroke:none"
         d="m 5885,6202.1 h -210.51 v 105.3 H 5885 v -105.3" /><path
         id="path290"
         style="fill:#fab63b;fill-opacity:1;fill-rule:nonzero;stroke:none"
         d="m 5885,5918.9 h -210.51 v 105.3 H 5885 v -105.3" /><path
         id="path292"
         style="fill:#fab63b;fill-opacity:1;fill-rule:nonzero;stroke:none"
         d="m 5990.23,6055.9 h -210.46 v 105.3 h 210.46 v -105.3" /><path
         id="path294"
         style="fill:#fab63b;fill-opacity:1;fill-rule:nonzero;stroke:none"
         d="m 5556.48,6161.2 v -105.3 h 185.2 v 105.3 h -185.2" /><path
         id="path296"
         style="fill:#ef382a;fill-opacity:1;fill-rule:nonzero;stroke:none"
         d="m 5068.36,9604.2 v -49.9 H 16144.8 v 49.9 H 5068.36" /><path
         id="path298"
         style="fill:#ef382a;fill-opacity:1;fill-rule:nonzero;stroke:none"
         d="M 5068.36,9404 H 16144.8 v 49.9 H 5068.36 V 9404" /><path
         id="path300"
         style="fill:#ef382a;fill-opacity:1;fill-rule:nonzero;stroke:none"
         d="M 5068.36,9253.6 H 16144.8 v 49.9 H 5068.36 v -49.9" /></g></g></svg>